<?xml version="1.0" encoding="UTF-8"?><svg xmlns="http://www.w3.org/2000/svg" xmlns:xlink="http://www.w3.org/1999/xlink" fill-opacity="1" color-rendering="auto" color-interpolation="auto" text-rendering="auto" stroke="black" stroke-linecap="square" width="1207" stroke-miterlimit="10" shape-rendering="auto" stroke-opacity="1" fill="black" stroke-dasharray="none" font-weight="normal" stroke-width="1" height="284" font-family="'Dialog'" font-style="normal" stroke-linejoin="miter" font-size="12px" stroke-dashoffset="0" image-rendering="auto">
  <!--Generated by ySVG 2.5-->
  <defs id="genericDefs"/>
  <g>
    <defs id="defs1">
      <clipPath clipPathUnits="userSpaceOnUse" id="clipPath1">
        <path d="M0 0 L1207 0 L1207 284 L0 284 L0 0 Z"/>
      </clipPath>
      <clipPath clipPathUnits="userSpaceOnUse" id="clipPath2">
        <path d="M61 -77 L1268 -77 L1268 207 L61 207 L61 -77 Z"/>
      </clipPath>
      <clipPath clipPathUnits="userSpaceOnUse" id="clipPath3">
        <path d="M0 0 L0 18 L59 18 L59 0 Z"/>
      </clipPath>
      <script type="text/ecmascript">
        <![CDATA[      var SVGDocument = null;
      var SVGRoot = null;
      var TrueCoords = null;
      var lastElement = null;
      var initialized = null;
      var tipGroup;
      function Init(evt)
      {
         SVGDocument = evt.target.ownerDocument;
         SVGRoot = SVGDocument.documentElement;
         TrueCoords = SVGRoot.createSVGPoint();
         initialized = evt;
      };
      function GetTrueCoords(evt)
      {
         var newScale = SVGRoot.currentScale;
         var translation = SVGRoot.currentTranslate;
         TrueCoords.x = (evt.clientX - translation.x)/newScale;
         TrueCoords.y = (evt.clientY - translation.y)/newScale;
      };
      function HideTooltip( evt )
      {
         if(initialized == null) {
           Init(evt);
         }
         if(tipGroup != null) {
           tipGroup.setAttributeNS(null, 'visibility', 'hidden');
         }
      };
      function ShowTooltip( evt )
      {
         if(initialized == null) {
           Init(evt);
         }
         GetTrueCoords( evt );
         var tipScale = 1/SVGRoot.currentScale;
         var targetElement = evt.currentTarget;
         if ( lastElement != targetElement )
         {
            var targetId = targetElement.getAttributeNS(null, 'id');
            var tipId = 'tooltip.' + targetId;
            tipGroup = SVGDocument.getElementById(tipId);
            var xPos = TrueCoords.x + (10 * tipScale);
            var yPos = TrueCoords.y + (10 * tipScale);
            tipGroup.setAttributeNS(null, 'transform', 'translate(' + xPos + ',' + yPos + ') scale(' + tipScale + ')');
            tipGroup.setAttributeNS(null, 'visibility', 'visible');
         }
      };
]]>
      </script>
    </defs>
    <g fill="white" text-rendering="geometricPrecision" shape-rendering="geometricPrecision" transform="translate(-61,77)" stroke="white">
      <rect x="61" width="1207" height="284" y="-77" clip-path="url(#clipPath2)" stroke="none"/>
    </g>
    <g id="y.node.0">
      <g/>
      <g text-rendering="geometricPrecision" stroke-miterlimit="1.45" stroke-dasharray="6,2" shape-rendering="geometricPrecision" transform="matrix(1,0,0,1,-61,77)" stroke-linecap="butt">
        <rect x="76.6099" y="-22.5742" fill="none" width="226.8901" rx="4" ry="4" height="74.7026"/>
      </g>
    </g>
    <g onmouseout="HideTooltip(evt)" id="y.node.1" onmousemove="ShowTooltip(evt)">
      <g fill="rgb(204,255,255)" text-rendering="geometricPrecision" shape-rendering="geometricPrecision" transform="matrix(1,0,0,1,-61,77)" stroke="rgb(204,255,255)">
        <path d="M104.1099 -61.363 L268.4219 -61.363 L268.4219 -46.363 L283.4219 -46.363 L283.4219 13.3396 L104.1099 13.3396 Z" stroke="none"/>
      </g>
      <g fill="white" text-rendering="geometricPrecision" shape-rendering="geometricPrecision" transform="matrix(1,0,0,1,-61,77)" stroke="white">
        <path d="M268.4219 -61.363 L268.4219 -46.363 L283.4219 -46.363 Z" stroke="none" fill-rule="evenodd"/>
      </g>
      <g text-rendering="geometricPrecision" stroke-miterlimit="1.45" shape-rendering="geometricPrecision" transform="matrix(1,0,0,1,-61,77)" stroke-linecap="butt">
        <path fill="none" d="M104.1099 -61.363 L268.4219 -61.363 L268.4219 -46.363 L283.4219 -46.363 L283.4219 13.3396 L104.1099 13.3396 Z"/>
        <path fill="none" d="M268.4219 -61.363 L268.4219 -46.363 L283.4219 -46.363 Z" fill-rule="evenodd"/>
      </g>
      <g>
        <g font-size="16px" stroke-linecap="butt" transform="matrix(1,0,0,1,-61,77)" text-rendering="geometricPrecision" font-family="sans-serif" shape-rendering="geometricPrecision" stroke-miterlimit="1.45">
          <text x="125.2659" xml:space="preserve" y="-17.7266" stroke="none">factual_data_graph</text>
        </g>
      </g>
    </g>
    <g onmouseout="HideTooltip(evt)" id="y.node.2" onmousemove="ShowTooltip(evt)">
      <g fill="rgb(204,255,255)" text-rendering="geometricPrecision" shape-rendering="geometricPrecision" transform="matrix(1,0,0,1,-61,77)" stroke="rgb(204,255,255)">
        <path d="M761.8288 -61.363 L926.1409 -61.363 L926.1409 -46.363 L941.1409 -46.363 L941.1409 13.3396 L761.8288 13.3396 Z" stroke="none"/>
        <path fill="white" d="M926.1409 -61.363 L926.1409 -46.363 L941.1409 -46.363 Z" fill-rule="evenodd" stroke="none"/>
      </g>
      <g text-rendering="geometricPrecision" stroke-miterlimit="1.45" shape-rendering="geometricPrecision" transform="matrix(1,0,0,1,-61,77)" stroke-linecap="butt">
        <path fill="none" d="M761.8288 -61.363 L926.1409 -61.363 L926.1409 -46.363 L941.1409 -46.363 L941.1409 13.3396 L761.8288 13.3396 Z"/>
        <path fill="none" d="M926.1409 -61.363 L926.1409 -46.363 L941.1409 -46.363 Z" fill-rule="evenodd"/>
      </g>
      <g>
        <g font-size="16px" stroke-linecap="butt" transform="matrix(1,0,0,1,-61,77)" text-rendering="geometricPrecision" font-family="sans-serif" shape-rendering="geometricPrecision" stroke-miterlimit="1.45">
          <text x="791.4457" xml:space="preserve" y="-17.7266" stroke="none">statement_graph</text>
        </g>
      </g>
    </g>
    <g id="y.node.3">
      <g/>
    </g>
    <g id="y.node.4">
      <g/>
    </g>
    <g id="y.node.5">
      <g/>
      <g text-rendering="geometricPrecision" stroke-miterlimit="1.45" stroke-dasharray="6,2" shape-rendering="geometricPrecision" transform="matrix(1,0,0,1,-61,77)" stroke-linecap="butt">
        <rect x="275.4847" y="120.0388" fill="none" width="226.8901" rx="4" ry="4" height="71.7888"/>
      </g>
    </g>
    <g onmouseout="HideTooltip(evt)" id="y.node.6" onmousemove="ShowTooltip(evt)">
      <g fill="rgb(204,255,255)" text-rendering="geometricPrecision" shape-rendering="geometricPrecision" transform="matrix(1,0,0,1,-61,77)" stroke="rgb(204,255,255)">
        <path d="M311.344 88.6174 L456.1248 88.6174 L456.1248 103.6174 L471.1248 103.6174 L471.1248 142.7576 L311.344 142.7576 Z" stroke="none"/>
        <path fill="white" d="M456.1248 88.6174 L456.1248 103.6174 L471.1248 103.6174 Z" fill-rule="evenodd" stroke="none"/>
      </g>
      <g text-rendering="geometricPrecision" stroke-miterlimit="1.45" shape-rendering="geometricPrecision" transform="matrix(1,0,0,1,-61,77)" stroke-linecap="butt">
        <path fill="none" d="M311.344 88.6174 L456.1248 88.6174 L456.1248 103.6174 L471.1248 103.6174 L471.1248 142.7576 L311.344 142.7576 Z"/>
        <path fill="none" d="M456.1248 88.6174 L456.1248 103.6174 L471.1248 103.6174 Z" fill-rule="evenodd"/>
      </g>
      <g>
        <g font-size="16px" stroke-linecap="butt" transform="matrix(1,0,0,1,-61,77)" text-rendering="geometricPrecision" font-family="sans-serif" shape-rendering="geometricPrecision" stroke-miterlimit="1.45">
          <text x="346.7656" xml:space="preserve" y="121.9727" stroke="none">np:Assertion</text>
        </g>
      </g>
    </g>
    <g id="y.node.7">
      <g/>
      <g text-rendering="geometricPrecision" stroke-miterlimit="1.45" stroke-dasharray="6,2" shape-rendering="geometricPrecision" transform="matrix(1,0,0,1,-61,77)" stroke-linecap="butt">
        <rect x="721.0787" y="120.0388" fill="none" width="226.8901" rx="4" ry="4" height="71.7888"/>
      </g>
    </g>
    <g onmouseout="HideTooltip(evt)" id="y.node.8" onmousemove="ShowTooltip(evt)">
      <g fill="rgb(204,255,255)" text-rendering="geometricPrecision" shape-rendering="geometricPrecision" transform="matrix(1,0,0,1,-61,77)" stroke="rgb(204,255,255)">
        <path d="M756.9379 88.6174 L901.7188 88.6174 L901.7188 103.6174 L916.7188 103.6174 L916.7188 142.7576 L756.9379 142.7576 Z" stroke="none"/>
        <path fill="white" d="M901.7188 88.6174 L901.7188 103.6174 L916.7188 103.6174 Z" fill-rule="evenodd" stroke="none"/>
      </g>
      <g text-rendering="geometricPrecision" stroke-miterlimit="1.45" shape-rendering="geometricPrecision" transform="matrix(1,0,0,1,-61,77)" stroke-linecap="butt">
        <path fill="none" d="M756.9379 88.6174 L901.7188 88.6174 L901.7188 103.6174 L916.7188 103.6174 L916.7188 142.7576 L756.9379 142.7576 Z"/>
        <path fill="none" d="M901.7188 88.6174 L901.7188 103.6174 L916.7188 103.6174 Z" fill-rule="evenodd"/>
      </g>
      <g>
        <g font-size="16px" stroke-linecap="butt" transform="matrix(1,0,0,1,-61,77)" text-rendering="geometricPrecision" font-family="sans-serif" shape-rendering="geometricPrecision" stroke-miterlimit="1.45">
          <text x="783.012" xml:space="preserve" y="121.9727" stroke="none">np:Provenance</text>
        </g>
      </g>
    </g>
    <g id="y.node.9">
      <g/>
      <g text-rendering="geometricPrecision" stroke-miterlimit="1.45" stroke-dasharray="6,2" shape-rendering="geometricPrecision" transform="matrix(1,0,0,1,-61,77)" stroke-linecap="butt">
        <rect x="1026.0477" y="120.0388" fill="none" width="226.8901" rx="4" ry="4" height="71.7888"/>
      </g>
    </g>
    <g onmouseout="HideTooltip(evt)" id="y.node.10" onmousemove="ShowTooltip(evt)">
      <g fill="rgb(204,255,255)" text-rendering="geometricPrecision" shape-rendering="geometricPrecision" transform="matrix(1,0,0,1,-61,77)" stroke="rgb(204,255,255)">
        <path d="M1061.907 88.6174 L1206.6879 88.6174 L1206.6879 103.6174 L1221.6879 103.6174 L1221.6879 142.7576 L1061.907 142.7576 Z" stroke="none"/>
        <path fill="white" d="M1206.6879 88.6174 L1206.6879 103.6174 L1221.6879 103.6174 Z" fill-rule="evenodd" stroke="none"/>
      </g>
      <g text-rendering="geometricPrecision" stroke-miterlimit="1.45" shape-rendering="geometricPrecision" transform="matrix(1,0,0,1,-61,77)" stroke-linecap="butt">
        <path fill="none" d="M1061.907 88.6174 L1206.6879 88.6174 L1206.6879 103.6174 L1221.6879 103.6174 L1221.6879 142.7576 L1061.907 142.7576 Z"/>
        <path fill="none" d="M1206.6879 88.6174 L1206.6879 103.6174 L1221.6879 103.6174 Z" fill-rule="evenodd"/>
      </g>
      <g>
        <g font-size="16px" stroke-linecap="butt" transform="matrix(1,0,0,1,-61,77)" text-rendering="geometricPrecision" font-family="sans-serif" shape-rendering="geometricPrecision" stroke-miterlimit="1.45">
          <text x="1078.1959" xml:space="preserve" y="121.9727" stroke="none">np:PublicationInfo</text>
        </g>
      </g>
    </g>
    <g id="y.edge.3">
      <g stroke-linecap="butt" transform="matrix(1,0,0,1,-61,77)" fill="navy" text-rendering="geometricPrecision" shape-rendering="geometricPrecision" stroke="navy" stroke-miterlimit="1.45">
        <path fill="none" d="M189.0784 33.2462 L189.0784 136.7523 L288.2589 136.7523"/>
        <path d="M189.0784 25.2462 C191.2875 25.2462 193.0784 27.037 193.0784 29.2462 C193.0784 31.4553 191.2875 33.2462 189.0784 33.2462 C186.8692 33.2462 185.0784 31.4553 185.0784 29.2462 C185.0784 27.037 186.8692 25.2462 189.0784 25.2462 Z" stroke="none"/>
        <path d="M299.2589 136.7523 L287.2589 130.7523 L287.2589 142.7523 Z" stroke="none"/>
      </g>
    </g>
    <g id="y.edge.4">
      <g stroke-linecap="butt" transform="matrix(1,0,0,1,-61,77)" fill="navy" text-rendering="geometricPrecision" shape-rendering="geometricPrecision" stroke="navy" stroke-miterlimit="1.45">
        <path fill="none" d="M294.3262 164.1523 L161.2617 164.1523 L161.2617 40.2559"/>
        <path d="M302.3262 164.1523 C302.3262 166.3615 300.5353 168.1523 298.3262 168.1523 C296.117 168.1523 294.3262 166.3615 294.3262 164.1523 C294.3262 161.9432 296.117 160.1523 298.3262 160.1523 C300.5353 160.1523 302.3262 161.9432 302.3262 164.1523 Z" stroke="none"/>
        <path d="M161.2617 29.2559 L155.2617 41.2559 L167.2617 41.2559 Z" stroke="none"/>
      </g>
    </g>
    <g id="y.edge.0">
      <g stroke-linecap="butt" transform="matrix(1,0,0,1,-61,77)" fill="navy" text-rendering="geometricPrecision" shape-rendering="geometricPrecision" stroke="navy" stroke-miterlimit="1.45">
        <path fill="none" d="M757.845 -24.0117 L391.2344 -24.0117 L391.2344 77.6412"/>
        <path d="M765.845 -24.0117 C765.845 -21.8026 764.0541 -20.0117 761.845 -20.0117 C759.6358 -20.0117 757.845 -21.8026 757.845 -24.0117 C757.845 -26.2209 759.6358 -28.0117 761.845 -28.0117 C764.0541 -28.0117 765.845 -26.2209 765.845 -24.0117 Z" stroke="none"/>
        <path d="M391.2344 88.6412 L397.2344 76.6412 L385.2344 76.6412 Z" stroke="none"/>
      </g>
      <g>
        <g stroke-linecap="butt" transform="matrix(1,0,0,1,-61,77)" fill="white" text-rendering="geometricPrecision" shape-rendering="geometricPrecision" stroke="white" stroke-miterlimit="1.45">
          <rect x="512.6019" width="118.7344" height="23.6016" y="-35.8125" stroke="none"/>
        </g>
        <g stroke-linecap="butt" font-size="16px" transform="matrix(1,0,0,1,-61,77)" fill="navy" text-rendering="geometricPrecision" font-family="sans-serif" shape-rendering="geometricPrecision" stroke="navy" stroke-miterlimit="1.45">
          <text x="514.6019" xml:space="preserve" y="-17.7266" stroke="none">np:hasAssertion</text>
        </g>
      </g>
    </g>
    <g id="y.edge.5">
      <g stroke-linecap="butt" transform="matrix(1,0,0,1,-61,77)" fill="navy" text-rendering="geometricPrecision" shape-rendering="geometricPrecision" stroke="navy" stroke-miterlimit="1.45">
        <path fill="none" d="M506.368 155.9332 L710.1155 155.9332"/>
        <path d="M498.368 155.9332 C498.368 153.7241 500.1588 151.9332 502.368 151.9332 C504.5771 151.9332 506.368 153.7241 506.368 155.9332 C506.368 158.1424 504.5771 159.9332 502.368 159.9332 C500.1588 159.9332 498.368 158.1424 498.368 155.9332 Z" stroke="none"/>
        <path d="M721.1155 155.9332 L709.1155 149.9332 L709.1155 161.9332 Z" stroke="none"/>
      </g>
      <g>
        <g stroke-linecap="butt" transform="matrix(1,0,0,1,-61,77)" fill="white" text-rendering="geometricPrecision" shape-rendering="geometricPrecision" stroke="white" stroke-miterlimit="1.45">
          <rect x="530.5744" width="162.3047" height="23.6016" y="144.1324" stroke="none"/>
        </g>
        <g stroke-linecap="butt" font-size="16px" transform="matrix(1,0,0,1,-61,77)" fill="navy" text-rendering="geometricPrecision" font-family="sans-serif" shape-rendering="geometricPrecision" stroke="navy" stroke-miterlimit="1.45">
          <text x="532.5743" xml:space="preserve" y="162.2184" stroke="none">prov:wasGeneratedBy</text>
        </g>
      </g>
    </g>
    <g id="y.edge.1">
      <g stroke-linecap="butt" transform="matrix(1,0,0,1,-61,77)" fill="navy" text-rendering="geometricPrecision" shape-rendering="geometricPrecision" stroke="navy" stroke-miterlimit="1.45">
        <path fill="none" d="M836.8284 17.3416 L836.8284 77.6518"/>
        <path d="M836.8284 9.3416 C839.0375 9.3416 840.8284 11.1325 840.8284 13.3416 C840.8284 15.5507 839.0375 17.3416 836.8284 17.3416 C834.6192 17.3416 832.8284 15.5507 832.8284 13.3416 C832.8284 11.1325 834.6192 9.3416 836.8284 9.3416 Z" stroke="none"/>
        <path d="M836.8284 88.6518 L842.8284 76.6518 L830.8284 76.6518 Z" stroke="none"/>
      </g>
      <g>
        <g stroke-linecap="butt" transform="matrix(1,0,0,1,-61,77)" fill="white" text-rendering="geometricPrecision" shape-rendering="geometricPrecision" stroke="white" stroke-miterlimit="1.45">
          <rect x="768.1135" width="137.4297" height="23.6016" y="39.1777" stroke="none"/>
        </g>
        <g stroke-linecap="butt" font-size="16px" transform="matrix(1,0,0,1,-61,77)" fill="navy" text-rendering="geometricPrecision" font-family="sans-serif" shape-rendering="geometricPrecision" stroke="navy" stroke-miterlimit="1.45">
          <text x="770.1135" xml:space="preserve" y="57.2637" stroke="none">np:hasProvenance</text>
        </g>
      </g>
    </g>
    <g id="y.edge.2">
      <g stroke-linecap="butt" transform="matrix(1,0,0,1,-61,77)" fill="navy" text-rendering="geometricPrecision" shape-rendering="geometricPrecision" stroke="navy" stroke-miterlimit="1.45">
        <path fill="none" d="M945.1775 -25.4104 L1141.7975 -25.4104 L1141.7975 77.646"/>
        <path d="M937.1775 -25.4104 C937.1775 -27.6195 938.9683 -29.4104 941.1775 -29.4104 C943.3867 -29.4104 945.1775 -27.6195 945.1775 -25.4104 C945.1775 -23.2013 943.3867 -21.4104 941.1775 -21.4104 C938.9683 -21.4104 937.1775 -23.2013 937.1775 -25.4104 Z" stroke="none"/>
        <path d="M1141.7975 88.646 L1147.7975 76.646 L1135.7975 76.646 Z" stroke="none"/>
      </g>
      <g>
        <g stroke-linecap="butt" transform="matrix(1,0,0,1,-61,77)" fill="white" text-rendering="geometricPrecision" shape-rendering="geometricPrecision" stroke="white" stroke-miterlimit="1.45">
          <rect x="967.5316" width="157" height="23.6016" y="-37.2112" stroke="none"/>
        </g>
        <g stroke-linecap="butt" font-size="16px" transform="matrix(1,0,0,1,-61,77)" fill="navy" text-rendering="geometricPrecision" font-family="sans-serif" shape-rendering="geometricPrecision" stroke="navy" stroke-miterlimit="1.45">
          <text x="969.5316" xml:space="preserve" y="-19.1252" stroke="none">np:hasPublicationInfo</text>
        </g>
      </g>
    </g>
    <g visibility="hidden" id="tooltip.y.node.1" pointer-events="none">
      <g fill="rgb(255,255,225)" text-rendering="geometricPrecision" shape-rendering="geometricPrecision" font-family="'Segoe UI'" stroke="rgb(255,255,225)">
        <rect x="0" width="59" height="18" y="0" clip-path="url(#clipPath3)" stroke="none"/>
        <text fill="black" x="4" xml:space="preserve" y="14" clip-path="url(#clipPath3)" stroke="none">UMLNote</text>
      </g>
      <g font-family="'Segoe UI'" text-rendering="geometricPrecision" shape-rendering="geometricPrecision">
        <path d="M0 0 L59 0 L59 18 L0 18 L0 0 ZM1 1 L58 1 L58 17 L1 17 L1 1 Z" fill-rule="evenodd" clip-path="url(#clipPath3)" stroke="none"/>
      </g>
    </g>
    <g visibility="hidden" id="tooltip.y.node.2" pointer-events="none">
      <g fill="rgb(255,255,225)" text-rendering="geometricPrecision" shape-rendering="geometricPrecision" font-family="'Segoe UI'" stroke="rgb(255,255,225)">
        <rect x="0" width="59" height="18" y="0" clip-path="url(#clipPath3)" stroke="none"/>
        <text fill="black" x="4" xml:space="preserve" y="14" clip-path="url(#clipPath3)" stroke="none">UMLNote</text>
      </g>
      <g font-family="'Segoe UI'" text-rendering="geometricPrecision" shape-rendering="geometricPrecision">
        <path d="M0 0 L59 0 L59 18 L0 18 L0 0 ZM1 1 L58 1 L58 17 L1 17 L1 1 Z" fill-rule="evenodd" clip-path="url(#clipPath3)" stroke="none"/>
      </g>
    </g>
    <g visibility="hidden" id="tooltip.y.node.6" pointer-events="none">
      <g fill="rgb(255,255,225)" text-rendering="geometricPrecision" shape-rendering="geometricPrecision" font-family="'Segoe UI'" stroke="rgb(255,255,225)">
        <rect x="0" width="59" height="18" y="0" clip-path="url(#clipPath3)" stroke="none"/>
        <text fill="black" x="4" xml:space="preserve" y="14" clip-path="url(#clipPath3)" stroke="none">UMLNote</text>
      </g>
      <g font-family="'Segoe UI'" text-rendering="geometricPrecision" shape-rendering="geometricPrecision">
        <path d="M0 0 L59 0 L59 18 L0 18 L0 0 ZM1 1 L58 1 L58 17 L1 17 L1 1 Z" fill-rule="evenodd" clip-path="url(#clipPath3)" stroke="none"/>
      </g>
    </g>
    <g visibility="hidden" id="tooltip.y.node.8" pointer-events="none">
      <g fill="rgb(255,255,225)" text-rendering="geometricPrecision" shape-rendering="geometricPrecision" font-family="'Segoe UI'" stroke="rgb(255,255,225)">
        <rect x="0" width="59" height="18" y="0" clip-path="url(#clipPath3)" stroke="none"/>
        <text fill="black" x="4" xml:space="preserve" y="14" clip-path="url(#clipPath3)" stroke="none">UMLNote</text>
      </g>
      <g font-family="'Segoe UI'" text-rendering="geometricPrecision" shape-rendering="geometricPrecision">
        <path d="M0 0 L59 0 L59 18 L0 18 L0 0 ZM1 1 L58 1 L58 17 L1 17 L1 1 Z" fill-rule="evenodd" clip-path="url(#clipPath3)" stroke="none"/>
      </g>
    </g>
    <g visibility="hidden" id="tooltip.y.node.10" pointer-events="none">
      <g fill="rgb(255,255,225)" text-rendering="geometricPrecision" shape-rendering="geometricPrecision" font-family="'Segoe UI'" stroke="rgb(255,255,225)">
        <rect x="0" width="59" height="18" y="0" clip-path="url(#clipPath3)" stroke="none"/>
        <text fill="black" x="4" xml:space="preserve" y="14" clip-path="url(#clipPath3)" stroke="none">UMLNote</text>
      </g>
      <g font-family="'Segoe UI'" text-rendering="geometricPrecision" shape-rendering="geometricPrecision">
        <path d="M0 0 L59 0 L59 18 L0 18 L0 0 ZM1 1 L58 1 L58 17 L1 17 L1 1 Z" fill-rule="evenodd" clip-path="url(#clipPath3)" stroke="none"/>
      </g>
    </g>
  </g>
</svg>
