<?xml version="1.0" encoding="UTF-8"?><svg xmlns="http://www.w3.org/2000/svg" xmlns:xlink="http://www.w3.org/1999/xlink" fill-opacity="1" color-rendering="auto" color-interpolation="auto" text-rendering="auto" stroke="black" stroke-linecap="square" width="1434" stroke-miterlimit="10" shape-rendering="auto" stroke-opacity="1" fill="black" stroke-dasharray="none" font-weight="normal" stroke-width="1" height="450" font-family="'Dialog'" font-style="normal" stroke-linejoin="miter" font-size="12px" stroke-dashoffset="0" image-rendering="auto">
  <!--Generated by ySVG 2.5-->
  <defs id="genericDefs"/>
  <g>
    <defs id="defs1">
      <clipPath clipPathUnits="userSpaceOnUse" id="clipPath1">
        <path d="M0 0 L1434 0 L1434 450 L0 450 L0 0 Z"/>
      </clipPath>
      <clipPath clipPathUnits="userSpaceOnUse" id="clipPath2">
        <path d="M74 -8 L1508 -8 L1508 442 L74 442 L74 -8 Z"/>
      </clipPath>
    </defs>
    <g fill="white" text-rendering="geometricPrecision" shape-rendering="geometricPrecision" transform="translate(-74,8)" stroke="white">
      <rect x="74" width="1434" height="450" y="-8" clip-path="url(#clipPath2)" stroke="none"/>
    </g>
    <g fill="yellow" text-rendering="geometricPrecision" shape-rendering="geometricPrecision" transform="matrix(1,0,0,1,-74,8)" stroke="yellow">
      <rect x="416.2346" y="261.125" clip-path="url(#clipPath2)" width="272.7182" rx="4" ry="4" height="44" stroke="none"/>
    </g>
    <g font-size="16px" stroke-linecap="butt" transform="matrix(1,0,0,1,-74,8)" text-rendering="geometricPrecision" font-family="sans-serif" shape-rendering="geometricPrecision" stroke-miterlimit="1.45">
      <text x="425.8477" xml:space="preserve" y="289.4102" clip-path="url(#clipPath2)" stroke="none">efrbroo:F4_Manifestation_Singleton</text>
      <rect x="416.2346" y="261.125" clip-path="url(#clipPath2)" fill="none" width="272.7182" rx="4" ry="4" height="44"/>
    </g>
    <g fill="yellow" text-rendering="geometricPrecision" shape-rendering="geometricPrecision" transform="matrix(1,0,0,1,-74,8)" stroke="yellow">
      <rect x="1148.0471" y="330.7057" clip-path="url(#clipPath2)" width="166.9682" rx="4" ry="4" height="44" stroke="none"/>
    </g>
    <g font-size="16px" stroke-linecap="butt" transform="matrix(1,0,0,1,-74,8)" text-rendering="geometricPrecision" font-family="sans-serif" shape-rendering="geometricPrecision" stroke-miterlimit="1.45">
      <text x="1150.6016" xml:space="preserve" y="358.9909" clip-path="url(#clipPath2)" stroke="none">efrbroo:F2_Expression</text>
      <rect x="1148.0471" y="330.7057" clip-path="url(#clipPath2)" fill="none" width="166.9682" rx="4" ry="4" height="44"/>
    </g>
    <g fill="yellow" text-rendering="geometricPrecision" shape-rendering="geometricPrecision" transform="matrix(1,0,0,1,-74,8)" stroke="yellow">
      <rect x="89.7142" y="7.2266" clip-path="url(#clipPath2)" width="255.3081" rx="4" ry="4" height="44" stroke="none"/>
    </g>
    <g font-size="16px" stroke-linecap="butt" transform="matrix(1,0,0,1,-74,8)" text-rendering="geometricPrecision" font-family="sans-serif" shape-rendering="geometricPrecision" stroke-miterlimit="1.45">
      <text x="97.3018" xml:space="preserve" y="35.5117" clip-path="url(#clipPath2)" stroke="none">efrbroo:F28_Expression_Creation</text>
      <rect x="89.7142" y="7.2266" clip-path="url(#clipPath2)" fill="none" width="255.3081" rx="4" ry="4" height="44"/>
    </g>
    <g fill="rgb(255,153,204)" text-rendering="geometricPrecision" shape-rendering="geometricPrecision" transform="matrix(1,0,0,1,-74,8)" stroke="rgb(255,153,204)">
      <circle r="10" clip-path="url(#clipPath2)" cx="1072.671" cy="414.7057" stroke="none"/>
    </g>
    <g font-size="16px" stroke-linecap="butt" transform="matrix(1,0,0,1,-74,8)" text-rendering="geometricPrecision" font-family="sans-serif" shape-rendering="geometricPrecision" stroke-miterlimit="1.45">
      <text x="1088.671" xml:space="preserve" y="420.9909" clip-path="url(#clipPath2)" stroke="none">myth-item:775-expression</text>
      <circle fill="none" stroke-width="3" r="10" clip-path="url(#clipPath2)" cx="1072.671" cy="414.7057"/>
    </g>
    <g fill="rgb(255,153,204)" text-rendering="geometricPrecision" shape-rendering="geometricPrecision" transform="matrix(1,0,0,1,-74,8)" stroke="rgb(255,153,204)">
      <circle r="10" clip-path="url(#clipPath2)" cx="217.3682" cy="91.2266" stroke="none"/>
    </g>
    <g font-size="16px" stroke-linecap="butt" transform="matrix(1,0,0,1,-74,8)" text-rendering="geometricPrecision" font-family="sans-serif" shape-rendering="geometricPrecision" stroke-miterlimit="1.45">
      <text x="233.3682" xml:space="preserve" y="97.5117" clip-path="url(#clipPath2)" stroke="none">myth-item:775-creation</text>
      <circle fill="none" stroke-width="3" r="10" clip-path="url(#clipPath2)" cx="217.3682" cy="91.2266"/>
    </g>
    <g fill="rgb(255,153,204)" text-rendering="geometricPrecision" shape-rendering="geometricPrecision" transform="matrix(1,0,0,1,-74,8)" stroke="rgb(255,153,204)">
      <circle r="10" clip-path="url(#clipPath2)" cx="552.5938" cy="212.439" stroke="none"/>
    </g>
    <g font-size="16px" stroke-linecap="butt" transform="matrix(1,0,0,1,-74,8)" text-rendering="geometricPrecision" font-family="sans-serif" shape-rendering="geometricPrecision" stroke-miterlimit="1.45">
      <text x="435.2266" xml:space="preserve" y="218.7241" clip-path="url(#clipPath2)" stroke="none">myth-item:775</text>
      <circle fill="none" stroke-width="3" r="10" clip-path="url(#clipPath2)" cx="552.5938" cy="212.439"/>
    </g>
    <g fill="yellow" text-rendering="geometricPrecision" shape-rendering="geometricPrecision" transform="matrix(1,0,0,1,-74,8)" stroke="yellow">
      <rect x="789.9846" y="231.4883" clip-path="url(#clipPath2)" width="131.0307" rx="4" ry="4" height="44" stroke="none"/>
    </g>
    <g font-size="16px" stroke-linecap="butt" transform="matrix(1,0,0,1,-74,8)" text-rendering="geometricPrecision" font-family="sans-serif" shape-rendering="geometricPrecision" stroke-miterlimit="1.45">
      <text x="799.0312" xml:space="preserve" y="259.7734" clip-path="url(#clipPath2)" stroke="none">ecrm:P55_Type</text>
      <rect x="789.9846" y="231.4883" clip-path="url(#clipPath2)" fill="none" width="131.0307" rx="4" ry="4" height="44"/>
    </g>
    <g fill="rgb(255,153,204)" text-rendering="geometricPrecision" shape-rendering="geometricPrecision" transform="matrix(1,0,0,1,-74,8)" stroke="rgb(255,153,204)">
      <circle r="10" clip-path="url(#clipPath2)" cx="855.5" cy="172.0352" stroke="none"/>
    </g>
    <g font-size="16px" stroke-linecap="butt" transform="matrix(1,0,0,1,-74,8)" text-rendering="geometricPrecision" font-family="sans-serif" shape-rendering="geometricPrecision" stroke-miterlimit="1.45">
      <text x="871.5" xml:space="preserve" y="178.3203" clip-path="url(#clipPath2)" stroke="none">myth:scultura</text>
      <circle fill="none" stroke-width="3" r="10" clip-path="url(#clipPath2)" cx="855.5" cy="172.0352"/>
      <text x="847.5" xml:space="preserve" y="127.8789" clip-path="url(#clipPath2)" stroke="none">"Statua bronzea."^^xsd:string</text>
    </g>
    <g fill="rgb(255,153,204)" text-rendering="geometricPrecision" shape-rendering="geometricPrecision" transform="matrix(1,0,0,1,-74,8)" stroke="rgb(255,153,204)">
      <circle r="10" clip-path="url(#clipPath2)" cx="855.5" cy="79.2266" stroke="none"/>
    </g>
    <g font-size="16px" stroke-linecap="butt" transform="matrix(1,0,0,1,-74,8)" text-rendering="geometricPrecision" font-family="sans-serif" shape-rendering="geometricPrecision" stroke-miterlimit="1.45">
      <text x="871.5" xml:space="preserve" y="85.5117" clip-path="url(#clipPath2)" stroke="none"> "Prometeo"^^xsd:string</text>
      <circle fill="none" stroke-width="3" r="10" clip-path="url(#clipPath2)" cx="855.5" cy="79.2266"/>
    </g>
    <g fill="rgb(255,153,204)" text-rendering="geometricPrecision" shape-rendering="geometricPrecision" transform="matrix(1,0,0,1,-74,8)" stroke="rgb(255,153,204)">
      <circle r="10" clip-path="url(#clipPath2)" cx="855.5" cy="29.2266" stroke="none"/>
    </g>
    <g font-size="16px" stroke-linecap="butt" transform="matrix(1,0,0,1,-74,8)" text-rendering="geometricPrecision" font-family="sans-serif" shape-rendering="geometricPrecision" stroke-miterlimit="1.45">
      <text x="871.5" xml:space="preserve" y="35.5117" clip-path="url(#clipPath2)" stroke="none">"2019/06/4-atelier-prometeo-museo-pogliaghi.jpg"^^xsd:string</text>
      <circle fill="none" stroke-width="3" r="10" clip-path="url(#clipPath2)" cx="855.5" cy="29.2266"/>
      <text x="1328.2654" xml:space="preserve" y="228.25" clip-path="url(#clipPath2)" stroke="none">"pogliaghi"^^xsd:string</text>
      <text x="1328.2654" xml:space="preserve" y="271.332" clip-path="url(#clipPath2)" stroke="none">"prometeo"^^xsd:string</text>
      <text x="1328.2654" xml:space="preserve" y="313.543" clip-path="url(#clipPath2)" stroke="none">"[...]"^^xsd:string</text>
    </g>
    <g fill="rgb(255,153,204)" text-rendering="geometricPrecision" shape-rendering="geometricPrecision" transform="matrix(1,0,0,1,-74,8)" stroke="rgb(255,153,204)">
      <circle r="10" clip-path="url(#clipPath2)" cx="1316.2654" cy="179.3242" stroke="none"/>
    </g>
    <g font-size="16px" stroke-linecap="butt" transform="matrix(1,0,0,1,-74,8)" text-rendering="geometricPrecision" font-family="sans-serif" shape-rendering="geometricPrecision" stroke-miterlimit="1.45">
      <text x="1332.2654" xml:space="preserve" y="185.6094" clip-path="url(#clipPath2)" stroke="none">teseo</text>
      <circle fill="none" stroke-width="3" r="10" clip-path="url(#clipPath2)" cx="1316.2654" cy="179.3242"/>
    </g>
    <g fill="yellow" text-rendering="geometricPrecision" shape-rendering="geometricPrecision" transform="matrix(1,0,0,1,-74,8)" stroke="yellow">
      <rect x="1232.7812" y="88.0352" clip-path="url(#clipPath2)" width="166.9682" rx="4" ry="4" height="44" stroke="none"/>
    </g>
    <g font-size="16px" stroke-linecap="butt" transform="matrix(1,0,0,1,-74,8)" text-rendering="geometricPrecision" font-family="sans-serif" shape-rendering="geometricPrecision" stroke-miterlimit="1.45">
      <text x="1239.3552" xml:space="preserve" y="116.3203" clip-path="url(#clipPath2)" stroke="none">ecrm:E1_CRM_Entity</text>
      <rect x="1232.7812" y="88.0352" clip-path="url(#clipPath2)" fill="none" width="166.9682" rx="4" ry="4" height="44"/>
    </g>
    <g stroke-linecap="butt" transform="matrix(1,0,0,1,-74,8)" fill="navy" text-rendering="geometricPrecision" shape-rendering="geometricPrecision" stroke="navy" stroke-miterlimit="1.45">
      <path fill="none" d="M552.5938 309.0881 L552.5938 366.2682 L1040.4375 366.2682 L1058.0822 404.7086" clip-path="url(#clipPath2)"/>
      <path d="M552.5938 301.0881 C554.8029 301.0881 556.5938 302.879 556.5938 305.0881 C556.5938 307.2973 554.8029 309.0881 552.5938 309.0881 C550.3846 309.0881 548.5938 307.2973 548.5938 305.0881 C548.5938 302.879 550.3846 301.0881 552.5938 301.0881 Z" clip-path="url(#clipPath2)" stroke="none"/>
      <path d="M1062.671 414.7057 L1063.1179 401.2968 L1052.212 406.3028 Z" clip-path="url(#clipPath2)" stroke="none"/>
      <rect x="612.1797" y="354.4674" clip-path="url(#clipPath2)" fill="white" width="368.6719" height="23.6016" stroke="none"/>
      <text x="614.1797" font-size="16px" y="372.5534" clip-path="url(#clipPath2)" font-family="sans-serif" stroke="none" xml:space="preserve">R42_is_representative_manifestation_singleton_for</text>
      <path fill="none" d="M1072.671 404.7057 L1072.671 352.7057 L1140.0288 352.7057" clip-path="url(#clipPath2)" stroke="black"/>
      <path fill="black" d="M1148.0288 352.7057 L1136.0288 347.7057 L1139.0288 352.7057 L1136.0288 357.7057 Z" clip-path="url(#clipPath2)" stroke="none"/>
      <path fill="none" d="M217.3682 51.2354 L217.3682 73.2266" clip-path="url(#clipPath2)" stroke="black"/>
      <path fill="black" d="M217.3682 81.2266 L222.3682 69.2266 L217.3682 72.2266 L212.3682 69.2266 Z" clip-path="url(#clipPath2)" stroke="none"/>
      <path fill="none" d="M217.3682 105.2266 L217.3682 414.7057 L1051.671 414.7057" clip-path="url(#clipPath2)"/>
      <path d="M217.3682 97.2266 C219.5774 97.2266 221.3682 99.0174 221.3682 101.2266 C221.3682 103.4357 219.5774 105.2266 217.3682 105.2266 C215.1591 105.2266 213.3682 103.4357 213.3682 101.2266 C213.3682 99.0174 215.1591 97.2266 217.3682 97.2266 Z" clip-path="url(#clipPath2)" stroke="none"/>
      <path d="M1062.671 414.7057 L1050.671 408.7057 L1050.671 420.7057 Z" clip-path="url(#clipPath2)" stroke="none"/>
      <rect x="560.0782" y="402.9049" clip-path="url(#clipPath2)" fill="white" width="150.7578" height="23.6016" stroke="none"/>
      <text x="562.0782" font-size="16px" y="420.9909" clip-path="url(#clipPath2)" font-family="sans-serif" stroke="none" xml:space="preserve">efrbroo:R17_created</text>
      <path fill="none" d="M217.3682 105.2266 L217.3682 283.125 L405.2038 283.125" clip-path="url(#clipPath2)"/>
      <path d="M217.3682 97.2266 C219.5774 97.2266 221.3682 99.0174 221.3682 101.2266 C221.3682 103.4357 219.5774 105.2266 217.3682 105.2266 C215.1591 105.2266 213.3682 103.4357 213.3682 101.2266 C213.3682 99.0174 215.1591 97.2266 217.3682 97.2266 Z" clip-path="url(#clipPath2)" stroke="none"/>
      <path d="M416.2038 283.125 L404.2038 277.125 L404.2038 289.125 Z" clip-path="url(#clipPath2)" stroke="none"/>
      <rect x="236.86" y="271.3242" clip-path="url(#clipPath2)" fill="white" width="150.7578" height="23.6016" stroke="none"/>
      <text x="238.86" font-size="16px" y="289.4102" clip-path="url(#clipPath2)" font-family="sans-serif" stroke="none" xml:space="preserve">efrbroo:R18_created</text>
      <path fill="none" d="M552.5938 261.1392 L552.5938 230.439" clip-path="url(#clipPath2)" stroke="black"/>
      <path fill="black" d="M552.5938 222.439 L547.5938 234.439 L552.5938 231.439 L557.5938 234.439 Z" clip-path="url(#clipPath2)" stroke="none"/>
      <path fill="none" d="M552.5938 198.439 L552.5938 172.0352 L834.5 172.0352" clip-path="url(#clipPath2)"/>
      <path d="M552.5938 206.439 C550.3846 206.439 548.5938 204.6481 548.5938 202.439 C548.5938 200.2298 550.3846 198.439 552.5938 198.439 C554.8029 198.439 556.5938 200.2298 556.5938 202.439 C556.5938 204.6481 554.8029 206.439 552.5938 206.439 Z" clip-path="url(#clipPath2)" stroke="none"/>
      <path d="M845.5 172.0352 L833.5 166.0352 L833.5 178.0352 Z" clip-path="url(#clipPath2)" stroke="none"/>
      <rect x="625.7812" y="160.2344" clip-path="url(#clipPath2)" fill="white" width="137.4062" height="23.6016" stroke="none"/>
      <text x="627.7812" font-size="16px" y="178.3203" clip-path="url(#clipPath2)" font-family="sans-serif" stroke="none" xml:space="preserve">ecrm:P2_has_type</text>
      <path fill="none" d="M855.5 182.0352 L855.5 223.4732" clip-path="url(#clipPath2)" stroke="black"/>
      <path fill="black" d="M855.5 231.4732 L860.5 219.4732 L855.5 222.4732 L850.5 219.4732 Z" clip-path="url(#clipPath2)" stroke="none"/>
      <path fill="none" d="M552.5938 198.439 L552.5938 125.375 L830.5016 121.2822" clip-path="url(#clipPath2)" stroke="green"/>
    </g>
    <g stroke-linecap="butt" transform="matrix(1,0,0,1,-74,8)" fill-opacity="0" fill="rgb(0,0,0)" text-rendering="geometricPrecision" shape-rendering="geometricPrecision" stroke="rgb(0,0,0)" stroke-opacity="0" stroke-miterlimit="1.45">
      <path d="M552.5938 206.439 C550.3846 206.439 548.5938 204.6481 548.5938 202.439 C548.5938 200.2298 550.3846 198.439 552.5938 198.439 C554.8029 198.439 556.5938 200.2298 556.5938 202.439 C556.5938 204.6481 554.8029 206.439 552.5938 206.439 Z" stroke="none" clip-path="url(#clipPath2)"/>
    </g>
    <g stroke-linecap="butt" transform="matrix(1,0,0,1,-74,8)" fill="green" text-rendering="geometricPrecision" shape-rendering="geometricPrecision" stroke="green" stroke-miterlimit="1.45">
      <path fill="none" d="M552.5938 206.439 C550.3846 206.439 548.5938 204.6481 548.5938 202.439 C548.5938 200.2298 550.3846 198.439 552.5938 198.439 C554.8029 198.439 556.5938 200.2298 556.5938 202.439 C556.5938 204.6481 554.8029 206.439 552.5938 206.439 Z" clip-path="url(#clipPath2)"/>
      <path fill="white" d="M845.5 121.0613 L829.4134 115.2976 L829.5901 127.2963 Z" clip-path="url(#clipPath2)" stroke="none"/>
      <path fill="none" d="M845.5 121.0613 L829.4134 115.2976 L829.5901 127.2963 Z" clip-path="url(#clipPath2)"/>
      <rect x="592.4219" y="111.4846" clip-path="url(#clipPath2)" fill="white" width="204.125" height="23.6016" stroke="none"/>
      <text x="594.4219" font-size="16px" y="129.5705" clip-path="url(#clipPath2)" font-family="sans-serif" stroke="none" xml:space="preserve">ecrm:P3_has_note//dct:note</text>
      <path fill="none" d="M552.5938 198.439 L552.5938 79.2266 L830.5 79.2266" clip-path="url(#clipPath2)"/>
    </g>
    <g stroke-linecap="butt" transform="matrix(1,0,0,1,-74,8)" fill-opacity="0" fill="rgb(0,0,0)" text-rendering="geometricPrecision" shape-rendering="geometricPrecision" stroke="rgb(0,0,0)" stroke-opacity="0" stroke-miterlimit="1.45">
      <path d="M552.5938 206.439 C550.3846 206.439 548.5938 204.6481 548.5938 202.439 C548.5938 200.2298 550.3846 198.439 552.5938 198.439 C554.8029 198.439 556.5938 200.2298 556.5938 202.439 C556.5938 204.6481 554.8029 206.439 552.5938 206.439 Z" stroke="none" clip-path="url(#clipPath2)"/>
    </g>
    <g stroke-linecap="butt" transform="matrix(1,0,0,1,-74,8)" fill="green" text-rendering="geometricPrecision" shape-rendering="geometricPrecision" stroke="green" stroke-miterlimit="1.45">
      <path fill="none" d="M552.5938 206.439 C550.3846 206.439 548.5938 204.6481 548.5938 202.439 C548.5938 200.2298 550.3846 198.439 552.5938 198.439 C554.8029 198.439 556.5938 200.2298 556.5938 202.439 C556.5938 204.6481 554.8029 206.439 552.5938 206.439 Z" clip-path="url(#clipPath2)"/>
      <path fill="white" d="M845.5 79.2266 L829.5 73.2266 L829.5 85.2266 Z" clip-path="url(#clipPath2)" stroke="none"/>
      <path fill="none" d="M845.5 79.2266 L829.5 73.2266 L829.5 85.2266 Z" clip-path="url(#clipPath2)"/>
      <rect x="627.125" y="67.4258" clip-path="url(#clipPath2)" fill="white" width="134.7188" height="23.6016" stroke="none"/>
      <text x="629.125" font-size="16px" y="85.5117" clip-path="url(#clipPath2)" font-family="sans-serif" stroke="none" xml:space="preserve">dct:title // ecrm???</text>
      <path fill="none" d="M552.5938 198.439 L552.5938 29.2266 L830.5 29.2266" clip-path="url(#clipPath2)"/>
    </g>
    <g stroke-linecap="butt" transform="matrix(1,0,0,1,-74,8)" fill-opacity="0" fill="rgb(0,0,0)" text-rendering="geometricPrecision" shape-rendering="geometricPrecision" stroke="rgb(0,0,0)" stroke-opacity="0" stroke-miterlimit="1.45">
      <path d="M552.5938 206.439 C550.3846 206.439 548.5938 204.6481 548.5938 202.439 C548.5938 200.2298 550.3846 198.439 552.5938 198.439 C554.8029 198.439 556.5938 200.2298 556.5938 202.439 C556.5938 204.6481 554.8029 206.439 552.5938 206.439 Z" stroke="none" clip-path="url(#clipPath2)"/>
    </g>
    <g stroke-linecap="butt" transform="matrix(1,0,0,1,-74,8)" fill="green" text-rendering="geometricPrecision" shape-rendering="geometricPrecision" stroke="green" stroke-miterlimit="1.45">
      <path fill="none" d="M552.5938 206.439 C550.3846 206.439 548.5938 204.6481 548.5938 202.439 C548.5938 200.2298 550.3846 198.439 552.5938 198.439 C554.8029 198.439 556.5938 200.2298 556.5938 202.439 C556.5938 204.6481 554.8029 206.439 552.5938 206.439 Z" clip-path="url(#clipPath2)"/>
      <path fill="white" d="M845.5 29.2266 L829.5 23.2266 L829.5 35.2266 Z" clip-path="url(#clipPath2)" stroke="none"/>
      <path fill="none" d="M845.5 29.2266 L829.5 23.2266 L829.5 35.2266 Z" clip-path="url(#clipPath2)"/>
      <rect x="655.5742" y="17.4258" clip-path="url(#clipPath2)" fill="white" width="77.8203" height="23.6016" stroke="none"/>
      <text x="657.5742" font-size="16px" y="35.5117" clip-path="url(#clipPath2)" font-family="sans-serif" stroke="none" xml:space="preserve">ns8:image</text>
      <path fill="none" d="M1072.671 400.7057 L1072.671 221.2852 L1311.2654 221.2852" clip-path="url(#clipPath2)"/>
    </g>
    <g stroke-linecap="butt" transform="matrix(1,0,0,1,-74,8)" fill-opacity="0" fill="rgb(0,0,0)" text-rendering="geometricPrecision" shape-rendering="geometricPrecision" stroke="rgb(0,0,0)" stroke-opacity="0" stroke-miterlimit="1.45">
      <path d="M1072.671 408.7057 C1070.4619 408.7057 1068.671 406.9149 1068.671 404.7057 C1068.671 402.4966 1070.4619 400.7057 1072.671 400.7057 C1074.8801 400.7057 1076.671 402.4966 1076.671 404.7057 C1076.671 406.9149 1074.8801 408.7057 1072.671 408.7057 Z" stroke="none" clip-path="url(#clipPath2)"/>
    </g>
    <g stroke-linecap="butt" transform="matrix(1,0,0,1,-74,8)" fill="green" text-rendering="geometricPrecision" shape-rendering="geometricPrecision" stroke="green" stroke-miterlimit="1.45">
      <path fill="none" d="M1072.671 408.7057 C1070.4619 408.7057 1068.671 406.9149 1068.671 404.7057 C1068.671 402.4966 1070.4619 400.7057 1072.671 400.7057 C1074.8801 400.7057 1076.671 402.4966 1076.671 404.7057 C1076.671 406.9149 1074.8801 408.7057 1072.671 408.7057 Z" clip-path="url(#clipPath2)"/>
      <path fill="white" d="M1326.2654 221.2852 L1310.2654 215.2852 L1310.2654 227.2852 Z" clip-path="url(#clipPath2)" stroke="none"/>
      <path fill="none" d="M1326.2654 221.2852 L1310.2654 215.2852 L1310.2654 227.2852 Z" clip-path="url(#clipPath2)"/>
      <rect x="1154.6635" y="209.4844" clip-path="url(#clipPath2)" fill="white" width="80.4844" height="23.6016" stroke="none"/>
      <text x="1156.6635" font-size="16px" y="227.5703" clip-path="url(#clipPath2)" font-family="sans-serif" stroke="none" xml:space="preserve">dct:subject</text>
      <path fill="none" d="M1072.671 400.7057 L1072.671 264.3672 L1311.2654 264.3672" clip-path="url(#clipPath2)"/>
    </g>
    <g stroke-linecap="butt" transform="matrix(1,0,0,1,-74,8)" fill-opacity="0" fill="rgb(0,0,0)" text-rendering="geometricPrecision" shape-rendering="geometricPrecision" stroke="rgb(0,0,0)" stroke-opacity="0" stroke-miterlimit="1.45">
      <path d="M1072.671 408.7057 C1070.4619 408.7057 1068.671 406.9149 1068.671 404.7057 C1068.671 402.4966 1070.4619 400.7057 1072.671 400.7057 C1074.8801 400.7057 1076.671 402.4966 1076.671 404.7057 C1076.671 406.9149 1074.8801 408.7057 1072.671 408.7057 Z" stroke="none" clip-path="url(#clipPath2)"/>
    </g>
    <g stroke-linecap="butt" transform="matrix(1,0,0,1,-74,8)" fill="green" text-rendering="geometricPrecision" shape-rendering="geometricPrecision" stroke="green" stroke-miterlimit="1.45">
      <path fill="none" d="M1072.671 408.7057 C1070.4619 408.7057 1068.671 406.9149 1068.671 404.7057 C1068.671 402.4966 1070.4619 400.7057 1072.671 400.7057 C1074.8801 400.7057 1076.671 402.4966 1076.671 404.7057 C1076.671 406.9149 1074.8801 408.7057 1072.671 408.7057 Z" clip-path="url(#clipPath2)"/>
      <path fill="white" d="M1326.2654 264.3672 L1310.2654 258.3672 L1310.2654 270.3672 Z" clip-path="url(#clipPath2)" stroke="none"/>
      <path fill="none" d="M1326.2654 264.3672 L1310.2654 258.3672 L1310.2654 270.3672 Z" clip-path="url(#clipPath2)"/>
      <rect x="1154.6635" y="252.5664" clip-path="url(#clipPath2)" fill="white" width="80.4844" height="23.6016" stroke="none"/>
      <text x="1156.6635" font-size="16px" y="270.6523" clip-path="url(#clipPath2)" font-family="sans-serif" stroke="none" xml:space="preserve">dct:subject</text>
      <path fill="none" d="M1072.671 400.7057 L1072.671 306.5781 L1311.2654 306.5781" clip-path="url(#clipPath2)"/>
    </g>
    <g stroke-linecap="butt" transform="matrix(1,0,0,1,-74,8)" fill-opacity="0" fill="rgb(0,0,0)" text-rendering="geometricPrecision" shape-rendering="geometricPrecision" stroke="rgb(0,0,0)" stroke-opacity="0" stroke-miterlimit="1.45">
      <path d="M1072.671 408.7057 C1070.4619 408.7057 1068.671 406.9149 1068.671 404.7057 C1068.671 402.4966 1070.4619 400.7057 1072.671 400.7057 C1074.8801 400.7057 1076.671 402.4966 1076.671 404.7057 C1076.671 406.9149 1074.8801 408.7057 1072.671 408.7057 Z" stroke="none" clip-path="url(#clipPath2)"/>
    </g>
    <g stroke-linecap="butt" transform="matrix(1,0,0,1,-74,8)" fill="green" text-rendering="geometricPrecision" shape-rendering="geometricPrecision" stroke="green" stroke-miterlimit="1.45">
      <path fill="none" d="M1072.671 408.7057 C1070.4619 408.7057 1068.671 406.9149 1068.671 404.7057 C1068.671 402.4966 1070.4619 400.7057 1072.671 400.7057 C1074.8801 400.7057 1076.671 402.4966 1076.671 404.7057 C1076.671 406.9149 1074.8801 408.7057 1072.671 408.7057 Z" clip-path="url(#clipPath2)"/>
      <path fill="white" d="M1326.2654 306.5781 L1310.2654 300.5781 L1310.2654 312.5781 Z" clip-path="url(#clipPath2)" stroke="none"/>
      <path fill="none" d="M1326.2654 306.5781 L1310.2654 300.5781 L1310.2654 312.5781 Z" clip-path="url(#clipPath2)"/>
      <rect x="1141.3236" y="294.7773" clip-path="url(#clipPath2)" fill="white" width="107.1641" height="23.6016" stroke="none"/>
      <text x="1143.3236" font-size="16px" y="312.8633" clip-path="url(#clipPath2)" font-family="sans-serif" stroke="none" xml:space="preserve">dct:description</text>
      <path fill="none" d="M1072.671 400.7057 L1072.671 179.3242 L1295.2654 179.3242" clip-path="url(#clipPath2)" stroke="navy"/>
      <path fill="navy" d="M1072.671 408.7057 C1070.4619 408.7057 1068.671 406.9149 1068.671 404.7057 C1068.671 402.4966 1070.4619 400.7057 1072.671 400.7057 C1074.8801 400.7057 1076.671 402.4966 1076.671 404.7057 C1076.671 406.9149 1074.8801 408.7057 1072.671 408.7057 Z" clip-path="url(#clipPath2)" stroke="none"/>
      <path fill="navy" d="M1306.2654 179.3242 L1294.2654 173.3242 L1294.2654 185.3242 Z" clip-path="url(#clipPath2)" stroke="none"/>
      <rect x="1112.6518" y="167.5234" clip-path="url(#clipPath2)" fill="white" width="144.5078" height="23.6016" stroke="none"/>
    </g>
    <g stroke-linecap="butt" font-size="16px" transform="matrix(1,0,0,1,-74,8)" fill="navy" text-rendering="geometricPrecision" font-family="sans-serif" shape-rendering="geometricPrecision" stroke="navy" stroke-miterlimit="1.45">
      <text x="1114.6517" xml:space="preserve" y="185.6094" clip-path="url(#clipPath2)" stroke="none">ecrm:P67_refers_to</text>
    </g>
    <g text-rendering="geometricPrecision" stroke-miterlimit="1.45" shape-rendering="geometricPrecision" transform="matrix(1,0,0,1,-74,8)" stroke-linecap="butt">
      <path fill="none" d="M1316.2654 169.3242 L1316.2654 140.008" clip-path="url(#clipPath2)"/>
      <path d="M1316.2654 132.008 L1311.2654 144.008 L1316.2654 141.008 L1321.2654 144.008 Z" clip-path="url(#clipPath2)" stroke="none"/>
    </g>
  </g>
</svg>
