<?xml version="1.0" encoding="UTF-8"?><svg xmlns="http://www.w3.org/2000/svg" xmlns:xlink="http://www.w3.org/1999/xlink" fill-opacity="1" color-rendering="auto" color-interpolation="auto" text-rendering="auto" stroke="black" stroke-linecap="square" width="1106" stroke-miterlimit="10" shape-rendering="auto" stroke-opacity="1" fill="black" stroke-dasharray="none" font-weight="normal" stroke-width="1" height="288" font-family="'Dialog'" font-style="normal" stroke-linejoin="miter" font-size="12px" stroke-dashoffset="0" image-rendering="auto">
  <!--Generated by ySVG 2.5-->
  <defs id="genericDefs"/>
  <g>
    <defs id="defs1">
      <clipPath clipPathUnits="userSpaceOnUse" id="clipPath1">
        <path d="M0 0 L1106 0 L1106 288 L0 288 L0 0 Z"/>
      </clipPath>
      <clipPath clipPathUnits="userSpaceOnUse" id="clipPath2">
        <path d="M243 21 L1349 21 L1349 309 L243 309 L243 21 Z"/>
      </clipPath>
    </defs>
    <g fill="white" text-rendering="geometricPrecision" shape-rendering="geometricPrecision" transform="translate(-243,-21)" stroke="white">
      <rect x="243" width="1106" height="288" y="21" clip-path="url(#clipPath2)" stroke="none"/>
    </g>
    <g fill="yellow" text-rendering="geometricPrecision" shape-rendering="geometricPrecision" transform="matrix(1,0,0,1,-243,-21)" stroke="yellow">
      <rect x="483.8156" y="36.6302" clip-path="url(#clipPath2)" width="81.9682" rx="4" ry="4" height="44" stroke="none"/>
    </g>
    <g font-size="16px" stroke-linecap="butt" transform="matrix(1,0,0,1,-243,-21)" text-rendering="geometricPrecision" font-family="sans-serif" shape-rendering="geometricPrecision" stroke-miterlimit="1.45">
      <text x="487.0146" xml:space="preserve" y="64.9154" clip-path="url(#clipPath2)" stroke="none">hucit:Work</text>
      <rect x="483.8156" y="36.6302" clip-path="url(#clipPath2)" fill="none" width="81.9682" rx="4" ry="4" height="44"/>
    </g>
    <g fill="yellow" text-rendering="geometricPrecision" shape-rendering="geometricPrecision" transform="matrix(1,0,0,1,-243,-21)" stroke="yellow">
      <rect x="403.7105" y="249.8177" clip-path="url(#clipPath2)" width="242.1784" rx="4" ry="4" height="44" stroke="none"/>
    </g>
    <g font-size="16px" stroke-linecap="butt" transform="matrix(1,0,0,1,-243,-21)" text-rendering="geometricPrecision" font-family="sans-serif" shape-rendering="geometricPrecision" stroke-miterlimit="1.45">
      <text x="415.4091" xml:space="preserve" y="278.1029" clip-path="url(#clipPath2)" stroke="none">efrbroo:F27_Work_Conception</text>
      <rect x="403.7105" y="249.8177" clip-path="url(#clipPath2)" fill="none" width="242.1784" rx="4" ry="4" height="44"/>
    </g>
    <g fill="yellow" text-rendering="geometricPrecision" shape-rendering="geometricPrecision" transform="matrix(1,0,0,1,-243,-21)" stroke="yellow">
      <rect x="931.4165" y="249.8177" clip-path="url(#clipPath2)" width="173.9682" rx="4" ry="4" height="44" stroke="none"/>
    </g>
    <g font-size="16px" stroke-linecap="butt" transform="matrix(1,0,0,1,-243,-21)" text-rendering="geometricPrecision" font-family="sans-serif" shape-rendering="geometricPrecision" stroke-miterlimit="1.45">
      <text x="941.4904" xml:space="preserve" y="278.1029" clip-path="url(#clipPath2)" stroke="none">ecrm:E1_CRM_Entity</text>
      <rect x="931.4165" y="249.8177" clip-path="url(#clipPath2)" fill="none" width="173.9682" rx="4" ry="4" height="44"/>
    </g>
    <g fill="rgb(255,153,204)" text-rendering="geometricPrecision" shape-rendering="geometricPrecision" transform="matrix(1,0,0,1,-243,-21)" stroke="rgb(255,153,204)">
      <circle r="10" clip-path="url(#clipPath2)" cx="524.7997" cy="120.6302" stroke="none"/>
    </g>
    <g font-size="16px" stroke-linecap="butt" transform="matrix(1,0,0,1,-243,-21)" text-rendering="geometricPrecision" font-family="sans-serif" shape-rendering="geometricPrecision" stroke-miterlimit="1.45">
      <text x="260.745" xml:space="preserve" y="126.9154" clip-path="url(#clipPath2)" stroke="none">myth-work:francesco-petrarca-rime</text>
      <circle fill="none" stroke-width="3" r="10" clip-path="url(#clipPath2)" cx="524.7997" cy="120.6302"/>
    </g>
    <g fill="rgb(255,153,204)" text-rendering="geometricPrecision" shape-rendering="geometricPrecision" transform="matrix(1,0,0,1,-243,-21)" stroke="rgb(255,153,204)">
      <circle r="10" clip-path="url(#clipPath2)" cx="524.7997" cy="209.8177" stroke="none"/>
    </g>
    <g font-size="16px" stroke-linecap="butt" transform="matrix(1,0,0,1,-243,-21)" text-rendering="geometricPrecision" font-family="sans-serif" shape-rendering="geometricPrecision" stroke-miterlimit="1.45">
      <text x="540.7997" xml:space="preserve" y="216.1029" clip-path="url(#clipPath2)" stroke="none">myth-work:http:francesco-petrarca-rime-conception</text>
      <circle fill="none" stroke-width="3" r="10" clip-path="url(#clipPath2)" cx="524.7997" cy="209.8177"/>
    </g>
    <g fill="rgb(255,153,204)" text-rendering="geometricPrecision" shape-rendering="geometricPrecision" transform="matrix(1,0,0,1,-243,-21)" stroke="rgb(255,153,204)">
      <circle r="10" clip-path="url(#clipPath2)" cx="1018.4006" cy="209.8177" stroke="none"/>
    </g>
    <g font-size="16px" stroke-linecap="butt" transform="matrix(1,0,0,1,-243,-21)" text-rendering="geometricPrecision" font-family="sans-serif" shape-rendering="geometricPrecision" stroke-miterlimit="1.45">
      <text x="1034.4006" xml:space="preserve" y="216.1029" clip-path="url(#clipPath2)" stroke="none">myth-categ:arianna-principessa-di-cnosso</text>
      <circle fill="none" stroke-width="3" r="10" clip-path="url(#clipPath2)" cx="1018.4006" cy="209.8177"/>
      <path fill="none" d="M524.7997 80.639 L524.7997 102.6302" clip-path="url(#clipPath2)"/>
      <path d="M524.7997 110.6302 L529.7997 98.6302 L524.7997 101.6302 L519.7997 98.6302 Z" stroke="none" clip-path="url(#clipPath2)"/>
      <path fill="none" d="M524.7997 249.8089 L524.7997 227.8177" clip-path="url(#clipPath2)"/>
      <path d="M524.7997 219.8177 L519.7997 231.8177 L524.7997 228.8177 L529.7997 231.8177 Z" stroke="none" clip-path="url(#clipPath2)"/>
    </g>
    <g stroke-linecap="butt" transform="matrix(1,0,0,1,-243,-21)" fill="navy" text-rendering="geometricPrecision" shape-rendering="geometricPrecision" stroke="navy" stroke-miterlimit="1.45">
      <path fill="none" d="M524.7997 195.8177 L524.7997 141.6302" clip-path="url(#clipPath2)"/>
      <path d="M524.7997 203.8177 C522.5905 203.8177 520.7997 202.0268 520.7997 199.8177 C520.7997 197.6086 522.5905 195.8177 524.7997 195.8177 C527.0089 195.8177 528.7997 197.6086 528.7997 199.8177 C528.7997 202.0268 527.0089 203.8177 524.7997 203.8177 Z" clip-path="url(#clipPath2)" stroke="none"/>
      <path d="M524.7997 130.6302 L518.7997 142.6302 L530.7997 142.6302 Z" clip-path="url(#clipPath2)" stroke="none"/>
      <rect x="448.5302" y="153.4232" clip-path="url(#clipPath2)" fill="white" width="152.5391" height="23.6016" stroke="none"/>
      <text x="450.5302" font-size="16px" y="171.5091" clip-path="url(#clipPath2)" font-family="sans-serif" stroke="none" xml:space="preserve">efrbroo:R16_initiated</text>
      <path fill="none" d="M538.7997 120.6302 L1018.4006 120.6302 L1018.4006 188.8177" clip-path="url(#clipPath2)"/>
      <path d="M530.7997 120.6302 C530.7997 118.4211 532.5905 116.6302 534.7997 116.6302 C537.0089 116.6302 538.7997 118.4211 538.7997 120.6302 C538.7997 122.8393 537.0089 124.6302 534.7997 124.6302 C532.5905 124.6302 530.7997 122.8393 530.7997 120.6302 Z" clip-path="url(#clipPath2)" stroke="none"/>
      <path d="M1018.4006 199.8177 L1024.4006 187.8177 L1012.4006 187.8177 Z" clip-path="url(#clipPath2)" stroke="none"/>
      <rect x="708.9087" y="108.8294" clip-path="url(#clipPath2)" fill="white" width="144.5078" height="23.6016" stroke="none"/>
      <text x="710.9088" font-size="16px" y="126.9154" clip-path="url(#clipPath2)" font-family="sans-serif" stroke="none" xml:space="preserve">ecrm:P67_refers_to</text>
      <path fill="none" d="M1018.4006 219.8177 L1018.4006 241.804" clip-path="url(#clipPath2)" stroke="black"/>
      <path fill="black" d="M1018.4006 249.804 L1023.4006 237.804 L1018.4006 240.804 L1013.4006 237.804 Z" clip-path="url(#clipPath2)" stroke="none"/>
    </g>
  </g>
</svg>
