<?xml version="1.0" encoding="UTF-8"?><svg xmlns="http://www.w3.org/2000/svg" xmlns:xlink="http://www.w3.org/1999/xlink" fill-opacity="1" color-rendering="auto" color-interpolation="auto" text-rendering="auto" stroke="black" stroke-linecap="square" width="1418" stroke-miterlimit="10" shape-rendering="auto" stroke-opacity="1" fill="black" stroke-dasharray="none" font-weight="normal" stroke-width="1" height="516" font-family="'Dialog'" font-style="normal" stroke-linejoin="miter" font-size="12px" stroke-dashoffset="0" image-rendering="auto">
  <!--Generated by ySVG 2.5-->
  <defs id="genericDefs"/>
  <g>
    <defs id="defs1">
      <clipPath clipPathUnits="userSpaceOnUse" id="clipPath1">
        <path d="M0 0 L1418 0 L1418 516 L0 516 L0 0 Z"/>
      </clipPath>
      <clipPath clipPathUnits="userSpaceOnUse" id="clipPath2">
        <path d="M-165 6 L1253 6 L1253 522 L-165 522 L-165 6 Z"/>
      </clipPath>
    </defs>
    <g fill="white" text-rendering="geometricPrecision" shape-rendering="geometricPrecision" transform="translate(165,-6)" stroke="white">
      <rect x="-165" width="1418" height="516" y="6" clip-path="url(#clipPath2)" stroke="none"/>
    </g>
    <g fill="yellow" text-rendering="geometricPrecision" shape-rendering="geometricPrecision" transform="matrix(1,0,0,1,165,-6)" stroke="yellow">
      <rect x="560.3643" y="359.4662" clip-path="url(#clipPath2)" width="142.0005" rx="4" ry="4" height="44" stroke="none"/>
    </g>
    <g font-size="16px" stroke-linecap="butt" transform="matrix(1,0,0,1,165,-6)" text-rendering="geometricPrecision" font-family="sans-serif" shape-rendering="geometricPrecision" stroke-miterlimit="1.45">
      <text x="574.0052" xml:space="preserve" y="387.7513" clip-path="url(#clipPath2)" stroke="none">ecrm:E4_Period</text>
      <rect x="560.3643" y="359.4662" clip-path="url(#clipPath2)" fill="none" width="142.0005" rx="4" ry="4" height="44"/>
    </g>
    <g fill="yellow" text-rendering="geometricPrecision" shape-rendering="geometricPrecision" transform="matrix(1,0,0,1,165,-6)" stroke="yellow">
      <rect x="645.3783" y="160.8197" clip-path="url(#clipPath2)" width="255.3081" rx="4" ry="4" height="44" stroke="none"/>
    </g>
    <g font-size="16px" stroke-linecap="butt" transform="matrix(1,0,0,1,165,-6)" text-rendering="geometricPrecision" font-family="sans-serif" shape-rendering="geometricPrecision" stroke-miterlimit="1.45">
      <text x="652.9659" xml:space="preserve" y="189.1048" clip-path="url(#clipPath2)" stroke="none">efrbroo:F28_Expression_Creation</text>
      <rect x="645.3783" y="160.8197" clip-path="url(#clipPath2)" fill="none" width="255.3081" rx="4" ry="4" height="44"/>
      <text x="358.7983" xml:space="preserve" y="39.9357" clip-path="url(#clipPath2)" stroke="none">"IV secolo a.C."^^xsd:string</text>
      <text x="419.0562" xml:space="preserve" y="102.1779" clip-path="url(#clipPath2)" stroke="none"> "-0400-01-01"^^xsd:date</text>
      <text x="421.2788" xml:space="preserve" y="71.0568" clip-path="url(#clipPath2)" stroke="none">"-0301-12-31"^^xsd:date</text>
    </g>
    <g fill="yellow" text-rendering="geometricPrecision" shape-rendering="geometricPrecision" transform="matrix(1,0,0,1,165,-6)" stroke="yellow">
      <rect x="-149.3694" y="310.4749" clip-path="url(#clipPath2)" width="181.88" rx="4" ry="4" height="44" stroke="none"/>
    </g>
    <g font-size="16px" stroke-linecap="butt" transform="matrix(1,0,0,1,165,-6)" text-rendering="geometricPrecision" font-family="sans-serif" shape-rendering="geometricPrecision" stroke-miterlimit="1.45">
      <text x="-136.238" xml:space="preserve" y="338.76" clip-path="url(#clipPath2)" stroke="none">ecrm:E52_Time-Span</text>
      <rect x="-149.3694" y="310.4749" clip-path="url(#clipPath2)" fill="none" width="181.88" rx="4" ry="4" height="44"/>
      <text x="312.2517" xml:space="preserve" y="419.0717" clip-path="url(#clipPath2)" stroke="none">"340-320 a.C."^^xsd:string</text>
      <text x="368.4991" xml:space="preserve" y="481.3138" clip-path="url(#clipPath2)" stroke="none"> "-0340-01-01"^^xsd:date</text>
      <text x="370.7218" xml:space="preserve" y="450.1927" clip-path="url(#clipPath2)" stroke="none">"-0320-12-31"^^xsd:date</text>
      <text x="920.025" xml:space="preserve" y="470.7932" clip-path="url(#clipPath2)" stroke="none">"Arte greca - Età classica"^^xsd:string</text>
      <text x="918.1639" xml:space="preserve" y="439.6721" clip-path="url(#clipPath2)" stroke="none">"periodo"^^xsd:string</text>
    </g>
    <g fill="rgb(255,153,204)" text-rendering="geometricPrecision" shape-rendering="geometricPrecision" transform="matrix(1,0,0,1,165,-6)" stroke="rgb(255,153,204)">
      <circle r="10" clip-path="url(#clipPath2)" cx="85.4173" cy="332.4749" stroke="none"/>
    </g>
    <g font-size="16px" stroke-linecap="butt" transform="matrix(1,0,0,1,165,-6)" text-rendering="geometricPrecision" font-family="sans-serif" shape-rendering="geometricPrecision" stroke-miterlimit="1.45">
      <text x="101.4173" xml:space="preserve" y="338.76" clip-path="url(#clipPath2)" stroke="none">myth-when:340-320a-c</text>
      <circle fill="none" stroke-width="3" r="10" clip-path="url(#clipPath2)" cx="85.4173" cy="332.4749"/>
    </g>
    <g fill="rgb(255,153,204)" text-rendering="geometricPrecision" shape-rendering="geometricPrecision" transform="matrix(1,0,0,1,165,-6)" stroke="rgb(255,153,204)">
      <circle r="10" clip-path="url(#clipPath2)" cx="314.1306" cy="383.4662" stroke="none"/>
    </g>
    <g font-size="16px" stroke-linecap="butt" transform="matrix(1,0,0,1,165,-6)" text-rendering="geometricPrecision" font-family="sans-serif" shape-rendering="geometricPrecision" stroke-miterlimit="1.45">
      <text x="330.1306" xml:space="preserve" y="389.7513" clip-path="url(#clipPath2)" stroke="none">myth-when:data</text>
      <circle fill="none" stroke-width="3" r="10" clip-path="url(#clipPath2)" cx="314.1306" cy="383.4662"/>
    </g>
    <g fill="rgb(255,153,204)" text-rendering="geometricPrecision" shape-rendering="geometricPrecision" transform="matrix(1,0,0,1,165,-6)" stroke="rgb(255,153,204)">
      <circle r="10" clip-path="url(#clipPath2)" cx="85.4173" cy="201.4805" stroke="none"/>
    </g>
    <g font-size="16px" stroke-linecap="butt" transform="matrix(1,0,0,1,165,-6)" text-rendering="geometricPrecision" font-family="sans-serif" shape-rendering="geometricPrecision" stroke-miterlimit="1.45">
      <text x="101.4173" xml:space="preserve" y="207.7657" clip-path="url(#clipPath2)" stroke="none">myth-when:iv-secolo-a-c</text>
      <circle fill="none" stroke-width="3" r="10" clip-path="url(#clipPath2)" cx="85.4173" cy="201.4805"/>
    </g>
    <g fill="yellow" text-rendering="geometricPrecision" shape-rendering="geometricPrecision" transform="matrix(1,0,0,1,165,-6)" stroke="yellow">
      <rect x="-149.3694" y="179.4805" clip-path="url(#clipPath2)" width="181.88" rx="4" ry="4" height="44" stroke="none"/>
    </g>
    <g font-size="16px" stroke-linecap="butt" transform="matrix(1,0,0,1,165,-6)" text-rendering="geometricPrecision" font-family="sans-serif" shape-rendering="geometricPrecision" stroke-miterlimit="1.45">
      <text x="-136.238" xml:space="preserve" y="207.7657" clip-path="url(#clipPath2)" stroke="none">ecrm:E52_Time-Span</text>
      <rect x="-149.3694" y="179.4805" clip-path="url(#clipPath2)" fill="none" width="181.88" rx="4" ry="4" height="44"/>
    </g>
    <g fill="rgb(255,153,204)" text-rendering="geometricPrecision" shape-rendering="geometricPrecision" transform="matrix(1,0,0,1,165,-6)" stroke="rgb(255,153,204)">
      <circle r="10" clip-path="url(#clipPath2)" cx="344.2241" cy="163.3343" stroke="none"/>
    </g>
    <g font-size="16px" stroke-linecap="butt" transform="matrix(1,0,0,1,165,-6)" text-rendering="geometricPrecision" font-family="sans-serif" shape-rendering="geometricPrecision" stroke-miterlimit="1.45">
      <text x="360.2241" xml:space="preserve" y="169.6194" clip-path="url(#clipPath2)" stroke="none">myth-where:secolo</text>
      <circle fill="none" stroke-width="3" r="10" clip-path="url(#clipPath2)" cx="344.2241" cy="163.3343"/>
    </g>
    <g fill="rgb(255,153,204)" text-rendering="geometricPrecision" shape-rendering="geometricPrecision" transform="matrix(1,0,0,1,165,-6)" stroke="rgb(255,153,204)">
      <circle r="10" clip-path="url(#clipPath2)" cx="344.2241" cy="126.5724" stroke="none"/>
    </g>
    <g font-size="16px" stroke-linecap="butt" transform="matrix(1,0,0,1,165,-6)" text-rendering="geometricPrecision" font-family="sans-serif" shape-rendering="geometricPrecision" stroke-miterlimit="1.45">
      <text x="360.2241" xml:space="preserve" y="132.8576" clip-path="url(#clipPath2)" stroke="none">&lt;http://www.wikidata.org/entity/Q25335&gt;</text>
      <circle fill="none" stroke-width="3" r="10" clip-path="url(#clipPath2)" cx="344.2241" cy="126.5724"/>
    </g>
    <g fill="rgb(255,153,204)" text-rendering="geometricPrecision" shape-rendering="geometricPrecision" transform="matrix(1,0,0,1,165,-6)" stroke="rgb(255,153,204)">
      <circle r="10" clip-path="url(#clipPath2)" cx="773.0324" cy="263.4366" stroke="none"/>
    </g>
    <g font-size="16px" stroke-linecap="butt" transform="matrix(1,0,0,1,165,-6)" text-rendering="geometricPrecision" font-family="sans-serif" shape-rendering="geometricPrecision" stroke-miterlimit="1.45">
      <text x="789.0323" xml:space="preserve" y="269.7218" clip-path="url(#clipPath2)" stroke="none">myth-item:81-creation</text>
      <circle fill="none" stroke-width="3" r="10" clip-path="url(#clipPath2)" cx="773.0324" cy="263.4366"/>
    </g>
    <g fill="rgb(255,153,204)" text-rendering="geometricPrecision" shape-rendering="geometricPrecision" transform="matrix(1,0,0,1,165,-6)" stroke="rgb(255,153,204)">
      <circle r="10" clip-path="url(#clipPath2)" cx="773.0324" cy="383.4662" stroke="none"/>
    </g>
    <g font-size="16px" stroke-linecap="butt" transform="matrix(1,0,0,1,165,-6)" text-rendering="geometricPrecision" font-family="sans-serif" shape-rendering="geometricPrecision" stroke-miterlimit="1.45">
      <text x="789.0323" xml:space="preserve" y="389.7513" clip-path="url(#clipPath2)" stroke="none">myth-when:arte-greca-eta-classica</text>
      <circle fill="none" stroke-width="3" r="10" clip-path="url(#clipPath2)" cx="773.0324" cy="383.4662"/>
    </g>
    <g fill="rgb(255,153,204)" text-rendering="geometricPrecision" shape-rendering="geometricPrecision" transform="matrix(1,0,0,1,165,-6)" stroke="rgb(255,153,204)">
      <circle r="10" clip-path="url(#clipPath2)" cx="905.6305" cy="495.1877" stroke="none"/>
    </g>
    <g font-size="16px" stroke-linecap="butt" transform="matrix(1,0,0,1,165,-6)" text-rendering="geometricPrecision" font-family="sans-serif" shape-rendering="geometricPrecision" stroke-miterlimit="1.45">
      <text x="921.6305" xml:space="preserve" y="501.4729" clip-path="url(#clipPath2)" stroke="none">&lt;http://www.wikidata.org/entity/Q16064885&gt;</text>
      <circle fill="none" stroke-width="3" r="10" clip-path="url(#clipPath2)" cx="905.6305" cy="495.1877"/>
    </g>
    <g stroke-linecap="butt" transform="matrix(1,0,0,1,165,-6)" fill="green" text-rendering="geometricPrecision" shape-rendering="geometricPrecision" stroke="green" stroke-miterlimit="1.45">
      <path fill="none" d="M85.4173 346.4749 L85.4173 475.7084 L340.9406 475.7084" clip-path="url(#clipPath2)"/>
    </g>
    <g stroke-linecap="butt" transform="matrix(1,0,0,1,165,-6)" fill-opacity="0" fill="rgb(0,0,0)" text-rendering="geometricPrecision" shape-rendering="geometricPrecision" stroke="rgb(0,0,0)" stroke-opacity="0" stroke-miterlimit="1.45">
      <path d="M85.4173 338.4749 C87.6264 338.4749 89.4173 340.2657 89.4173 342.4749 C89.4173 344.684 87.6264 346.4749 85.4173 346.4749 C83.2082 346.4749 81.4173 344.684 81.4173 342.4749 C81.4173 340.2657 83.2082 338.4749 85.4173 338.4749 Z" stroke="none" clip-path="url(#clipPath2)"/>
    </g>
    <g stroke-linecap="butt" transform="matrix(1,0,0,1,165,-6)" fill="green" text-rendering="geometricPrecision" shape-rendering="geometricPrecision" stroke="green" stroke-miterlimit="1.45">
      <path fill="none" d="M85.4173 338.4749 C87.6264 338.4749 89.4173 340.2657 89.4173 342.4749 C89.4173 344.684 87.6264 346.4749 85.4173 346.4749 C83.2082 346.4749 81.4173 344.684 81.4173 342.4749 C81.4173 340.2657 83.2082 338.4749 85.4173 338.4749 Z" clip-path="url(#clipPath2)"/>
      <path fill="white" d="M355.9406 475.7084 L339.9406 469.7084 L339.9406 481.7084 Z" clip-path="url(#clipPath2)" stroke="none"/>
      <path fill="none" d="M355.9406 475.7084 L339.9406 469.7084 L339.9406 481.7084 Z" clip-path="url(#clipPath2)"/>
      <rect x="105.1438" y="463.9076" clip-path="url(#clipPath2)" fill="white" width="221.9453" height="23.6016" stroke="none"/>
      <text x="107.1438" font-size="16px" y="481.9935" clip-path="url(#clipPath2)" font-family="sans-serif" stroke="none" xml:space="preserve">crm:P82a_begin_of_the_begin</text>
      <path fill="none" d="M85.4173 346.4749 L85.4173 445.7202 L340.9406 444.9427" clip-path="url(#clipPath2)"/>
    </g>
    <g stroke-linecap="butt" transform="matrix(1,0,0,1,165,-6)" fill-opacity="0" fill="rgb(0,0,0)" text-rendering="geometricPrecision" shape-rendering="geometricPrecision" stroke="rgb(0,0,0)" stroke-opacity="0" stroke-miterlimit="1.45">
      <path d="M85.4173 338.4749 C87.6264 338.4749 89.4173 340.2657 89.4173 342.4749 C89.4173 344.684 87.6264 346.4749 85.4173 346.4749 C83.2082 346.4749 81.4173 344.684 81.4173 342.4749 C81.4173 340.2657 83.2082 338.4749 85.4173 338.4749 Z" stroke="none" clip-path="url(#clipPath2)"/>
    </g>
    <g stroke-linecap="butt" transform="matrix(1,0,0,1,165,-6)" fill="green" text-rendering="geometricPrecision" shape-rendering="geometricPrecision" stroke="green" stroke-miterlimit="1.45">
      <path fill="none" d="M85.4173 338.4749 C87.6264 338.4749 89.4173 340.2657 89.4173 342.4749 C89.4173 344.684 87.6264 346.4749 85.4173 346.4749 C83.2082 346.4749 81.4173 344.684 81.4173 342.4749 C81.4173 340.2657 83.2082 338.4749 85.4173 338.4749 Z" clip-path="url(#clipPath2)"/>
      <path fill="white" d="M355.9406 444.897 L339.9224 438.9458 L339.9589 450.9457 Z" clip-path="url(#clipPath2)" stroke="none"/>
      <path fill="none" d="M355.9406 444.897 L339.9224 438.9458 L339.9589 450.9457 Z" clip-path="url(#clipPath2)"/>
      <rect x="117.5969" y="433.5217" clip-path="url(#clipPath2)" fill="white" width="197.0391" height="23.6016" stroke="none"/>
      <text x="119.5969" font-size="16px" y="451.6077" clip-path="url(#clipPath2)" font-family="sans-serif" stroke="none" xml:space="preserve">crm:P82b_end_of_the_end</text>
      <path fill="none" d="M85.4173 346.4749 L85.4173 413.4662 L289.1306 413.4662" clip-path="url(#clipPath2)"/>
    </g>
    <g stroke-linecap="butt" transform="matrix(1,0,0,1,165,-6)" fill-opacity="0" fill="rgb(0,0,0)" text-rendering="geometricPrecision" shape-rendering="geometricPrecision" stroke="rgb(0,0,0)" stroke-opacity="0" stroke-miterlimit="1.45">
      <path d="M85.4173 338.4749 C87.6264 338.4749 89.4173 340.2657 89.4173 342.4749 C89.4173 344.684 87.6264 346.4749 85.4173 346.4749 C83.2082 346.4749 81.4173 344.684 81.4173 342.4749 C81.4173 340.2657 83.2082 338.4749 85.4173 338.4749 Z" stroke="none" clip-path="url(#clipPath2)"/>
    </g>
    <g stroke-linecap="butt" transform="matrix(1,0,0,1,165,-6)" fill="green" text-rendering="geometricPrecision" shape-rendering="geometricPrecision" stroke="green" stroke-miterlimit="1.45">
      <path fill="none" d="M85.4173 338.4749 C87.6264 338.4749 89.4173 340.2657 89.4173 342.4749 C89.4173 344.684 87.6264 346.4749 85.4173 346.4749 C83.2082 346.4749 81.4173 344.684 81.4173 342.4749 C81.4173 340.2657 83.2082 338.4749 85.4173 338.4749 Z" clip-path="url(#clipPath2)"/>
      <path fill="white" d="M304.1306 413.4662 L288.1306 407.4662 L288.1306 419.4662 Z" clip-path="url(#clipPath2)" stroke="none"/>
      <path fill="none" d="M304.1306 413.4662 L288.1306 407.4662 L288.1306 419.4662 Z" clip-path="url(#clipPath2)"/>
      <rect x="155.7505" y="401.6654" clip-path="url(#clipPath2)" fill="white" width="68.9219" height="23.6016" stroke="none"/>
      <text x="157.7505" font-size="16px" y="419.7513" clip-path="url(#clipPath2)" font-family="sans-serif" stroke="none" xml:space="preserve">rdfs:label</text>
      <path fill="none" d="M75.4173 332.4749 L40.5118 332.4749" clip-path="url(#clipPath2)" stroke="black"/>
      <path fill="black" d="M32.5118 332.4749 L44.5118 337.4749 L41.5118 332.4749 L44.5118 327.4749 Z" clip-path="url(#clipPath2)" stroke="none"/>
      <path fill="none" d="M85.4173 346.4749 L85.4173 379.5439 L293.1337 383.1061" clip-path="url(#clipPath2)" stroke="navy"/>
      <path fill="navy" d="M85.4173 338.4749 C87.6264 338.4749 89.4173 340.2657 89.4173 342.4749 C89.4173 344.684 87.6264 346.4749 85.4173 346.4749 C83.2082 346.4749 81.4173 344.684 81.4173 342.4749 C81.4173 340.2657 83.2082 338.4749 85.4173 338.4749 Z" clip-path="url(#clipPath2)" stroke="none"/>
      <path fill="navy" d="M304.1321 383.2947 L292.2368 377.0898 L292.031 389.0881 Z" clip-path="url(#clipPath2)" stroke="none"/>
      <rect x="121.5083" y="369.5403" clip-path="url(#clipPath2)" fill="white" width="137.4062" height="23.6016" stroke="none"/>
    </g>
    <g stroke-linecap="butt" font-size="16px" transform="matrix(1,0,0,1,165,-6)" fill="navy" text-rendering="geometricPrecision" font-family="sans-serif" shape-rendering="geometricPrecision" stroke="navy" stroke-miterlimit="1.45">
      <text x="123.5083" xml:space="preserve" y="387.6262" clip-path="url(#clipPath2)" stroke="none">ecrm:P2_has_type</text>
    </g>
    <g stroke-linecap="butt" transform="matrix(1,0,0,1,165,-6)" fill="green" text-rendering="geometricPrecision" shape-rendering="geometricPrecision" stroke="green" stroke-miterlimit="1.45">
      <path fill="none" d="M85.4173 187.4805 L85.4173 96.5724 L391.4976 96.5724" clip-path="url(#clipPath2)"/>
    </g>
    <g stroke-linecap="butt" transform="matrix(1,0,0,1,165,-6)" fill-opacity="0" fill="rgb(0,0,0)" text-rendering="geometricPrecision" shape-rendering="geometricPrecision" stroke="rgb(0,0,0)" stroke-opacity="0" stroke-miterlimit="1.45">
      <path d="M85.4173 195.4805 C83.2082 195.4805 81.4173 193.6897 81.4173 191.4805 C81.4173 189.2714 83.2082 187.4805 85.4173 187.4805 C87.6264 187.4805 89.4173 189.2714 89.4173 191.4805 C89.4173 193.6897 87.6264 195.4805 85.4173 195.4805 Z" stroke="none" clip-path="url(#clipPath2)"/>
    </g>
    <g stroke-linecap="butt" transform="matrix(1,0,0,1,165,-6)" fill="green" text-rendering="geometricPrecision" shape-rendering="geometricPrecision" stroke="green" stroke-miterlimit="1.45">
      <path fill="none" d="M85.4173 195.4805 C83.2082 195.4805 81.4173 193.6897 81.4173 191.4805 C81.4173 189.2714 83.2082 187.4805 85.4173 187.4805 C87.6264 187.4805 89.4173 189.2714 89.4173 191.4805 C89.4173 193.6897 87.6264 195.4805 85.4173 195.4805 Z" clip-path="url(#clipPath2)"/>
      <path fill="white" d="M406.4976 96.5724 L390.4976 90.5724 L390.4976 102.5724 Z" clip-path="url(#clipPath2)" stroke="none"/>
      <path fill="none" d="M406.4976 96.5724 L390.4976 90.5724 L390.4976 102.5724 Z" clip-path="url(#clipPath2)"/>
      <rect x="130.4223" y="84.7717" clip-path="url(#clipPath2)" fill="white" width="221.9453" height="23.6016" stroke="none"/>
      <text x="132.4223" font-size="16px" y="102.8576" clip-path="url(#clipPath2)" font-family="sans-serif" stroke="none" xml:space="preserve">crm:P82a_begin_of_the_begin</text>
      <path fill="none" d="M85.4173 187.4805 L85.4173 65.4513 L391.4976 65.4513" clip-path="url(#clipPath2)"/>
    </g>
    <g stroke-linecap="butt" transform="matrix(1,0,0,1,165,-6)" fill-opacity="0" fill="rgb(0,0,0)" text-rendering="geometricPrecision" shape-rendering="geometricPrecision" stroke="rgb(0,0,0)" stroke-opacity="0" stroke-miterlimit="1.45">
      <path d="M85.4173 195.4805 C83.2082 195.4805 81.4173 193.6897 81.4173 191.4805 C81.4173 189.2714 83.2082 187.4805 85.4173 187.4805 C87.6264 187.4805 89.4173 189.2714 89.4173 191.4805 C89.4173 193.6897 87.6264 195.4805 85.4173 195.4805 Z" stroke="none" clip-path="url(#clipPath2)"/>
    </g>
    <g stroke-linecap="butt" transform="matrix(1,0,0,1,165,-6)" fill="green" text-rendering="geometricPrecision" shape-rendering="geometricPrecision" stroke="green" stroke-miterlimit="1.45">
      <path fill="none" d="M85.4173 195.4805 C83.2082 195.4805 81.4173 193.6897 81.4173 191.4805 C81.4173 189.2714 83.2082 187.4805 85.4173 187.4805 C87.6264 187.4805 89.4173 189.2714 89.4173 191.4805 C89.4173 193.6897 87.6264 195.4805 85.4173 195.4805 Z" clip-path="url(#clipPath2)"/>
      <path fill="white" d="M406.4976 65.4513 L390.4976 59.4513 L390.4976 71.4513 Z" clip-path="url(#clipPath2)" stroke="none"/>
      <path fill="none" d="M406.4976 65.4513 L390.4976 59.4513 L390.4976 71.4513 Z" clip-path="url(#clipPath2)"/>
      <rect x="142.8754" y="53.6506" clip-path="url(#clipPath2)" fill="white" width="197.0391" height="23.6016" stroke="none"/>
      <text x="144.8754" font-size="16px" y="71.7365" clip-path="url(#clipPath2)" font-family="sans-serif" stroke="none" xml:space="preserve">crm:P82b_end_of_the_end</text>
      <path fill="none" d="M85.4173 187.4805 L85.4173 34.3303 L339.2241 34.3303" clip-path="url(#clipPath2)"/>
    </g>
    <g stroke-linecap="butt" transform="matrix(1,0,0,1,165,-6)" fill-opacity="0" fill="rgb(0,0,0)" text-rendering="geometricPrecision" shape-rendering="geometricPrecision" stroke="rgb(0,0,0)" stroke-opacity="0" stroke-miterlimit="1.45">
      <path d="M85.4173 195.4805 C83.2082 195.4805 81.4173 193.6897 81.4173 191.4805 C81.4173 189.2714 83.2082 187.4805 85.4173 187.4805 C87.6264 187.4805 89.4173 189.2714 89.4173 191.4805 C89.4173 193.6897 87.6264 195.4805 85.4173 195.4805 Z" stroke="none" clip-path="url(#clipPath2)"/>
    </g>
    <g stroke-linecap="butt" transform="matrix(1,0,0,1,165,-6)" fill="green" text-rendering="geometricPrecision" shape-rendering="geometricPrecision" stroke="green" stroke-miterlimit="1.45">
      <path fill="none" d="M85.4173 195.4805 C83.2082 195.4805 81.4173 193.6897 81.4173 191.4805 C81.4173 189.2714 83.2082 187.4805 85.4173 187.4805 C87.6264 187.4805 89.4173 189.2714 89.4173 191.4805 C89.4173 193.6897 87.6264 195.4805 85.4173 195.4805 Z" clip-path="url(#clipPath2)"/>
      <path fill="white" d="M354.2241 34.3303 L338.2241 28.3303 L338.2241 40.3303 Z" clip-path="url(#clipPath2)" stroke="none"/>
      <path fill="none" d="M354.2241 34.3303 L338.2241 28.3303 L338.2241 40.3303 Z" clip-path="url(#clipPath2)"/>
      <rect x="180.7973" y="22.5295" clip-path="url(#clipPath2)" fill="white" width="68.9219" height="23.6016" stroke="none"/>
      <text x="182.7973" font-size="16px" y="40.6154" clip-path="url(#clipPath2)" font-family="sans-serif" stroke="none" xml:space="preserve">rdfs:label</text>
      <path fill="none" d="M75.4173 201.4805 L40.5118 201.4805" clip-path="url(#clipPath2)" stroke="black"/>
      <path fill="black" d="M32.5118 201.4805 L44.5118 206.4805 L41.5118 201.4805 L44.5118 196.4805 Z" clip-path="url(#clipPath2)" stroke="none"/>
      <path fill="none" d="M85.4173 187.4805 L85.4173 163.3343 L323.2241 163.3343" clip-path="url(#clipPath2)" stroke="navy"/>
      <path fill="navy" d="M85.4173 195.4805 C83.2082 195.4805 81.4173 193.6897 81.4173 191.4805 C81.4173 189.2714 83.2082 187.4805 85.4173 187.4805 C87.6264 187.4805 89.4173 189.2714 89.4173 191.4805 C89.4173 193.6897 87.6264 195.4805 85.4173 195.4805 Z" clip-path="url(#clipPath2)" stroke="none"/>
      <path fill="navy" d="M334.2241 163.3343 L322.2241 157.3343 L322.2241 169.3343 Z" clip-path="url(#clipPath2)" stroke="none"/>
      <rect x="136.5551" y="151.5335" clip-path="url(#clipPath2)" fill="white" width="137.4062" height="23.6016" stroke="none"/>
    </g>
    <g stroke-linecap="butt" font-size="16px" transform="matrix(1,0,0,1,165,-6)" fill="navy" text-rendering="geometricPrecision" font-family="sans-serif" shape-rendering="geometricPrecision" stroke="navy" stroke-miterlimit="1.45">
      <text x="138.5551" xml:space="preserve" y="169.6194" clip-path="url(#clipPath2)" stroke="none">ecrm:P2_has_type</text>
    </g>
    <g text-rendering="geometricPrecision" stroke-miterlimit="1.45" shape-rendering="geometricPrecision" transform="matrix(1,0,0,1,165,-6)" stroke-linecap="butt">
      <path fill="none" d="M85.4173 191.4805 L85.4173 126.5724 L326.2241 126.5724" clip-path="url(#clipPath2)"/>
      <path d="M334.2241 126.5724 L322.2241 121.5724 L325.2241 126.5724 L322.2241 131.5724 Z" clip-path="url(#clipPath2)" stroke="none"/>
      <rect x="160.1332" y="114.7717" clip-path="url(#clipPath2)" fill="white" width="90.25" height="23.6016" stroke="none"/>
      <text x="162.1332" font-size="16px" y="132.8576" clip-path="url(#clipPath2)" font-family="sans-serif" stroke="none" xml:space="preserve">owl:sameAs</text>
      <path fill="none" d="M773.0323 253.4366 L773.0323 212.853" clip-path="url(#clipPath2)"/>
      <path d="M773.0323 204.853 L768.0323 216.853 L773.0323 213.853 L778.0323 216.853 Z" clip-path="url(#clipPath2)" stroke="none"/>
      <path fill="none" d="M760.1349 257.991 L720.3681 241.2004 L147.7649 241.2004 L103.1285 212.7638" clip-path="url(#clipPath2)" stroke="navy"/>
      <path fill="navy" d="M767.5049 261.1027 C766.6456 263.1379 764.2992 264.0911 762.264 263.2318 C760.2288 262.3726 759.2756 260.0261 760.1349 257.991 C760.9942 255.9558 763.3406 255.0025 765.3758 255.8618 C767.4109 256.7211 768.3642 259.0676 767.5049 261.1027 Z" clip-path="url(#clipPath2)" stroke="none"/>
      <path fill="navy" d="M93.8512 206.8535 L100.7481 218.3615 L107.1957 208.2408 Z" clip-path="url(#clipPath2)" stroke="none"/>
      <rect x="345.3595" y="229.3996" clip-path="url(#clipPath2)" fill="white" width="177.4141" height="23.6016" stroke="none"/>
    </g>
    <g stroke-linecap="butt" font-size="16px" transform="matrix(1,0,0,1,165,-6)" fill="navy" text-rendering="geometricPrecision" font-family="sans-serif" shape-rendering="geometricPrecision" stroke="navy" stroke-miterlimit="1.45">
      <text x="347.3595" xml:space="preserve" y="247.4856" clip-path="url(#clipPath2)" stroke="none">ecrm:P4_has_time-span</text>
      <path fill="none" d="M760.5244 269.7254 L727.7289 286.2142 L146.3234 286.2142 L102.1404 319.773" clip-path="url(#clipPath2)"/>
      <path d="M767.6718 266.1318 C768.6641 268.1055 767.8686 270.51 765.8949 271.5023 C763.9211 272.4947 761.5167 271.6991 760.5244 269.7254 C759.532 267.7516 760.3276 265.3472 762.3013 264.3549 C764.275 263.3625 766.6795 264.1581 767.6718 266.1318 Z" stroke="none" clip-path="url(#clipPath2)"/>
      <path d="M93.3807 326.4264 L106.5658 323.9462 L99.3076 314.3901 Z" stroke="none" clip-path="url(#clipPath2)"/>
    </g>
    <g stroke-linecap="butt" transform="matrix(1,0,0,1,165,-6)" fill="white" text-rendering="geometricPrecision" shape-rendering="geometricPrecision" stroke="white" stroke-miterlimit="1.45">
      <rect x="357.2137" width="159.625" height="23.6016" y="274.4134" clip-path="url(#clipPath2)" stroke="none"/>
    </g>
    <g stroke-linecap="butt" font-size="16px" transform="matrix(1,0,0,1,165,-6)" fill="navy" text-rendering="geometricPrecision" font-family="sans-serif" shape-rendering="geometricPrecision" stroke="navy" stroke-miterlimit="1.45">
      <text x="359.2137" xml:space="preserve" y="292.4993" clip-path="url(#clipPath2)" stroke="none">ecrm:P86_falls_within</text>
      <path fill="none" d="M773.0323 277.4366 L773.0323 362.4662" clip-path="url(#clipPath2)"/>
      <path d="M773.0323 269.4366 C775.2415 269.4366 777.0323 271.2275 777.0323 273.4366 C777.0323 275.6458 775.2415 277.4366 773.0323 277.4366 C770.8232 277.4366 769.0323 275.6458 769.0323 273.4366 C769.0323 271.2275 770.8232 269.4366 773.0323 269.4366 Z" stroke="none" clip-path="url(#clipPath2)"/>
      <path d="M773.0323 373.4662 L779.0323 361.4662 L767.0323 361.4662 Z" stroke="none" clip-path="url(#clipPath2)"/>
    </g>
    <g stroke-linecap="butt" transform="matrix(1,0,0,1,165,-6)" fill="white" text-rendering="geometricPrecision" shape-rendering="geometricPrecision" stroke="white" stroke-miterlimit="1.45">
      <rect x="693.2199" width="159.625" height="23.6016" y="311.6506" clip-path="url(#clipPath2)" stroke="none"/>
    </g>
    <g stroke-linecap="butt" font-size="16px" transform="matrix(1,0,0,1,165,-6)" fill="navy" text-rendering="geometricPrecision" font-family="sans-serif" shape-rendering="geometricPrecision" stroke="navy" stroke-miterlimit="1.45">
      <text x="695.2198" xml:space="preserve" y="329.7365" clip-path="url(#clipPath2)" stroke="none">ecrm:P10_falls_within</text>
    </g>
    <g stroke-linecap="butt" transform="matrix(1,0,0,1,165,-6)" fill="green" text-rendering="geometricPrecision" shape-rendering="geometricPrecision" stroke="green" stroke-miterlimit="1.45">
      <path fill="none" d="M773.0323 397.4662 L773.0323 434.0666 L900.6305 434.0666" clip-path="url(#clipPath2)"/>
    </g>
    <g stroke-linecap="butt" transform="matrix(1,0,0,1,165,-6)" fill-opacity="0" fill="rgb(0,0,0)" text-rendering="geometricPrecision" shape-rendering="geometricPrecision" stroke="rgb(0,0,0)" stroke-opacity="0" stroke-miterlimit="1.45">
      <path d="M773.0323 389.4662 C775.2415 389.4662 777.0323 391.257 777.0323 393.4662 C777.0323 395.6753 775.2415 397.4662 773.0323 397.4662 C770.8232 397.4662 769.0323 395.6753 769.0323 393.4662 C769.0323 391.257 770.8232 389.4662 773.0323 389.4662 Z" stroke="none" clip-path="url(#clipPath2)"/>
    </g>
    <g stroke-linecap="butt" transform="matrix(1,0,0,1,165,-6)" fill="green" text-rendering="geometricPrecision" shape-rendering="geometricPrecision" stroke="green" stroke-miterlimit="1.45">
      <path fill="none" d="M773.0323 389.4662 C775.2415 389.4662 777.0323 391.257 777.0323 393.4662 C777.0323 395.6753 775.2415 397.4662 773.0323 397.4662 C770.8232 397.4662 769.0323 395.6753 769.0323 393.4662 C769.0323 391.257 770.8232 389.4662 773.0323 389.4662 Z" clip-path="url(#clipPath2)"/>
      <path fill="white" d="M915.6305 434.0666 L899.6305 428.0666 L899.6305 440.0666 Z" clip-path="url(#clipPath2)" stroke="none"/>
      <path fill="none" d="M915.6305 434.0666 L899.6305 428.0666 L899.6305 440.0666 Z" clip-path="url(#clipPath2)"/>
      <rect x="809.7533" y="422.2658" clip-path="url(#clipPath2)" fill="white" width="60.0312" height="23.6016" stroke="none"/>
      <text x="811.7533" font-size="16px" y="440.3518" clip-path="url(#clipPath2)" font-family="sans-serif" stroke="none" xml:space="preserve">dct:type</text>
      <path fill="none" d="M773.0323 397.4662 L773.0323 465.1877 L900.6305 465.1877" clip-path="url(#clipPath2)"/>
    </g>
    <g stroke-linecap="butt" transform="matrix(1,0,0,1,165,-6)" fill-opacity="0" fill="rgb(0,0,0)" text-rendering="geometricPrecision" shape-rendering="geometricPrecision" stroke="rgb(0,0,0)" stroke-opacity="0" stroke-miterlimit="1.45">
      <path d="M773.0323 389.4662 C775.2415 389.4662 777.0323 391.257 777.0323 393.4662 C777.0323 395.6753 775.2415 397.4662 773.0323 397.4662 C770.8232 397.4662 769.0323 395.6753 769.0323 393.4662 C769.0323 391.257 770.8232 389.4662 773.0323 389.4662 Z" stroke="none" clip-path="url(#clipPath2)"/>
    </g>
    <g stroke-linecap="butt" transform="matrix(1,0,0,1,165,-6)" fill="green" text-rendering="geometricPrecision" shape-rendering="geometricPrecision" stroke="green" stroke-miterlimit="1.45">
      <path fill="none" d="M773.0323 389.4662 C775.2415 389.4662 777.0323 391.257 777.0323 393.4662 C777.0323 395.6753 775.2415 397.4662 773.0323 397.4662 C770.8232 397.4662 769.0323 395.6753 769.0323 393.4662 C769.0323 391.257 770.8232 389.4662 773.0323 389.4662 Z" clip-path="url(#clipPath2)"/>
      <path fill="white" d="M915.6305 465.1877 L899.6305 459.1877 L899.6305 471.1877 Z" clip-path="url(#clipPath2)" stroke="none"/>
      <path fill="none" d="M915.6305 465.1877 L899.6305 459.1877 L899.6305 471.1877 Z" clip-path="url(#clipPath2)"/>
      <rect x="805.308" y="453.3869" clip-path="url(#clipPath2)" fill="white" width="68.9219" height="23.6016" stroke="none"/>
      <text x="807.308" font-size="16px" y="471.4729" clip-path="url(#clipPath2)" font-family="sans-serif" stroke="none" xml:space="preserve">rdfs:label</text>
      <path fill="none" d="M763.0334 383.325 L710.3737 382.5816" clip-path="url(#clipPath2)" stroke="black"/>
      <path fill="black" d="M702.3745 382.4687 L714.3027 387.6376 L711.3735 382.5957 L714.4438 377.6386 Z" clip-path="url(#clipPath2)" stroke="none"/>
      <path fill="none" d="M773.0323 393.4662 L773.0323 495.1877 L887.6305 495.1877" clip-path="url(#clipPath2)" stroke="black"/>
      <path fill="black" d="M895.6305 495.1877 L883.6305 490.1877 L886.6305 495.1877 L883.6305 500.1877 Z" clip-path="url(#clipPath2)" stroke="none"/>
      <rect x="784.6439" y="483.3869" clip-path="url(#clipPath2)" fill="white" width="90.25" height="23.6016" stroke="none"/>
    </g>
    <g font-size="16px" stroke-linecap="butt" transform="matrix(1,0,0,1,165,-6)" text-rendering="geometricPrecision" font-family="sans-serif" shape-rendering="geometricPrecision" stroke-miterlimit="1.45">
      <text x="786.6439" xml:space="preserve" y="501.4729" clip-path="url(#clipPath2)" stroke="none">owl:sameAs</text>
    </g>
  </g>
</svg>
