<?xml version="1.0" encoding="UTF-8"?><svg xmlns="http://www.w3.org/2000/svg" xmlns:xlink="http://www.w3.org/1999/xlink" fill-opacity="1" color-rendering="auto" color-interpolation="auto" text-rendering="auto" stroke="black" stroke-linecap="square" width="1473" stroke-miterlimit="10" shape-rendering="auto" stroke-opacity="1" fill="black" stroke-dasharray="none" font-weight="normal" stroke-width="1" height="790" font-family="'Dialog'" font-style="normal" stroke-linejoin="miter" font-size="12px" stroke-dashoffset="0" image-rendering="auto">
  <!--Generated by ySVG 2.5-->
  <defs id="genericDefs"/>
  <g>
    <defs id="defs1">
      <clipPath clipPathUnits="userSpaceOnUse" id="clipPath1">
        <path d="M0 0 L1473 0 L1473 790 L0 790 L0 0 Z"/>
      </clipPath>
      <clipPath clipPathUnits="userSpaceOnUse" id="clipPath2">
        <path d="M-258 213 L1215 213 L1215 1003 L-258 1003 L-258 213 Z"/>
      </clipPath>
    </defs>
    <g fill="white" text-rendering="geometricPrecision" shape-rendering="geometricPrecision" transform="translate(258,-213)" stroke="white">
      <rect x="-258" width="1473" height="790" y="213" clip-path="url(#clipPath2)" stroke="none"/>
    </g>
    <g fill="yellow" text-rendering="geometricPrecision" shape-rendering="geometricPrecision" transform="matrix(1,0,0,1,258,-213)" stroke="yellow">
      <rect x="-89.6645" y="447" clip-path="url(#clipPath2)" width="136.9383" rx="4" ry="4" height="44" stroke="none"/>
    </g>
    <g font-size="16px" stroke-linecap="butt" transform="matrix(1,0,0,1,258,-213)" text-rendering="geometricPrecision" font-family="sans-serif" shape-rendering="geometricPrecision" stroke-miterlimit="1.45">
      <text x="-79.8906" xml:space="preserve" y="475.2852" clip-path="url(#clipPath2)" stroke="none">ecrm:E53_Place</text>
      <rect x="-89.6645" y="447" clip-path="url(#clipPath2)" fill="none" width="136.9383" rx="4" ry="4" height="44"/>
    </g>
    <g fill="yellow" text-rendering="geometricPrecision" shape-rendering="geometricPrecision" transform="matrix(1,0,0,1,258,-213)" stroke="yellow">
      <rect x="855.376" y="438.8492" clip-path="url(#clipPath2)" width="136.9383" rx="4" ry="4" height="44" stroke="none"/>
    </g>
    <g font-size="16px" stroke-linecap="butt" transform="matrix(1,0,0,1,258,-213)" text-rendering="geometricPrecision" font-family="sans-serif" shape-rendering="geometricPrecision" stroke-miterlimit="1.45">
      <text x="865.1498" xml:space="preserve" y="467.1343" clip-path="url(#clipPath2)" stroke="none">ecrm:E53_Place</text>
      <rect x="855.376" y="438.8492" clip-path="url(#clipPath2)" fill="none" width="136.9383" rx="4" ry="4" height="44"/>
      <text x="364.2045" xml:space="preserve" y="286.6313" clip-path="url(#clipPath2)" stroke="none">"Altes Museum"^^xsd:string</text>
      <text x="366.0318" xml:space="preserve" y="255.5102" clip-path="url(#clipPath2)" stroke="none">"52.519444444444, 13.398333333333"^^xsd:string</text>
      <text x="841.4686" xml:space="preserve" y="581.7256" clip-path="url(#clipPath2)" stroke="none">"Berlin"^^xsd:string</text>
      <text x="835.7053" xml:space="preserve" y="546.1226" clip-path="url(#clipPath2)" stroke="none">"52.516666666667, 13.383333333333"^^xsd:string</text>
    </g>
    <g fill="yellow" text-rendering="geometricPrecision" shape-rendering="geometricPrecision" transform="matrix(1,0,0,1,258,-213)" stroke="yellow">
      <rect x="-242.0673" y="637.6729" clip-path="url(#clipPath2)" width="272.7182" rx="4" ry="4" height="44" stroke="none"/>
    </g>
    <g font-size="16px" stroke-linecap="butt" transform="matrix(1,0,0,1,258,-213)" text-rendering="geometricPrecision" font-family="sans-serif" shape-rendering="geometricPrecision" stroke-miterlimit="1.45">
      <text x="-232.4543" xml:space="preserve" y="665.9581" clip-path="url(#clipPath2)" stroke="none">efrbroo:F4_Manifestation_Singleton</text>
      <rect x="-242.0673" y="637.6729" clip-path="url(#clipPath2)" fill="none" width="272.7182" rx="4" ry="4" height="44"/>
    </g>
    <g fill="rgb(255,153,204)" text-rendering="geometricPrecision" shape-rendering="geometricPrecision" transform="matrix(1,0,0,1,258,-213)" stroke="rgb(255,153,204)">
      <circle r="10" clip-path="url(#clipPath2)" cx="111.6189" cy="469" stroke="none"/>
    </g>
    <g font-size="16px" stroke-linecap="butt" transform="matrix(1,0,0,1,258,-213)" text-rendering="geometricPrecision" font-family="sans-serif" shape-rendering="geometricPrecision" stroke-miterlimit="1.45">
      <text x="127.6189" xml:space="preserve" y="475.2852" clip-path="url(#clipPath2)" stroke="none">myth-where:altes-museum</text>
      <circle fill="none" stroke-width="3" r="10" clip-path="url(#clipPath2)" cx="111.6189" cy="469"/>
    </g>
    <g fill="rgb(255,153,204)" text-rendering="geometricPrecision" shape-rendering="geometricPrecision" transform="matrix(1,0,0,1,258,-213)" stroke="rgb(255,153,204)">
      <circle r="10" clip-path="url(#clipPath2)" cx="350.5131" cy="388.3631" stroke="none"/>
    </g>
    <g font-size="16px" stroke-linecap="butt" transform="matrix(1,0,0,1,258,-213)" text-rendering="geometricPrecision" font-family="sans-serif" shape-rendering="geometricPrecision" stroke-miterlimit="1.45">
      <text x="366.5131" xml:space="preserve" y="394.6483" clip-path="url(#clipPath2)" stroke="none">&lt;https://www.wikidata.org/wiki/Q156722&gt;</text>
      <circle fill="none" stroke-width="3" r="10" clip-path="url(#clipPath2)" cx="350.5131" cy="388.3631"/>
    </g>
    <g fill="rgb(255,153,204)" text-rendering="geometricPrecision" shape-rendering="geometricPrecision" transform="matrix(1,0,0,1,258,-213)" stroke="rgb(255,153,204)">
      <circle r="10" clip-path="url(#clipPath2)" cx="350.5131" cy="423.0155" stroke="none"/>
    </g>
    <g font-size="16px" stroke-linecap="butt" transform="matrix(1,0,0,1,258,-213)" text-rendering="geometricPrecision" font-family="sans-serif" shape-rendering="geometricPrecision" stroke-miterlimit="1.45">
      <text x="366.5131" xml:space="preserve" y="429.3006" clip-path="url(#clipPath2)" stroke="none">&lt;https://id.loc.gov/authorities/names/n83197241&gt;</text>
      <circle fill="none" stroke-width="3" r="10" clip-path="url(#clipPath2)" cx="350.5131" cy="423.0155"/>
    </g>
    <g fill="rgb(255,153,204)" text-rendering="geometricPrecision" shape-rendering="geometricPrecision" transform="matrix(1,0,0,1,258,-213)" stroke="rgb(255,153,204)">
      <circle r="10" clip-path="url(#clipPath2)" cx="611.9666" cy="511.6383" stroke="none"/>
    </g>
    <g font-size="16px" stroke-linecap="butt" transform="matrix(1,0,0,1,258,-213)" text-rendering="geometricPrecision" font-family="sans-serif" shape-rendering="geometricPrecision" stroke-miterlimit="1.45">
      <text x="627.9667" xml:space="preserve" y="517.9234" clip-path="url(#clipPath2)" stroke="none">myth-where:berlin</text>
      <circle fill="none" stroke-width="3" r="10" clip-path="url(#clipPath2)" cx="611.9666" cy="511.6383"/>
    </g>
    <g fill="rgb(255,153,204)" text-rendering="geometricPrecision" shape-rendering="geometricPrecision" transform="matrix(1,0,0,1,258,-213)" stroke="rgb(255,153,204)">
      <circle r="10" clip-path="url(#clipPath2)" cx="843.8594" cy="610.602" stroke="none"/>
    </g>
    <g font-size="16px" stroke-linecap="butt" transform="matrix(1,0,0,1,258,-213)" text-rendering="geometricPrecision" font-family="sans-serif" shape-rendering="geometricPrecision" stroke-miterlimit="1.45">
      <text x="859.8594" xml:space="preserve" y="616.8871" clip-path="url(#clipPath2)" stroke="none">&lt;https://www.wikidata.org/wiki/Q64&gt;</text>
      <circle fill="none" stroke-width="3" r="10" clip-path="url(#clipPath2)" cx="843.8594" cy="610.602"/>
    </g>
    <g fill="rgb(255,153,204)" text-rendering="geometricPrecision" shape-rendering="geometricPrecision" transform="matrix(1,0,0,1,258,-213)" stroke="rgb(255,153,204)">
      <circle r="10" clip-path="url(#clipPath2)" cx="111.6189" cy="659.6729" stroke="none"/>
    </g>
    <g font-size="16px" stroke-linecap="butt" transform="matrix(1,0,0,1,258,-213)" text-rendering="geometricPrecision" font-family="sans-serif" shape-rendering="geometricPrecision" stroke-miterlimit="1.45">
      <text x="127.6189" xml:space="preserve" y="665.9581" clip-path="url(#clipPath2)" stroke="none">myth-item:81</text>
      <circle fill="none" stroke-width="3" r="10" clip-path="url(#clipPath2)" cx="111.6189" cy="659.6729"/>
    </g>
    <g fill="rgb(255,153,204)" text-rendering="geometricPrecision" shape-rendering="geometricPrecision" transform="matrix(1,0,0,1,258,-213)" stroke="rgb(255,153,204)">
      <circle r="10" clip-path="url(#clipPath2)" cx="843.8594" cy="694.2421" stroke="none"/>
    </g>
    <g font-size="16px" stroke-linecap="butt" transform="matrix(1,0,0,1,258,-213)" text-rendering="geometricPrecision" font-family="sans-serif" shape-rendering="geometricPrecision" stroke-miterlimit="1.45">
      <text x="859.8594" xml:space="preserve" y="700.5273" clip-path="url(#clipPath2)" stroke="none">myth-where:citta</text>
      <circle fill="none" stroke-width="3" r="10" clip-path="url(#clipPath2)" cx="843.8594" cy="694.2421"/>
    </g>
    <g fill="yellow" text-rendering="geometricPrecision" shape-rendering="geometricPrecision" transform="matrix(1,0,0,1,258,-213)" stroke="yellow">
      <rect x="775.3903" y="759.8835" clip-path="url(#clipPath2)" width="136.9383" rx="4" ry="4" height="44" stroke="none"/>
    </g>
    <g font-size="16px" stroke-linecap="butt" transform="matrix(1,0,0,1,258,-213)" text-rendering="geometricPrecision" font-family="sans-serif" shape-rendering="geometricPrecision" stroke-miterlimit="1.45">
      <text x="787.3907" xml:space="preserve" y="788.1686" clip-path="url(#clipPath2)" stroke="none">ecrm:E55_Type</text>
      <rect x="775.3903" y="759.8835" clip-path="url(#clipPath2)" fill="none" width="136.9383" rx="4" ry="4" height="44"/>
    </g>
    <g fill="rgb(255,153,204)" text-rendering="geometricPrecision" shape-rendering="geometricPrecision" transform="matrix(1,0,0,1,258,-213)" stroke="rgb(255,153,204)">
      <circle r="10" clip-path="url(#clipPath2)" cx="444.6508" cy="760.1502" stroke="none"/>
    </g>
    <g font-size="16px" stroke-linecap="butt" transform="matrix(1,0,0,1,258,-213)" text-rendering="geometricPrecision" font-family="sans-serif" shape-rendering="geometricPrecision" stroke-miterlimit="1.45">
      <text x="460.6508" xml:space="preserve" y="766.4353" clip-path="url(#clipPath2)" stroke="none">myth-where:germany</text>
      <circle fill="none" stroke-width="3" r="10" clip-path="url(#clipPath2)" cx="444.6508" cy="760.1502"/>
    </g>
    <g fill="yellow" text-rendering="geometricPrecision" shape-rendering="geometricPrecision" transform="matrix(1,0,0,1,258,-213)" stroke="yellow">
      <rect x="214.3441" y="738.1502" clip-path="url(#clipPath2)" width="136.9383" rx="4" ry="4" height="44" stroke="none"/>
    </g>
    <g font-size="16px" stroke-linecap="butt" transform="matrix(1,0,0,1,258,-213)" text-rendering="geometricPrecision" font-family="sans-serif" shape-rendering="geometricPrecision" stroke-miterlimit="1.45">
      <text x="224.118" xml:space="preserve" y="766.4353" clip-path="url(#clipPath2)" stroke="none">ecrm:E53_Place</text>
      <rect x="214.3441" y="738.1502" clip-path="url(#clipPath2)" fill="none" width="136.9383" rx="4" ry="4" height="44"/>
    </g>
    <g fill="rgb(255,153,204)" text-rendering="geometricPrecision" shape-rendering="geometricPrecision" transform="matrix(1,0,0,1,258,-213)" stroke="rgb(255,153,204)">
      <circle r="10" clip-path="url(#clipPath2)" cx="670.0302" cy="884.0542" stroke="none"/>
    </g>
    <g font-size="16px" stroke-linecap="butt" transform="matrix(1,0,0,1,258,-213)" text-rendering="geometricPrecision" font-family="sans-serif" shape-rendering="geometricPrecision" stroke-miterlimit="1.45">
      <text x="686.0302" xml:space="preserve" y="890.3394" clip-path="url(#clipPath2)" stroke="none">myth-where:nazione</text>
      <circle fill="none" stroke-width="3" r="10" clip-path="url(#clipPath2)" cx="670.0302" cy="884.0542"/>
    </g>
    <g fill="rgb(255,153,204)" text-rendering="geometricPrecision" shape-rendering="geometricPrecision" transform="matrix(1,0,0,1,258,-213)" stroke="rgb(255,153,204)">
      <circle r="10" clip-path="url(#clipPath2)" cx="843.8594" cy="652.4221" stroke="none"/>
    </g>
    <g font-size="16px" stroke-linecap="butt" transform="matrix(1,0,0,1,258,-213)" text-rendering="geometricPrecision" font-family="sans-serif" shape-rendering="geometricPrecision" stroke-miterlimit="1.45">
      <text x="859.8594" xml:space="preserve" y="658.7072" clip-path="url(#clipPath2)" stroke="none"> &lt;http://sws.geonames.org/2950159&gt;</text>
      <circle fill="none" stroke-width="3" r="10" clip-path="url(#clipPath2)" cx="843.8594" cy="652.4221"/>
    </g>
    <g fill="rgb(255,153,204)" text-rendering="geometricPrecision" shape-rendering="geometricPrecision" transform="matrix(1,0,0,1,258,-213)" stroke="rgb(255,153,204)">
      <circle r="10" clip-path="url(#clipPath2)" cx="350.5131" cy="352.2684" stroke="none"/>
    </g>
    <g font-size="16px" stroke-linecap="butt" transform="matrix(1,0,0,1,258,-213)" text-rendering="geometricPrecision" font-family="sans-serif" shape-rendering="geometricPrecision" stroke-miterlimit="1.45">
      <text x="366.5131" xml:space="preserve" y="358.5535" clip-path="url(#clipPath2)" stroke="none">&lt;http://sws.geonames.org/7911191&gt;</text>
      <circle fill="none" stroke-width="3" r="10" clip-path="url(#clipPath2)" cx="350.5131" cy="352.2684"/>
    </g>
    <g fill="rgb(255,153,204)" text-rendering="geometricPrecision" shape-rendering="geometricPrecision" transform="matrix(1,0,0,1,258,-213)" stroke="rgb(255,153,204)">
      <circle r="10" clip-path="url(#clipPath2)" cx="350.5131" cy="312.1469" stroke="none"/>
    </g>
    <g font-size="16px" stroke-linecap="butt" transform="matrix(1,0,0,1,258,-213)" text-rendering="geometricPrecision" font-family="sans-serif" shape-rendering="geometricPrecision" stroke-miterlimit="1.45">
      <text x="366.5131" xml:space="preserve" y="318.432" clip-path="url(#clipPath2)" stroke="none">&lt;http://worldcat.org/identities/lccn-n83197241&gt;</text>
      <circle fill="none" stroke-width="3" r="10" clip-path="url(#clipPath2)" cx="350.5131" cy="312.1469"/>
    </g>
    <g fill="yellow" text-rendering="geometricPrecision" shape-rendering="geometricPrecision" transform="matrix(1,0,0,1,258,-213)" stroke="yellow">
      <rect x="601.5611" y="943.2116" clip-path="url(#clipPath2)" width="136.9383" rx="4" ry="4" height="44" stroke="none"/>
    </g>
    <g font-size="16px" stroke-linecap="butt" transform="matrix(1,0,0,1,258,-213)" text-rendering="geometricPrecision" font-family="sans-serif" shape-rendering="geometricPrecision" stroke-miterlimit="1.45">
      <text x="613.5615" xml:space="preserve" y="971.4968" clip-path="url(#clipPath2)" stroke="none">ecrm:E55_Type</text>
      <rect x="601.5611" y="943.2116" clip-path="url(#clipPath2)" fill="none" width="136.9383" rx="4" ry="4" height="44"/>
      <text x="611.4918" xml:space="preserve" y="819.3812" clip-path="url(#clipPath2)" stroke="none">"Germany"^^string</text>
    </g>
    <g fill="rgb(255,153,204)" text-rendering="geometricPrecision" shape-rendering="geometricPrecision" transform="matrix(1,0,0,1,258,-213)" stroke="rgb(255,153,204)">
      <circle r="10" clip-path="url(#clipPath2)" cx="598.671" cy="849.0561" stroke="none"/>
    </g>
    <g font-size="16px" stroke-linecap="butt" transform="matrix(1,0,0,1,258,-213)" text-rendering="geometricPrecision" font-family="sans-serif" shape-rendering="geometricPrecision" stroke-miterlimit="1.45">
      <text x="614.671" xml:space="preserve" y="855.3412" clip-path="url(#clipPath2)" stroke="none">&lt;http://sws.geonames.org/2921044&gt;</text>
      <circle fill="none" stroke-width="3" r="10" clip-path="url(#clipPath2)" cx="598.671" cy="849.0561"/>
    </g>
    <g stroke-linecap="butt" transform="matrix(1,0,0,1,258,-213)" fill="green" text-rendering="geometricPrecision" shape-rendering="geometricPrecision" stroke="green" stroke-miterlimit="1.45">
      <path fill="none" d="M111.6189 455 L111.6189 247.7424 L345.5135 246.0804" clip-path="url(#clipPath2)"/>
    </g>
    <g stroke-linecap="butt" transform="matrix(1,0,0,1,258,-213)" fill-opacity="0" fill="rgb(0,0,0)" text-rendering="geometricPrecision" shape-rendering="geometricPrecision" stroke="rgb(0,0,0)" stroke-opacity="0" stroke-miterlimit="1.45">
      <path d="M111.6189 463 C109.4097 463 107.6189 461.2091 107.6189 459 C107.6189 456.7909 109.4097 455 111.6189 455 C113.828 455 115.6189 456.7909 115.6189 459 C115.6189 461.2091 113.828 463 111.6189 463 Z" stroke="none" clip-path="url(#clipPath2)"/>
    </g>
    <g stroke-linecap="butt" transform="matrix(1,0,0,1,258,-213)" fill="green" text-rendering="geometricPrecision" shape-rendering="geometricPrecision" stroke="green" stroke-miterlimit="1.45">
      <path fill="none" d="M111.6189 463 C109.4097 463 107.6189 461.2091 107.6189 459 C107.6189 456.7909 109.4097 455 111.6189 455 C113.828 455 115.6189 456.7909 115.6189 459 C115.6189 461.2091 113.828 463 111.6189 463 Z" clip-path="url(#clipPath2)"/>
      <path fill="white" d="M360.5131 245.9738 L344.4709 240.0877 L344.5561 252.0874 Z" clip-path="url(#clipPath2)" stroke="none"/>
      <path fill="none" d="M360.5131 245.9738 L344.4709 240.0877 L344.5561 252.0874 Z" clip-path="url(#clipPath2)"/>
      <rect x="193.9214" y="235.0898" clip-path="url(#clipPath2)" fill="white" width="75.1641" height="23.6016" stroke="none"/>
      <text x="195.9214" font-size="16px" y="253.1757" clip-path="url(#clipPath2)" font-family="sans-serif" stroke="none" xml:space="preserve">wdp:P625</text>
      <path fill="none" d="M111.6189 455 L111.6189 281.0258 L345.5131 281.0258" clip-path="url(#clipPath2)"/>
    </g>
    <g stroke-linecap="butt" transform="matrix(1,0,0,1,258,-213)" fill-opacity="0" fill="rgb(0,0,0)" text-rendering="geometricPrecision" shape-rendering="geometricPrecision" stroke="rgb(0,0,0)" stroke-opacity="0" stroke-miterlimit="1.45">
      <path d="M111.6189 463 C109.4097 463 107.6189 461.2091 107.6189 459 C107.6189 456.7909 109.4097 455 111.6189 455 C113.828 455 115.6189 456.7909 115.6189 459 C115.6189 461.2091 113.828 463 111.6189 463 Z" stroke="none" clip-path="url(#clipPath2)"/>
    </g>
    <g stroke-linecap="butt" transform="matrix(1,0,0,1,258,-213)" fill="green" text-rendering="geometricPrecision" shape-rendering="geometricPrecision" stroke="green" stroke-miterlimit="1.45">
      <path fill="none" d="M111.6189 463 C109.4097 463 107.6189 461.2091 107.6189 459 C107.6189 456.7909 109.4097 455 111.6189 455 C113.828 455 115.6189 456.7909 115.6189 459 C115.6189 461.2091 113.828 463 111.6189 463 Z" clip-path="url(#clipPath2)"/>
      <path fill="white" d="M360.5131 281.0258 L344.5131 275.0258 L344.5131 287.0258 Z" clip-path="url(#clipPath2)" stroke="none"/>
      <path fill="none" d="M360.5131 281.0258 L344.5131 275.0258 L344.5131 287.0258 Z" clip-path="url(#clipPath2)"/>
      <rect x="197.0425" y="269.225" clip-path="url(#clipPath2)" fill="white" width="68.9219" height="23.6016" stroke="none"/>
      <text x="199.0425" font-size="16px" y="287.3109" clip-path="url(#clipPath2)" font-family="sans-serif" stroke="none" xml:space="preserve">rdfs:label</text>
      <path fill="none" d="M101.6189 469 L55.258 469" clip-path="url(#clipPath2)" stroke="black"/>
      <path fill="black" d="M47.258 469 L59.258 474 L56.258 469 L59.258 464 Z" clip-path="url(#clipPath2)" stroke="none"/>
      <path fill="none" d="M111.6189 459 L111.6189 388.3631 L332.5131 388.3631" clip-path="url(#clipPath2)" stroke="black"/>
      <path fill="black" d="M340.5131 388.3631 L328.5131 383.3631 L331.5131 388.3631 L328.5131 393.3631 Z" clip-path="url(#clipPath2)" stroke="none"/>
      <rect x="176.3785" y="376.5623" clip-path="url(#clipPath2)" fill="white" width="90.25" height="23.6016" stroke="none"/>
    </g>
    <g font-size="16px" stroke-linecap="butt" transform="matrix(1,0,0,1,258,-213)" text-rendering="geometricPrecision" font-family="sans-serif" shape-rendering="geometricPrecision" stroke-miterlimit="1.45">
      <text x="178.3785" xml:space="preserve" y="394.6483" clip-path="url(#clipPath2)" stroke="none">owl:sameAs</text>
      <path fill="none" d="M111.6189 459 L111.6189 423.0154 L332.5131 423.0154" clip-path="url(#clipPath2)"/>
      <path d="M340.5131 423.0154 L328.5131 418.0154 L331.5131 423.0154 L328.5131 428.0154 Z" stroke="none" clip-path="url(#clipPath2)"/>
    </g>
    <g stroke-linecap="butt" transform="matrix(1,0,0,1,258,-213)" fill="white" text-rendering="geometricPrecision" shape-rendering="geometricPrecision" stroke="white" stroke-miterlimit="1.45">
      <rect x="176.3785" width="90.25" height="23.6016" y="411.2147" clip-path="url(#clipPath2)" stroke="none"/>
    </g>
    <g font-size="16px" stroke-linecap="butt" transform="matrix(1,0,0,1,258,-213)" text-rendering="geometricPrecision" font-family="sans-serif" shape-rendering="geometricPrecision" stroke-miterlimit="1.45">
      <text x="178.3785" xml:space="preserve" y="429.3006" clip-path="url(#clipPath2)" stroke="none">owl:sameAs</text>
    </g>
    <g stroke-linecap="butt" transform="matrix(1,0,0,1,258,-213)" fill="navy" text-rendering="geometricPrecision" shape-rendering="geometricPrecision" stroke="navy" stroke-miterlimit="1.45">
      <path fill="none" d="M124.8779 473.4943 L194.5047 497.0954 L590.9794 510.9071" clip-path="url(#clipPath2)"/>
      <path d="M117.3013 470.9261 C118.0105 468.8339 120.2815 467.7128 122.3737 468.4219 C124.4659 469.1311 125.5871 471.4021 124.8779 473.4943 C124.1687 475.5865 121.8977 476.7077 119.8055 475.9985 C117.7133 475.2893 116.5921 473.0184 117.3013 470.9261 Z" clip-path="url(#clipPath2)" stroke="none"/>
      <path d="M601.9727 511.2901 L590.1889 504.8759 L589.7711 516.8687 Z" clip-path="url(#clipPath2)" stroke="none"/>
      <rect x="313.8607" y="492.2329" clip-path="url(#clipPath2)" fill="white" width="159.625" height="23.6016" stroke="none"/>
      <text x="315.8607" font-size="16px" y="510.3188" clip-path="url(#clipPath2)" font-family="sans-serif" stroke="none" xml:space="preserve">ecrm:P89_falls_within</text>
      <path fill="none" d="M611.9667 525.6382 L611.9667 541.6382 L818.8594 541.6382" clip-path="url(#clipPath2)" stroke="green"/>
    </g>
    <g stroke-linecap="butt" transform="matrix(1,0,0,1,258,-213)" fill-opacity="0" fill="rgb(0,0,0)" text-rendering="geometricPrecision" shape-rendering="geometricPrecision" stroke="rgb(0,0,0)" stroke-opacity="0" stroke-miterlimit="1.45">
      <path d="M611.9667 517.6382 C614.1758 517.6382 615.9667 519.4291 615.9667 521.6382 C615.9667 523.8474 614.1758 525.6382 611.9667 525.6382 C609.7575 525.6382 607.9667 523.8474 607.9667 521.6382 C607.9667 519.4291 609.7575 517.6382 611.9667 517.6382 Z" stroke="none" clip-path="url(#clipPath2)"/>
    </g>
    <g stroke-linecap="butt" transform="matrix(1,0,0,1,258,-213)" fill="green" text-rendering="geometricPrecision" shape-rendering="geometricPrecision" stroke="green" stroke-miterlimit="1.45">
      <path fill="none" d="M611.9667 517.6382 C614.1758 517.6382 615.9667 519.4291 615.9667 521.6382 C615.9667 523.8474 614.1758 525.6382 611.9667 525.6382 C609.7575 525.6382 607.9667 523.8474 607.9667 521.6382 C607.9667 519.4291 609.7575 517.6382 611.9667 517.6382 Z" clip-path="url(#clipPath2)"/>
      <path fill="white" d="M833.8594 541.6382 L817.8594 535.6382 L817.8594 547.6382 Z" clip-path="url(#clipPath2)" stroke="none"/>
      <path fill="none" d="M833.8594 541.6382 L817.8594 535.6382 L817.8594 547.6382 Z" clip-path="url(#clipPath2)"/>
      <rect x="680.7685" y="529.8375" clip-path="url(#clipPath2)" fill="white" width="75.1641" height="23.6016" stroke="none"/>
      <text x="682.7685" font-size="16px" y="547.9234" clip-path="url(#clipPath2)" font-family="sans-serif" stroke="none" xml:space="preserve">wdp:P625</text>
      <path fill="none" d="M611.9667 525.6382 L611.9667 576.1201 L818.8594 576.1201" clip-path="url(#clipPath2)"/>
    </g>
    <g stroke-linecap="butt" transform="matrix(1,0,0,1,258,-213)" fill-opacity="0" fill="rgb(0,0,0)" text-rendering="geometricPrecision" shape-rendering="geometricPrecision" stroke="rgb(0,0,0)" stroke-opacity="0" stroke-miterlimit="1.45">
      <path d="M611.9667 517.6382 C614.1758 517.6382 615.9667 519.4291 615.9667 521.6382 C615.9667 523.8474 614.1758 525.6382 611.9667 525.6382 C609.7575 525.6382 607.9667 523.8474 607.9667 521.6382 C607.9667 519.4291 609.7575 517.6382 611.9667 517.6382 Z" stroke="none" clip-path="url(#clipPath2)"/>
    </g>
    <g stroke-linecap="butt" transform="matrix(1,0,0,1,258,-213)" fill="green" text-rendering="geometricPrecision" shape-rendering="geometricPrecision" stroke="green" stroke-miterlimit="1.45">
      <path fill="none" d="M611.9667 517.6382 C614.1758 517.6382 615.9667 519.4291 615.9667 521.6382 C615.9667 523.8474 614.1758 525.6382 611.9667 525.6382 C609.7575 525.6382 607.9667 523.8474 607.9667 521.6382 C607.9667 519.4291 609.7575 517.6382 611.9667 517.6382 Z" clip-path="url(#clipPath2)"/>
      <path fill="white" d="M833.8594 576.1201 L817.8594 570.1201 L817.8594 582.1201 Z" clip-path="url(#clipPath2)" stroke="none"/>
      <path fill="none" d="M833.8594 576.1201 L817.8594 570.1201 L817.8594 582.1201 Z" clip-path="url(#clipPath2)"/>
      <rect x="683.8896" y="564.3193" clip-path="url(#clipPath2)" fill="white" width="68.9219" height="23.6016" stroke="none"/>
      <text x="685.8896" font-size="16px" y="582.4053" clip-path="url(#clipPath2)" font-family="sans-serif" stroke="none" xml:space="preserve">rdfs:label</text>
      <path fill="none" d="M611.9667 501.6382 L611.9667 460.8492 L847.3552 460.8492" clip-path="url(#clipPath2)" stroke="black"/>
      <path fill="black" d="M855.3552 460.8492 L843.3552 455.8492 L846.3552 460.8492 L843.3552 465.8492 Z" clip-path="url(#clipPath2)" stroke="none"/>
      <path fill="none" d="M611.9667 521.6382 L611.9667 610.602 L825.8594 610.602" clip-path="url(#clipPath2)" stroke="black"/>
      <path fill="black" d="M833.8594 610.602 L821.8594 605.602 L824.8594 610.602 L821.8594 615.602 Z" clip-path="url(#clipPath2)" stroke="none"/>
      <rect x="673.2255" y="598.8012" clip-path="url(#clipPath2)" fill="white" width="90.25" height="23.6016" stroke="none"/>
    </g>
    <g font-size="16px" stroke-linecap="butt" transform="matrix(1,0,0,1,258,-213)" text-rendering="geometricPrecision" font-family="sans-serif" shape-rendering="geometricPrecision" stroke-miterlimit="1.45">
      <text x="675.2255" xml:space="preserve" y="616.8871" clip-path="url(#clipPath2)" stroke="none">owl:sameAs</text>
    </g>
    <g stroke-linecap="butt" transform="matrix(1,0,0,1,258,-213)" fill="navy" text-rendering="geometricPrecision" shape-rendering="geometricPrecision" stroke="navy" stroke-miterlimit="1.45">
      <path fill="none" d="M111.6189 645.6729 L111.6189 490" clip-path="url(#clipPath2)"/>
      <path d="M111.6189 653.6729 C109.4097 653.6729 107.6189 651.8821 107.6189 649.6729 C107.6189 647.4637 109.4097 645.6729 111.6189 645.6729 C113.828 645.6729 115.6189 647.4637 115.6189 649.6729 C115.6189 651.8821 113.828 653.6729 111.6189 653.6729 Z" clip-path="url(#clipPath2)" stroke="none"/>
      <path d="M111.6189 479 L105.6189 491 L117.6189 491 Z" clip-path="url(#clipPath2)" stroke="none"/>
      <rect x="-3.3343" y="552.5357" clip-path="url(#clipPath2)" fill="white" width="229.9062" height="23.6016" stroke="none"/>
      <text x="-1.3343" font-size="16px" y="570.6216" clip-path="url(#clipPath2)" font-family="sans-serif" stroke="none" xml:space="preserve">ecrm:P55_has_current_location</text>
      <path fill="none" d="M101.6189 659.6729 L38.6286 659.6729" clip-path="url(#clipPath2)" stroke="black"/>
      <path fill="black" d="M30.6286 659.6729 L42.6286 664.6729 L39.6286 659.6729 L42.6286 654.6729 Z" clip-path="url(#clipPath2)" stroke="none"/>
      <path fill="none" d="M611.9667 525.6382 L611.9667 694.2421 L822.8594 694.2421" clip-path="url(#clipPath2)"/>
      <path d="M611.9667 517.6382 C614.1758 517.6382 615.9667 519.4291 615.9667 521.6382 C615.9667 523.8474 614.1758 525.6382 611.9667 525.6382 C609.7575 525.6382 607.9667 523.8474 607.9667 521.6382 C607.9667 519.4291 609.7575 517.6382 611.9667 517.6382 Z" clip-path="url(#clipPath2)" stroke="none"/>
      <path d="M833.8594 694.2421 L821.8594 688.2421 L821.8594 700.2421 Z" clip-path="url(#clipPath2)" stroke="none"/>
      <rect x="649.6474" y="682.4413" clip-path="url(#clipPath2)" fill="white" width="137.4062" height="23.6016" stroke="none"/>
      <text x="651.6474" font-size="16px" y="700.5273" clip-path="url(#clipPath2)" font-family="sans-serif" stroke="none" xml:space="preserve">ecrm:P2_has_type</text>
      <path fill="none" d="M843.8594 704.2226 L843.8594 751.8517" clip-path="url(#clipPath2)" stroke="black"/>
      <path fill="black" d="M843.8594 759.8517 L848.8594 747.8517 L843.8594 750.8517 L838.8594 747.8517 Z" clip-path="url(#clipPath2)" stroke="none"/>
      <path fill="none" d="M604.1478 523.2515 L456.379 742.7304" clip-path="url(#clipPath2)"/>
      <path d="M608.6157 516.6154 C610.4482 517.8491 610.9336 520.3348 609.6998 522.1674 C608.4661 523.9999 605.9803 524.4852 604.1478 523.2515 C602.3153 522.0177 601.83 519.532 603.0637 517.6995 C604.2975 515.8669 606.7832 515.3816 608.6157 516.6154 Z" clip-path="url(#clipPath2)" stroke="none"/>
      <path d="M450.2357 751.855 L461.9146 745.2518 L451.9604 738.55 Z" clip-path="url(#clipPath2)" stroke="none"/>
      <rect x="453.3751" y="624.0934" clip-path="url(#clipPath2)" fill="white" width="149.8672" height="23.6016" stroke="none"/>
      <text x="455.3751" font-size="16px" y="642.1794" clip-path="url(#clipPath2)" font-family="sans-serif" stroke="none" xml:space="preserve">ns2:P89_falls_within</text>
      <path fill="none" d="M123.5582 476.311 L256.5981 557.7776 L430.3558 744.7667" clip-path="url(#clipPath2)"/>
      <path d="M116.7357 472.1333 C117.8894 470.2493 120.3519 469.6573 122.2359 470.8109 C124.1198 471.9646 124.7119 474.4271 123.5582 476.311 C122.4046 478.195 119.9421 478.7871 118.0581 477.6334 C116.1741 476.4798 115.5821 474.0173 116.7357 472.1333 Z" clip-path="url(#clipPath2)" stroke="none"/>
      <path d="M437.8437 752.8247 L434.0704 739.9498 L425.2798 748.1185 Z" clip-path="url(#clipPath2)" stroke="none"/>
      <rect x="261.9261" y="637.6006" clip-path="url(#clipPath2)" fill="white" width="159.625" height="23.6016" stroke="none"/>
      <text x="263.9261" font-size="16px" y="655.6865" clip-path="url(#clipPath2)" font-family="sans-serif" stroke="none" xml:space="preserve">ecrm:P89_falls_within</text>
      <path fill="none" d="M434.6508 760.1501 L359.281 760.1501" clip-path="url(#clipPath2)" stroke="black"/>
      <path fill="black" d="M351.281 760.1501 L363.281 765.1501 L360.281 760.1501 L363.281 755.1501 Z" clip-path="url(#clipPath2)" stroke="none"/>
      <path fill="none" d="M444.6508 774.1501 L444.6508 884.0542 L649.0302 884.0542" clip-path="url(#clipPath2)"/>
      <path d="M444.6508 766.1501 C446.8599 766.1501 448.6508 767.941 448.6508 770.1501 C448.6508 772.3593 446.8599 774.1501 444.6508 774.1501 C442.4417 774.1501 440.6508 772.3593 440.6508 770.1501 C440.6508 767.941 442.4417 766.1501 444.6508 766.1501 Z" clip-path="url(#clipPath2)" stroke="none"/>
      <path d="M660.0302 884.0542 L648.0302 878.0542 L648.0302 890.0542 Z" clip-path="url(#clipPath2)" stroke="none"/>
      <rect x="479.0749" y="872.2534" clip-path="url(#clipPath2)" fill="white" width="137.4062" height="23.6016" stroke="none"/>
      <text x="481.0749" font-size="16px" y="890.3394" clip-path="url(#clipPath2)" font-family="sans-serif" stroke="none" xml:space="preserve">ecrm:P2_has_type</text>
      <path fill="none" d="M611.9667 521.6382 L611.9667 652.4221 L825.8594 652.4221" clip-path="url(#clipPath2)" stroke="black"/>
      <path fill="black" d="M833.8594 652.4221 L821.8594 647.4221 L824.8594 652.4221 L821.8594 657.4221 Z" clip-path="url(#clipPath2)" stroke="none"/>
      <rect x="673.2255" y="640.6213" clip-path="url(#clipPath2)" fill="white" width="90.25" height="23.6016" stroke="none"/>
    </g>
    <g font-size="16px" stroke-linecap="butt" transform="matrix(1,0,0,1,258,-213)" text-rendering="geometricPrecision" font-family="sans-serif" shape-rendering="geometricPrecision" stroke-miterlimit="1.45">
      <text x="675.2255" xml:space="preserve" y="658.7072" clip-path="url(#clipPath2)" stroke="none">owl:sameAs</text>
      <path fill="none" d="M111.6189 459 L111.6189 352.2684 L332.5131 352.2684" clip-path="url(#clipPath2)"/>
      <path d="M340.5131 352.2684 L328.5131 347.2684 L331.5131 352.2684 L328.5131 357.2684 Z" stroke="none" clip-path="url(#clipPath2)"/>
    </g>
    <g stroke-linecap="butt" transform="matrix(1,0,0,1,258,-213)" fill="white" text-rendering="geometricPrecision" shape-rendering="geometricPrecision" stroke="white" stroke-miterlimit="1.45">
      <rect x="176.3785" width="90.25" height="23.6016" y="340.4676" clip-path="url(#clipPath2)" stroke="none"/>
    </g>
    <g font-size="16px" stroke-linecap="butt" transform="matrix(1,0,0,1,258,-213)" text-rendering="geometricPrecision" font-family="sans-serif" shape-rendering="geometricPrecision" stroke-miterlimit="1.45">
      <text x="178.3785" xml:space="preserve" y="358.5535" clip-path="url(#clipPath2)" stroke="none">owl:sameAs</text>
      <path fill="none" d="M111.6189 459 L111.6189 312.1469 L332.5131 312.1469" clip-path="url(#clipPath2)"/>
      <path d="M340.5131 312.1469 L328.5131 307.1469 L331.5131 312.1469 L328.5131 317.1469 Z" stroke="none" clip-path="url(#clipPath2)"/>
    </g>
    <g stroke-linecap="butt" transform="matrix(1,0,0,1,258,-213)" fill="white" text-rendering="geometricPrecision" shape-rendering="geometricPrecision" stroke="white" stroke-miterlimit="1.45">
      <rect x="176.3785" width="90.25" height="23.6016" y="300.3461" clip-path="url(#clipPath2)" stroke="none"/>
    </g>
    <g font-size="16px" stroke-linecap="butt" transform="matrix(1,0,0,1,258,-213)" text-rendering="geometricPrecision" font-family="sans-serif" shape-rendering="geometricPrecision" stroke-miterlimit="1.45">
      <text x="178.3785" xml:space="preserve" y="318.432" clip-path="url(#clipPath2)" stroke="none">owl:sameAs</text>
      <path fill="none" d="M670.0302 894.0542 L670.0302 935.2181" clip-path="url(#clipPath2)"/>
      <path d="M670.0302 943.2181 L675.0302 931.2181 L670.0302 934.2181 L665.0302 931.2181 Z" stroke="none" clip-path="url(#clipPath2)"/>
    </g>
    <g stroke-linecap="butt" transform="matrix(1,0,0,1,258,-213)" fill="green" text-rendering="geometricPrecision" shape-rendering="geometricPrecision" stroke="green" stroke-miterlimit="1.45">
      <path fill="none" d="M444.6508 774.1501 L444.6508 813.7757 L593.671 813.7757" clip-path="url(#clipPath2)"/>
    </g>
    <g stroke-linecap="butt" transform="matrix(1,0,0,1,258,-213)" fill-opacity="0" fill="rgb(0,0,0)" text-rendering="geometricPrecision" shape-rendering="geometricPrecision" stroke="rgb(0,0,0)" stroke-opacity="0" stroke-miterlimit="1.45">
      <path d="M444.6508 766.1501 C446.8599 766.1501 448.6508 767.941 448.6508 770.1501 C448.6508 772.3593 446.8599 774.1501 444.6508 774.1501 C442.4417 774.1501 440.6508 772.3593 440.6508 770.1501 C440.6508 767.941 442.4417 766.1501 444.6508 766.1501 Z" stroke="none" clip-path="url(#clipPath2)"/>
    </g>
    <g stroke-linecap="butt" transform="matrix(1,0,0,1,258,-213)" fill="green" text-rendering="geometricPrecision" shape-rendering="geometricPrecision" stroke="green" stroke-miterlimit="1.45">
      <path fill="none" d="M444.6508 766.1501 C446.8599 766.1501 448.6508 767.941 448.6508 770.1501 C448.6508 772.3593 446.8599 774.1501 444.6508 774.1501 C442.4417 774.1501 440.6508 772.3593 440.6508 770.1501 C440.6508 767.941 442.4417 766.1501 444.6508 766.1501 Z" clip-path="url(#clipPath2)"/>
      <path fill="white" d="M608.671 813.7757 L592.671 807.7757 L592.671 819.7757 Z" clip-path="url(#clipPath2)" stroke="none"/>
      <path fill="none" d="M608.671 813.7757 L592.671 807.7757 L592.671 819.7757 Z" clip-path="url(#clipPath2)"/>
      <rect x="487.6375" y="801.9749" clip-path="url(#clipPath2)" fill="white" width="68.9219" height="23.6016" stroke="none"/>
      <text x="489.6375" font-size="16px" y="820.0609" clip-path="url(#clipPath2)" font-family="sans-serif" stroke="none" xml:space="preserve">rdfs:label</text>
      <path fill="none" d="M444.6508 770.1501 L444.6508 849.0561 L580.671 849.0561" clip-path="url(#clipPath2)" stroke="black"/>
      <path fill="black" d="M588.671 849.0561 L576.671 844.0561 L579.671 849.0561 L576.671 854.0561 Z" clip-path="url(#clipPath2)" stroke="none"/>
      <rect x="466.9734" y="837.2553" clip-path="url(#clipPath2)" fill="white" width="90.25" height="23.6016" stroke="none"/>
    </g>
    <g font-size="16px" stroke-linecap="butt" transform="matrix(1,0,0,1,258,-213)" text-rendering="geometricPrecision" font-family="sans-serif" shape-rendering="geometricPrecision" stroke-miterlimit="1.45">
      <text x="468.9734" xml:space="preserve" y="855.3412" clip-path="url(#clipPath2)" stroke="none">owl:sameAs</text>
    </g>
  </g>
</svg>
