<svg height="512" viewBox="0 0 52 60" width="512" xmlns="http://www.w3.org/2000/svg"><g id="Page-1" fill="none" fill-rule="evenodd"><g id="085---Statue" fill="rgb(0,0,0)" fill-rule="nonzero" transform="translate(0 -1)"><path id="Shape" d="m27.352 42.483c.1761707.319377.5122569.517503.877.517.3534916-.0005725.6804173-.1877289.8598961-.4922679.1794789-.304539.184841-.6812075.0141039-.9907321-1.9269671-3.4532262-4.4479185-6.5395045-7.447-9.117-.2697355-.2343662-.6440143-.3070274-.9818492-.1906127-.3378348.1164147-.5879006.4042191-.656.755-.0680993.350781.0561137.7112465.3258492.9456127 2.8218425 2.4234415 5.1941751 5.3255544 7.008 8.573z"/><path id="Shape" d="m0 54c-.00304834 3.2728156 2.26393657 6.1101113 5.45671683 6.829476 3.19278026.7193646 6.45749237-.8715855 7.85828317-3.829476h1.685v2c0 1.1045695.8954305 2 2 2h18c1.1045695 0 2-.8954305 2-2v-2h1.685c1.4869356 3.1347271 5.0457204 4.707268 8.3646171 3.6961219 3.3188967-1.0111462 5.3963373-4.3008384 4.8828452-7.7321381s-3.4629567-5.9687183-6.9324623-5.9639838h-8.073c4.0435938-1.5863258 7.4495463-4.4645806 9.688-8.187.6603258-1.1697682.4554847-2.6368407-.5-3.581-3.9065305-3.6983562-8.8157681-6.1642786-14.115-7.09v-3.142c2.209139 0 4-1.790861 4-4v-4h1c.7205493.0000069 1.3854015-.3875772 1.7404168-1.0145983.3550152-.6270211.3453058-1.3965376-.0254168-2.0144017-.0196929-.0329729-.0414007-.0646999-.065-.095l-2.656-3.452c-.0744207-2.55958935-1.1698205-4.98300832-3.042-6.73-2.0524221-1.91797409-4.815156-2.88725258-7.616-2.672-5.331339.44448066-9.4096602 4.9386717-9.336 10.288v6.69c.0036873 2.700319 1.560237 5.1577219 4 6.315v3.823c-5.2933774.9257453-10.1971694 3.3891183-14.1 7.083-.96620777.9455964-1.17625843 2.4225151-.512 3.6 2.23808301 3.719347 5.6426147 6.594777 9.684 8.179h-8.072c-3.86416566.0044086-6.99559136 3.1358343-7 7zm35 5h-18v-2h18zm15-5c0 2.7614237-2.2385763 5-5 5s-5-2.2385763-5-5c0-.5522847.4477153-1 1-1s1 .4477153 1 1 .4477153 1 1 1 1-.4477153 1-1c0-1.6568542-1.3431458-3-3-3s-3 1.3431458-3 3c.002805.3348137.0295398.6689987.08 1h-24.16c.0504602-.3310013.077195-.6651863.08-1 0-1.6568542-1.3431458-3-3-3-1.65685425 0-3 1.3431458-3 3 0 .5522847.44771525 1 1 1s1-.4477153 1-1 .4477153-1 1-1 1 .4477153 1 1c0 2.7614237-2.23857625 5-5 5s-5-2.2385763-5-5 2.23857625-5 5-5h38c2.7600532.0033061 4.9966939 2.2399468 5 5zm-24.534-50.981c2.2478021-.17380523 4.4659294.59989268 6.118 2.134.4068789.38288489.7707044.80908057 1.085 1.271-.747.119-1.556.261-2.423.435.0111972-.46501281-.301585-.87560774-.7528727-.98830976s-.9203855.10263063-1.1291273.51830976l-.512 1c-.527.129-1.064.272-1.606.424-.0362347-.32373559-.2306519-.60843135-.519-.76-.49182-.2508825-1.0939014-.05570965-1.345.436l-.545 1.069c-.544.185-1.086.38-1.625.59-.0855489-.22574847-.2510235-.4122188-.465-.524-.236286-.12079732-.5108974-.14272155-.7633564-.06094433s-.4620604.26054896-.5826436.49694433l-.574 1.127c-.6246667.304-1.2316667.63-1.8210048.978-.0045332-4.24000115 3.2359594-7.77848008 7.4600048-8.146zm-2.466 21.981c.5522847 0 1-.4477153 1-1s-.4477153-1-1-1c-2.7600532-.0033061-4.9966939-2.2399468-5-5v-4.464c.81511-.5444274 1.6660448-1.0332054 2.547-1.463l1 .507c.140551.0707261.2956574.1077051.453.108.3797546.0023652.7275326-.2122814.8956625-.5527979.16813-.3405164.1271022-.7471359-.1056625-1.0472021.5566667-.22 1.117-.426 1.681-.618l1.056.539c.2364082.1207244.5111157.1425007.7635916.0605304s.4620015-.2609603.5824084-.4975304c.1312592-.2652882.1363989-.57550919.014-.845.5106667-.142 1.0106667-.273 1.5-.393l1.118.57c.1399958.07245825.2953643.1101857.453.11.3763942.0003757.7211171-.21063183.892-.546.107667-.21712058.1318649-.46621633.068-.7 1.018-.2 1.932-.356 2.68-.469.2665501.79690024.4023068 1.63170313.402 2.472.0001151.220716.0732482.435193.208.61l2.784 3.619h-1.992c-.5522847 0-1 .4477153-1 1v1h-11c-.5522847 0-1-.4477153-1-1v-1c0-.5522847-.4477153-1-1-1s-1 .4477153-1 1v1c0 1.6568542 1.3431458 3 3 3h11v2c0 1.1045695-.8954305 2-2 2h-5c-.5522847 0-1 .4477153-1 1s.4477153 1 1 1h3v3.141c-.0027368.968028.6908539 1.7978899 1.644 1.967 4.8996189.8517789 9.4402384 3.1266098 13.056 6.541.3163153.3034797.3900721.7812599.18 1.166-1.6007892 2.6888636-3.9053122 4.8896571-6.665 6.365-4.715-9.743-13.776-14.641-16.215-15.819v-3.44c.3310254.0501254.6652102.076526 1 .079zm-2.153 5.03c1.6.755 10.939 5.486 15.566 15.014-3.2697306 1.3436827-6.7783433 2.0091385-10.313 1.956-2.2496412-6.0597637-6.2137387-11.3341085-11.409-15.18 1.9734134-.8394157 4.0400646-1.4400068 6.156-1.789zm-13.726 7.789c-.2107679-.3908709-.13330352-.8745109.189-1.18 1.57230572-1.5410127 3.3661254-2.8383468 5.322-3.849 5.069812 3.5115019 9.0043833 8.4265012 11.321 14.142-10.788-.667-15.336-6.511-16.832-9.113z"/><path id="Shape" d="m20 53h12c.5522847 0 1-.4477153 1-1s-.4477153-1-1-1h-12c-.5522847 0-1 .4477153-1 1s.4477153 1 1 1z"/></g></g></svg>