<svg id="Layer_3" enable-background="new 0 0 64 64" height="512" viewBox="0 0 64 64" width="512" xmlns="http://www.w3.org/2000/svg"><path d="m18 20 9-9 9 9" fill="#f4b2b0"/><g fill="#b3404a"><path d="m63 36c0-2.757-2.243-5-5-5s-5 2.243-5 5c0 1.55.724 2.921 1.835 3.838-5.337 6.458-13.193 10.162-21.577 10.162h-1.675c-8.334 0-16.174-3.672-21.51-10.075l-.433-.52c.837-.894 1.36-2.087 1.36-3.405 0-2.757-2.243-5-5-5s-5 2.243-5 5c0 1.627.793 3.061 2 3.974v21.026h-2v2h62v-2h-2v-21.026c1.207-.913 2-2.347 2-3.974zm-5-3c1.654 0 3 1.346 3 3s-1.346 3-3 3-3-1.346-3-3 1.346-3 3-3zm-26.417 19h1.675c8.289 0 16.091-3.384 21.742-9.342v18.342h-46v-19.268c5.703 6.529 13.888 10.268 22.583 10.268zm-25.583-19c1.654 0 3 1.346 3 3s-1.346 3-3 3-3-1.346-3-3 1.346-3 3-3zm-1 7.899c.323.066.658.101 1 .101s.677-.035 1-.101v20.101h-2zm54 20.101h-2v-20.101c.323.066.658.101 1 .101s.677-.035 1-.101z"/><path d="m11 2v30c0 .552.447 1 1 1h40c.553 0 1-.448 1-1v-30c0-.552-.447-1-1-1h-40c-.553 0-1 .448-1 1zm2 1h38v28h-38z"/><path d="m37.707 10.293c-.391-.391-1.023-.391-1.414 0l-4.293 4.293-4.293-4.293c-.391-.391-1.023-.391-1.414 0l-8.707 8.707h-2.586v2h34v-2h-2.586zm-.707 2.121 6.586 6.586h-7.172l-3-3zm-10 0 6.586 6.586h-13.172z"/><path d="m32 11c1.654 0 3-1.346 3-3s-1.346-3-3-3-3 1.346-3 3 1.346 3 3 3zm0-4c.552 0 1 .449 1 1s-.448 1-1 1-1-.449-1-1 .448-1 1-1z"/><path d="m21 23h22v2h-22z"/><path d="m27 27h10v2h-10z"/></g></svg>