<svg id="Layer_1" enable-background="new 0 0 512 512" height="512" viewBox="0 0 512 512" width="512" xmlns="http://www.w3.org/2000/svg"><g><g clip-rule="evenodd" fill-rule="evenodd"><path d="m231.249 311.163-29.961-29.962-63.073 63.042 29.991 29.963z" fill="#f5bc98"/><path d="m227.31 315.103-29.962-29.962-14.57 14.542 11.282 11.282c2.58 2.579 2.636 5.641 0 8.25l-40.422 40.422 14.57 14.57z" fill="#edaa80"/><path d="m454.566 57.856c-67.154-67.153-176.005-67.153-243.159 0s-67.154 176.034 0 243.159c67.154 67.154 176.005 67.154 243.159 0 67.153-67.125 67.153-176.006 0-243.159z" fill="#b1e4f9"/><path d="m454.566 57.856c-37.276-37.276-87.422-53.831-136.15-49.72 39.034 3.288 77.16 19.871 107.038 49.72 67.154 67.153 67.154 176.034 0 243.159-29.877 29.878-68.004 46.461-107.038 49.749 48.728 4.11 98.874-12.444 136.15-49.749 67.153-67.125 67.153-176.006 0-243.159z" fill="#90d8f9"/><path d="m173.054 369.359-29.962-29.962c-6.888-6.889-18.142-6.889-25.002 0l-104.997 104.996c-6.888 6.889-6.888 18.114 0 25.002l29.963 29.963c6.86 6.859 18.113 6.859 24.974 0l105.024-105.025c6.86-6.861 6.86-18.114 0-24.974z" fill="#d68756"/><path d="m173.054 369.359-29.962-29.962c-6.888-6.889-18.142-6.889-25.002 0l-2.069 2.069 27.893 27.893c6.889 6.86 6.889 18.113 0 24.973l-102.928 102.956 2.069 2.069c6.86 6.859 18.113 6.859 24.974 0l105.024-105.025c6.861-6.86 6.861-18.113.001-24.973z" fill="#c47443"/><path d="m141.815 425.57-54.963-54.936-42.521 42.521 54.936 54.964z" fill="#365e7d"/><path d="m332.986 108.058c56.637 0 104.628 30.444 121.41 72.625 4.535 11.424 4.563 12.813 0 24.237-16.753 42.18-64.773 72.653-121.41 72.653-56.608 0-104.6-30.416-121.381-72.568-4.564-11.452-4.592-12.841-.028-24.293 16.753-42.181 64.773-72.654 121.409-72.654z" fill="#f4fbff"/><path d="m332.986 108.058c56.637 0 104.628 30.444 121.41 72.625 4.535 11.424 4.563 12.813 0 24.237-16.753 42.18-64.773 72.653-121.41 72.653-4.932 0-9.779-.256-14.57-.681 50.203-4.706 91.589-33.449 106.868-71.972 4.535-11.424 4.535-12.813 0-24.237-15.307-38.495-56.665-67.21-106.868-71.916 4.791-.454 9.638-.709 14.57-.709z" fill="#e4f6ff"/><path d="m332.986 246.702c29.679 0 53.887-24.208 53.887-53.888 0-29.679-24.208-53.887-53.887-53.887s-53.887 24.208-53.887 53.887c.001 29.68 24.208 53.888 53.887 53.888z" fill="#95d6a4"/><path d="m332.986 138.928c29.765 0 53.887 24.123 53.887 53.887 0 29.765-24.122 53.888-53.887 53.888-5.045 0-9.921-.68-14.57-1.984 22.706-6.35 39.345-27.185 39.345-51.903s-16.639-45.525-39.345-51.903c4.649-1.277 9.525-1.985 14.57-1.985z" fill="#78c2a4"/><path d="m332.986 212.998c11.112 0 20.183-9.071 20.183-20.184 0-11.111-9.071-20.183-20.183-20.183-11.111 0-20.183 9.071-20.183 20.183 0 11.113 9.072 20.184 20.183 20.184z" fill="#365e7d"/><path d="m127.246 411.029-42.52 42.52 14.541 14.57 42.548-42.549z" fill="#2b4d66"/></g><path d="m332.986 100.574c4.592 0 9.128.199 13.607.567l2.495-20.693c.482-4.11 4.195-7.058 8.305-6.576 4.11.51 7.059 4.224 6.577 8.334l-2.523 20.863c8.504 1.531 16.697 3.713 24.52 6.492l7.002-19.305c1.417-3.883 5.697-5.896 9.581-4.479 3.884 1.389 5.897 5.698 4.479 9.581l-7.228 19.928c6.435 3.062 12.529 6.548 18.255 10.403 1.19.822 2.353 1.644 3.515 2.494l11.169-17.093c2.239-3.458 6.86-4.451 10.346-2.183 3.459 2.239 4.423 6.86 2.183 10.347l-12.047 18.453c5.868 5.415 11.112 11.283 15.647 17.576l14.457-13.947c2.977-2.863 7.711-2.778 10.573.198 2.863 2.977 2.778 7.739-.198 10.602l-16.781 16.186c3.799 7.2 6.69 14.825 8.618 22.734.312 1.276.255 2.523-.057 3.714-6.407 26.164-23.557 49.012-47.424 65.169-23.216 15.704-52.838 25.115-85.069 25.115-32.202 0-61.824-9.412-85.04-25.115-23.954-16.186-41.131-39.119-47.509-65.368-.283-1.247-.255-2.523.057-3.686 1.928-7.852 4.819-15.42 8.561-22.564l-16.781-16.186c-2.977-2.863-3.062-7.625-.199-10.602 2.864-2.977 7.598-3.061 10.574-.198l14.457 13.947c4.535-6.293 9.779-12.161 15.647-17.576l-12.047-18.453c-2.239-3.487-1.247-8.107 2.211-10.347 3.459-2.268 8.079-1.275 10.318 2.183l11.169 17.093c1.162-.85 2.325-1.672 3.544-2.494 5.697-3.855 11.792-7.342 18.227-10.403l-7.229-19.928c-1.389-3.883.596-8.192 4.479-9.581 3.883-1.417 8.192.596 9.581 4.479l7.002 19.305c7.824-2.779 16.016-4.961 24.52-6.492l-2.495-20.863c-.482-4.11 2.438-7.824 6.548-8.334 4.11-.482 7.852 2.466 8.334 6.576l2.466 20.693c4.476-.367 9.011-.566 13.603-.566zm-251.435 264.759 31.238-31.238c4.904-4.904 11.339-7.37 17.802-7.37 4.025 0 8.022.964 11.679 2.863l45.157-45.156c-22.592-31.239-33.874-68.118-33.874-104.997 0-45.922 17.518-91.844 52.555-126.88 35.035-35.036 80.957-52.555 126.878-52.555 45.922 0 91.844 17.519 126.88 52.555 14.967 14.967 26.731 31.947 35.32 50.088 8.901 18.794 14.343 38.807 16.356 59.104.396 4.11-2.608 7.767-6.718 8.164-4.11.425-7.767-2.58-8.164-6.69-1.843-18.596-6.832-36.936-14.996-54.171-7.852-16.583-18.652-32.117-32.4-45.894-32.117-32.088-74.184-48.161-116.279-48.161s-84.161 16.073-116.278 48.161c-32.117 32.117-48.161 74.212-48.161 116.279 0 42.095 16.044 84.189 48.161 116.278 32.117 32.117 74.184 48.161 116.278 48.161 42.095 0 84.162-16.044 116.279-48.161 13.748-13.748 24.548-29.311 32.4-45.865 8.164-17.235 13.153-35.575 14.996-54.17.396-4.111 4.053-7.116 8.164-6.719 4.11.425 7.115 4.083 6.718 8.193-2.013 20.296-7.455 40.309-16.356 59.074-8.59 18.17-20.353 35.15-35.32 50.089-35.037 35.065-80.958 52.583-126.88 52.583-36.879 0-73.73-11.31-104.968-33.902l-45.185 45.157c1.927 3.656 2.863 7.682 2.863 11.707 0 6.435-2.438 12.897-7.342 17.801l-31.238 31.21c-24.604 24.605-49.182 49.182-73.786 73.787-4.904 4.904-11.339 7.342-17.802 7.342-6.434 0-12.897-2.438-17.773-7.342l-29.991-29.963c-4.875-4.904-7.342-11.367-7.342-17.801 0-6.435 2.466-12.898 7.342-17.802 24.605-24.576 49.181-49.182 73.787-73.759zm-26.618 47.822 44.335 44.362 31.947-31.947-44.362-44.335zm33.732 54.964-44.363-44.362-25.909 25.938c-1.984 1.984-2.976 4.592-2.976 7.2 0 2.607.992 5.215 2.976 7.2l29.963 29.963c1.956 1.956 4.564 2.948 7.171 2.948 2.636 0 5.244-.992 7.2-2.948zm8.788-97.485 44.362 44.335 25.938-25.938c1.956-1.956 2.948-4.564 2.948-7.171 0-2.636-.992-5.244-2.948-7.2l-29.962-29.962c-1.984-1.984-4.592-2.977-7.2-2.977s-5.216.992-7.2 2.977zm118.319-54.624-9.666-9.694-9.695-9.666-42.718 42.747 19.36 19.36zm117.214-150.862c7.654 0 14.57 3.09 19.587 8.107 4.989 4.989 8.107 11.905 8.107 19.559s-3.118 14.571-8.107 19.56c-5.017 5.017-11.934 8.107-19.587 8.107-7.625 0-14.57-3.09-19.559-8.107-5.017-4.989-8.107-11.906-8.107-19.56 0-7.653 3.09-14.57 8.107-19.559 4.989-5.017 11.934-8.107 19.559-8.107zm8.958 18.709c-2.296-2.296-5.442-3.713-8.957-3.713-3.486 0-6.661 1.417-8.957 3.713s-3.714 5.471-3.714 8.957c0 3.516 1.418 6.662 3.714 8.958s5.471 3.713 8.957 3.713c3.515 0 6.662-1.417 8.957-3.713 2.296-2.296 3.713-5.443 3.713-8.958 0-3.486-1.417-6.661-3.713-8.957zm-53.065-5.499c-1.275 3.94-5.499 6.066-9.411 4.791-3.941-1.275-6.095-5.499-4.819-9.411 4.083-12.444 12.02-23.13 22.366-30.643 10.12-7.342 22.564-11.65 35.972-11.65 16.951 0 32.287 6.86 43.399 17.972s18 26.447 18 43.398c0 16.952-6.888 32.288-18 43.399-11.112 11.112-26.448 18-43.399 18-13.408 0-25.852-4.337-35.972-11.65-10.346-7.512-18.283-18.199-22.366-30.643-1.275-3.94.879-8.164 4.819-9.439 3.912-1.276 8.136.878 9.411 4.791 3.09 9.383 9.071 17.461 16.923 23.159 7.625 5.528 17.037 8.759 27.185 8.759 12.813 0 24.406-5.188 32.797-13.579 8.391-8.39 13.578-19.984 13.578-32.797s-5.188-24.406-13.578-32.797c-8.391-8.39-19.984-13.578-32.797-13.578-10.148 0-19.559 3.26-27.185 8.788-7.852 5.668-13.833 13.748-16.923 23.13zm120.786-40.224c-20.835-14.117-47.538-22.564-76.678-22.564-29.141 0-55.843 8.447-76.678 22.564-20.353 13.777-35.094 32.911-40.876 54.681 5.783 21.799 20.523 40.934 40.876 54.71 20.835 14.088 47.537 22.535 76.678 22.535s55.843-8.447 76.678-22.535c20.381-13.776 35.093-32.911 40.876-54.71-5.783-21.77-20.495-40.904-40.876-54.681z"/></g></svg>