<?xml version="1.0" encoding="UTF-8"?><svg xmlns="http://www.w3.org/2000/svg" xmlns:xlink="http://www.w3.org/1999/xlink" fill-opacity="1" color-rendering="auto" color-interpolation="auto" text-rendering="auto" stroke="black" stroke-linecap="square" width="787" stroke-miterlimit="10" shape-rendering="auto" stroke-opacity="1" fill="black" stroke-dasharray="none" font-weight="normal" stroke-width="1" height="75" font-family="'Dialog'" font-style="normal" stroke-linejoin="miter" font-size="12px" stroke-dashoffset="0" image-rendering="auto">
  <!--Generated by ySVG 2.5-->
  <defs id="genericDefs"/>
  <g>
    <defs id="defs1">
      <clipPath clipPathUnits="userSpaceOnUse" id="clipPath1">
        <path d="M0 0 L787 0 L787 75 L0 75 L0 0 Z"/>
      </clipPath>
      <clipPath clipPathUnits="userSpaceOnUse" id="clipPath2">
        <path d="M27 140 L814 140 L814 215 L27 215 L27 140 Z"/>
      </clipPath>
    </defs>
    <g fill="white" text-rendering="geometricPrecision" shape-rendering="geometricPrecision" transform="translate(-27,-140)" stroke="white">
      <rect x="27" width="787" height="75" y="140" clip-path="url(#clipPath2)" stroke="none"/>
    </g>
    <g fill="yellow" text-rendering="geometricPrecision" shape-rendering="geometricPrecision" transform="matrix(1,0,0,1,-27,-140)" stroke="yellow">
      <rect x="42.0159" y="155.4792" clip-path="url(#clipPath2)" width="91.9682" rx="4" ry="4" height="44" stroke="none"/>
    </g>
    <g font-size="16px" stroke-linecap="butt" transform="matrix(1,0,0,1,-27,-140)" text-rendering="geometricPrecision" font-family="sans-serif" shape-rendering="geometricPrecision" stroke-miterlimit="1.45">
      <text x="50.207" xml:space="preserve" y="183.7643" clip-path="url(#clipPath2)" stroke="none">prov:Entity</text>
      <rect x="42.0159" y="155.4792" clip-path="url(#clipPath2)" fill="none" width="91.9682" rx="4" ry="4" height="44"/>
    </g>
    <g fill="rgb(204,255,204)" text-rendering="geometricPrecision" shape-rendering="geometricPrecision" transform="matrix(1,0,0,1,-27,-140)" stroke="rgb(204,255,204)">
      <path d="M684.6572 155.9792 L798.1426 155.9792 L785.5331 198.9792 L672.0477 198.9792 Z" fill-rule="evenodd" clip-path="url(#clipPath2)" stroke="none"/>
    </g>
    <g font-size="16px" stroke-linecap="butt" transform="matrix(1,0,0,1,-27,-140)" text-rendering="geometricPrecision" font-family="sans-serif" shape-rendering="geometricPrecision" stroke-miterlimit="1.45">
      <text x="687.0756" xml:space="preserve" y="183.7643" clip-path="url(#clipPath2)" stroke="none">xsd:dateTime</text>
      <path fill="none" d="M684.6572 155.9792 L798.1426 155.9792 L785.5331 198.9792 L672.0477 198.9792 Z" fill-rule="evenodd" clip-path="url(#clipPath2)"/>
    </g>
    <g fill="yellow" text-rendering="geometricPrecision" shape-rendering="geometricPrecision" transform="matrix(1,0,0,1,-27,-140)" stroke="yellow">
      <rect x="357.0318" y="155.4792" clip-path="url(#clipPath2)" width="91.9682" rx="4" ry="4" height="44" stroke="none"/>
    </g>
    <g font-size="16px" stroke-linecap="butt" transform="matrix(1,0,0,1,-27,-140)" text-rendering="geometricPrecision" font-family="sans-serif" shape-rendering="geometricPrecision" stroke-miterlimit="1.45">
      <text x="368.7776" xml:space="preserve" y="183.7643" clip-path="url(#clipPath2)" stroke="none">owl:Thing</text>
      <rect x="357.0318" y="155.4792" clip-path="url(#clipPath2)" fill="none" width="91.9682" rx="4" ry="4" height="44"/>
    </g>
    <g stroke-linecap="butt" transform="matrix(1,0,0,1,-27,-140)" fill="navy" text-rendering="geometricPrecision" shape-rendering="geometricPrecision" stroke="navy" stroke-miterlimit="1.45">
      <path fill="none" d="M353.0633 177.4792 L145.0153 177.4792" clip-path="url(#clipPath2)"/>
      <path d="M361.0633 177.4792 C361.0633 179.6883 359.2724 181.4792 357.0633 181.4792 C354.8541 181.4792 353.0633 179.6883 353.0633 177.4792 C353.0633 175.27 354.8541 173.4792 357.0633 173.4792 C359.2724 173.4792 361.0633 175.27 361.0633 177.4792 Z" clip-path="url(#clipPath2)" stroke="none"/>
      <path d="M134.0153 177.4792 L146.0153 183.4792 L146.0153 171.4792 Z" clip-path="url(#clipPath2)" stroke="none"/>
      <rect x="167.9181" y="165.6784" clip-path="url(#clipPath2)" fill="white" width="155.1797" height="23.6016" stroke="none"/>
      <text x="169.9181" font-size="16px" y="183.7643" clip-path="url(#clipPath2)" font-family="sans-serif" stroke="none" xml:space="preserve">prov:wasAttributedTo</text>
      <path fill="none" d="M453.0254 177.4792 L663.3491 177.4792" clip-path="url(#clipPath2)" stroke="green"/>
    </g>
    <g stroke-linecap="butt" transform="matrix(1,0,0,1,-27,-140)" fill-opacity="0" fill="rgb(0,0,0)" text-rendering="geometricPrecision" shape-rendering="geometricPrecision" stroke="rgb(0,0,0)" stroke-opacity="0" stroke-miterlimit="1.45">
      <path d="M445.0254 177.4792 C445.0254 175.27 446.8163 173.4792 449.0254 173.4792 C451.2346 173.4792 453.0254 175.27 453.0254 177.4792 C453.0254 179.6883 451.2346 181.4792 449.0254 181.4792 C446.8163 181.4792 445.0254 179.6883 445.0254 177.4792 Z" stroke="none" clip-path="url(#clipPath2)"/>
    </g>
    <g stroke-linecap="butt" transform="matrix(1,0,0,1,-27,-140)" fill="green" text-rendering="geometricPrecision" shape-rendering="geometricPrecision" stroke="green" stroke-miterlimit="1.45">
      <path fill="none" d="M445.0254 177.4792 C445.0254 175.27 446.8163 173.4792 449.0254 173.4792 C451.2346 173.4792 453.0254 175.27 453.0254 177.4792 C453.0254 179.6883 451.2346 181.4792 449.0254 181.4792 C446.8163 181.4792 445.0254 179.6883 445.0254 177.4792 Z" clip-path="url(#clipPath2)"/>
      <path fill="white" d="M678.3491 177.4792 L662.3491 171.4792 L662.3491 183.4792 Z" clip-path="url(#clipPath2)" stroke="none"/>
      <path fill="none" d="M678.3491 177.4792 L662.3491 171.4792 L662.3491 183.4792 Z" clip-path="url(#clipPath2)"/>
      <rect x="479.3715" y="165.6784" clip-path="url(#clipPath2)" fill="white" width="162.3047" height="23.6016" stroke="none"/>
      <text x="481.3715" font-size="16px" y="183.7643" clip-path="url(#clipPath2)" font-family="sans-serif" stroke="none" xml:space="preserve">prov:generatedAtTime</text>
    </g>
  </g>
</svg>
