<?xml version="1.0" encoding="UTF-8"?><svg xmlns="http://www.w3.org/2000/svg" xmlns:xlink="http://www.w3.org/1999/xlink" fill-opacity="1" color-rendering="auto" color-interpolation="auto" text-rendering="auto" stroke="black" stroke-linecap="square" width="900" stroke-miterlimit="10" shape-rendering="auto" stroke-opacity="1" fill="black" stroke-dasharray="none" font-weight="normal" stroke-width="1" height="373" font-family="'Dialog'" font-style="normal" stroke-linejoin="miter" font-size="12px" stroke-dashoffset="0" image-rendering="auto">
  <!--Generated by ySVG 2.5-->
  <defs id="genericDefs"/>
  <g>
    <defs id="defs1">
      <clipPath clipPathUnits="userSpaceOnUse" id="clipPath1">
        <path d="M0 0 L900 0 L900 373 L0 373 L0 0 Z"/>
      </clipPath>
      <clipPath clipPathUnits="userSpaceOnUse" id="clipPath2">
        <path d="M-181 -62 L719 -62 L719 311 L-181 311 L-181 -62 Z"/>
      </clipPath>
    </defs>
    <g fill="white" text-rendering="geometricPrecision" shape-rendering="geometricPrecision" transform="translate(181,62)" stroke="white">
      <rect x="-181" width="900" height="373" y="-62" clip-path="url(#clipPath2)" stroke="none"/>
    </g>
    <g fill="yellow" text-rendering="geometricPrecision" shape-rendering="geometricPrecision" transform="matrix(1,0,0,1,181,62)" stroke="yellow">
      <rect x="170.5159" y="54" clip-path="url(#clipPath2)" width="168.9682" rx="4" ry="4" height="44" stroke="none"/>
    </g>
    <g font-size="16px" stroke-linecap="butt" transform="matrix(1,0,0,1,181,62)" text-rendering="geometricPrecision" font-family="sans-serif" shape-rendering="geometricPrecision" stroke-miterlimit="1.45">
      <text x="179.4023" xml:space="preserve" y="82.2852" clip-path="url(#clipPath2)" stroke="none">hico:InterpretationAct</text>
      <rect x="170.5159" y="54" clip-path="url(#clipPath2)" fill="none" width="168.9682" rx="4" ry="4" height="44"/>
    </g>
    <g fill="yellow" text-rendering="geometricPrecision" shape-rendering="geometricPrecision" transform="matrix(1,0,0,1,181,62)" stroke="yellow">
      <rect x="439.8459" y="182" clip-path="url(#clipPath2)" width="183.828" rx="4" ry="4" height="44" stroke="none"/>
    </g>
    <g font-size="16px" stroke-linecap="butt" transform="matrix(1,0,0,1,181,62)" text-rendering="geometricPrecision" font-family="sans-serif" shape-rendering="geometricPrecision" stroke-miterlimit="1.45">
      <text x="449.9357" xml:space="preserve" y="210.2852" clip-path="url(#clipPath2)" stroke="none">hico:InterpretationType</text>
      <rect x="439.8459" y="182" clip-path="url(#clipPath2)" fill="none" width="183.828" rx="4" ry="4" height="44"/>
    </g>
    <g fill="yellow" text-rendering="geometricPrecision" shape-rendering="geometricPrecision" transform="matrix(1,0,0,1,181,62)" stroke="yellow">
      <rect x="-165.3461" y="54" clip-path="url(#clipPath2)" width="125.3016" rx="4" ry="4" height="44" stroke="none"/>
    </g>
    <g font-size="16px" stroke-linecap="butt" transform="matrix(1,0,0,1,181,62)" text-rendering="geometricPrecision" font-family="sans-serif" shape-rendering="geometricPrecision" stroke-miterlimit="1.45">
      <text x="-161.8399" xml:space="preserve" y="82.2852" clip-path="url(#clipPath2)" stroke="none">fabio:Expression</text>
      <rect x="-165.3461" y="54" clip-path="url(#clipPath2)" fill="none" width="125.3016" rx="4" ry="4" height="44"/>
    </g>
    <g fill="yellow" text-rendering="geometricPrecision" shape-rendering="geometricPrecision" transform="matrix(1,0,0,1,181,62)" stroke="yellow">
      <rect x="153.2379" y="251.2951" clip-path="url(#clipPath2)" width="203.5243" rx="4" ry="4" height="44" stroke="none"/>
    </g>
    <g font-size="16px" stroke-linecap="butt" transform="matrix(1,0,0,1,181,62)" text-rendering="geometricPrecision" font-family="sans-serif" shape-rendering="geometricPrecision" stroke-miterlimit="1.45">
      <text x="160.7305" xml:space="preserve" y="279.5802" clip-path="url(#clipPath2)" stroke="none">hico:InterpretationCriterion</text>
      <rect x="153.2379" y="251.2951" clip-path="url(#clipPath2)" fill="none" width="203.5243" rx="4" ry="4" height="44"/>
    </g>
    <g fill="yellow" text-rendering="geometricPrecision" shape-rendering="geometricPrecision" transform="matrix(1,0,0,1,181,62)" stroke="yellow">
      <rect x="577.9008" y="54" clip-path="url(#clipPath2)" width="125.3016" rx="4" ry="4" height="44" stroke="none"/>
    </g>
    <g font-size="16px" stroke-linecap="butt" transform="matrix(1,0,0,1,181,62)" text-rendering="geometricPrecision" font-family="sans-serif" shape-rendering="geometricPrecision" stroke-miterlimit="1.45">
      <text x="589.8758" xml:space="preserve" y="82.2852" clip-path="url(#clipPath2)" stroke="none">cwrc:Certainty</text>
      <rect x="577.9008" y="54" clip-path="url(#clipPath2)" fill="none" width="125.3016" rx="4" ry="4" height="44"/>
    </g>
    <g fill="yellow" text-rendering="geometricPrecision" shape-rendering="geometricPrecision" transform="matrix(1,0,0,1,181,62)" stroke="yellow">
      <rect x="497.5835" y="-46.3651" clip-path="url(#clipPath2)" width="100.833" rx="4" ry="4" height="44" stroke="none"/>
    </g>
    <g font-size="16px" stroke-linecap="butt" transform="matrix(1,0,0,1,181,62)" text-rendering="geometricPrecision" font-family="sans-serif" shape-rendering="geometricPrecision" stroke-miterlimit="1.45">
      <text x="513.7617" xml:space="preserve" y="-18.0799" clip-path="url(#clipPath2)" stroke="none">owl:Thing</text>
      <rect x="497.5835" y="-46.3651" clip-path="url(#clipPath2)" fill="none" width="100.833" rx="4" ry="4" height="44"/>
    </g>
    <g fill="rgb(204,255,204)" text-rendering="geometricPrecision" shape-rendering="geometricPrecision" transform="matrix(1,0,0,1,181,62)" stroke="rgb(204,255,204)">
      <path d="M-66.52 182.5 L46.9655 182.5 L34.356 225.5 L-79.1294 225.5 Z" fill-rule="evenodd" clip-path="url(#clipPath2)" stroke="none"/>
    </g>
    <g font-size="16px" stroke-linecap="butt" transform="matrix(1,0,0,1,181,62)" text-rendering="geometricPrecision" font-family="sans-serif" shape-rendering="geometricPrecision" stroke-miterlimit="1.45">
      <text x="-64.1015" xml:space="preserve" y="210.2852" clip-path="url(#clipPath2)" stroke="none">xsd:dateTime</text>
      <path fill="none" d="M-66.52 182.5 L46.9655 182.5 L34.356 225.5 L-79.1294 225.5 Z" fill-rule="evenodd" clip-path="url(#clipPath2)"/>
    </g>
    <g stroke-linecap="butt" transform="matrix(1,0,0,1,181,62)" fill="navy" text-rendering="geometricPrecision" shape-rendering="geometricPrecision" stroke="navy" stroke-miterlimit="1.45">
      <path fill="none" d="M292.946 50.4717 L292.9893 50.3817 L294.1567 47.1921 L295.167 43.2629 L295.7883 39.192 L296 35 L295.7883 30.808 L295.167 26.7371 L294.1567 22.8079 L292.778 19.0409 L291.0515 15.457 L288.9978 12.0765 L286.6376 8.9202 L283.9914 6.0086 L281.0798 3.3624 L277.9235 1.0022 L274.543 -1.0515 L270.959 -2.778 L267.1921 -4.1567 L263.2629 -5.167 L259.192 -5.7883 L255 -6 L250.808 -5.7883 L246.7371 -5.167 L242.8079 -4.1567 L239.041 -2.778 L235.457 -1.0515 L232.0765 1.0022 L228.9202 3.3624 L226.0086 6.0086 L223.3624 8.9202 L221.0022 12.0765 L218.9485 15.457 L217.222 19.0409 L215.8433 22.8079 L214.833 26.7371 L214.2117 30.808 L214 35 L214.2117 39.192 L214.833 43.2629 L214.938 43.6715 L214.9766 43.7638" clip-path="url(#clipPath2)"/>
      <path d="M289.5857 57.7318 C287.5808 56.8039 286.7079 54.4264 287.6358 52.4216 C288.5637 50.4168 290.9412 49.5438 292.946 50.4717 C294.9508 51.3997 295.8238 53.7771 294.8958 55.7819 C293.9679 57.7867 291.5905 58.6597 289.5857 57.7318 Z" clip-path="url(#clipPath2)" stroke="none"/>
      <path d="M218.7262 54.1049 L220.2763 40.7784 L208.9951 44.8689 Z" clip-path="url(#clipPath2)" stroke="none"/>
      <rect x="221.8789" y="7.6367" clip-path="url(#clipPath2)" fill="white" width="66.2422" height="23.6016" stroke="none"/>
      <text x="223.8789" font-size="16px" y="25.7227" clip-path="url(#clipPath2)" font-family="sans-serif" stroke="none" xml:space="preserve">cito:cites</text>
      <path fill="none" d="M306.1648 99.6635 L474.2352 177.3951" clip-path="url(#clipPath2)"/>
      <path d="M298.9038 96.3053 C299.8311 94.3002 302.2083 93.4265 304.2134 94.3539 C306.2185 95.2812 307.0922 97.6584 306.1648 99.6635 C305.2375 101.6685 302.8603 102.5422 300.8552 101.6149 C298.8501 100.6875 297.9764 98.3103 298.9038 96.3053 Z" clip-path="url(#clipPath2)" stroke="none"/>
      <path d="M484.2191 182.0126 L475.8462 171.5296 L470.8089 182.4211 Z" clip-path="url(#clipPath2)" stroke="none"/>
      <rect x="296.6573" y="128.1992" clip-path="url(#clipPath2)" fill="white" width="193.4453" height="23.6016" stroke="none"/>
      <text x="298.6573" font-size="16px" y="146.2852" clip-path="url(#clipPath2)" font-family="sans-serif" stroke="none" xml:space="preserve">hico:hasInterpretationType</text>
      <path fill="none" d="M166.5102 76 L-29.0302 76" clip-path="url(#clipPath2)"/>
      <path d="M174.5102 76 C174.5102 78.2091 172.7193 80 170.5102 80 C168.3011 80 166.5102 78.2091 166.5102 76 C166.5102 73.7909 168.3011 72 170.5102 72 C172.7193 72 174.5102 73.7909 174.5102 76 Z" clip-path="url(#clipPath2)" stroke="none"/>
      <path d="M-40.0302 76 L-28.0302 82 L-28.0302 70 Z" clip-path="url(#clipPath2)" stroke="none"/>
      <rect x="-11.8972" y="64.1992" clip-path="url(#clipPath2)" fill="white" width="154.2656" height="23.6016" stroke="none"/>
      <text x="-9.8972" font-size="16px" y="82.2852" clip-path="url(#clipPath2)" font-family="sans-serif" stroke="none" xml:space="preserve">hico:isExtractedFrom</text>
      <path fill="none" d="M255 102.0127 L255 240.2564" clip-path="url(#clipPath2)"/>
      <path d="M255 94.0127 C257.2091 94.0127 259 95.8035 259 98.0127 C259 100.2218 257.2091 102.0127 255 102.0127 C252.7909 102.0127 251 100.2218 251 98.0127 C251 95.8035 252.7909 94.0127 255 94.0127 Z" clip-path="url(#clipPath2)" stroke="none"/>
      <path d="M255 251.2564 L261 239.2564 L249 239.2564 Z" clip-path="url(#clipPath2)" stroke="none"/>
      <rect x="145.832" y="162.8468" clip-path="url(#clipPath2)" fill="white" width="218.3359" height="23.6016" stroke="none"/>
      <text x="147.832" font-size="16px" y="180.9327" clip-path="url(#clipPath2)" font-family="sans-serif" stroke="none" xml:space="preserve">hico:hasInterpretationCriterion</text>
      <path fill="none" d="M343.4806 76 L566.8897 76" clip-path="url(#clipPath2)"/>
      <path d="M335.4806 76 C335.4806 73.7909 337.2715 72 339.4806 72 C341.6897 72 343.4806 73.7909 343.4806 76 C343.4806 78.2091 341.6897 80 339.4806 80 C337.2715 80 335.4806 78.2091 335.4806 76 Z" clip-path="url(#clipPath2)" stroke="none"/>
      <path d="M577.8897 76 L565.8897 70 L565.8897 82 Z" clip-path="url(#clipPath2)" stroke="none"/>
      <rect x="393.1182" y="64.1992" clip-path="url(#clipPath2)" fill="white" width="131.1484" height="23.6016" stroke="none"/>
      <text x="395.1182" font-size="16px" y="82.2852" clip-path="url(#clipPath2)" font-family="sans-serif" stroke="none" xml:space="preserve">cwrc:hasCertainty</text>
      <path fill="none" d="M493.5728 -24.3651 L463 -24.3651 L310.4832 49.228" clip-path="url(#clipPath2)"/>
      <path d="M501.5728 -24.3651 C501.5728 -22.156 499.7819 -20.3651 497.5728 -20.3651 C495.3636 -20.3651 493.5728 -22.156 493.5728 -24.3651 C493.5728 -26.5742 495.3636 -28.3651 497.5728 -28.3651 C499.7819 -28.3651 501.5728 -26.5742 501.5728 -24.3651 Z" clip-path="url(#clipPath2)" stroke="none"/>
      <path d="M300.5762 54.0084 L313.9912 54.1973 L308.7763 43.3896 Z" clip-path="url(#clipPath2)" stroke="none"/>
      <rect x="310.0999" y="-1.5458" clip-path="url(#clipPath2)" fill="white" width="162.3047" height="23.6016" stroke="none"/>
      <text x="312.0999" font-size="16px" y="16.5401" clip-path="url(#clipPath2)" font-family="sans-serif" stroke="none" xml:space="preserve">prov:wasGeneratedBy</text>
      <path fill="none" d="M204.8238 99.6923 L43.006 176.0997" clip-path="url(#clipPath2)" stroke="green"/>
    </g>
    <g stroke-linecap="butt" transform="matrix(1,0,0,1,181,62)" fill-opacity="0" fill="rgb(0,0,0)" text-rendering="geometricPrecision" shape-rendering="geometricPrecision" stroke="rgb(0,0,0)" stroke-opacity="0" stroke-miterlimit="1.45">
      <path d="M212.0579 96.2765 C213.0012 98.2741 212.1464 100.6582 210.1488 101.6014 C208.1511 102.5447 205.7671 101.6899 204.8238 99.6923 C203.8806 97.6946 204.7353 95.3106 206.733 94.3673 C208.7306 93.4241 211.1147 94.2788 212.0579 96.2765 Z" stroke="none" clip-path="url(#clipPath2)"/>
    </g>
    <g stroke-linecap="butt" transform="matrix(1,0,0,1,181,62)" fill="green" text-rendering="geometricPrecision" shape-rendering="geometricPrecision" stroke="green" stroke-miterlimit="1.45">
      <path fill="none" d="M212.0579 96.2765 C213.0012 98.2741 212.1464 100.6582 210.1488 101.6014 C208.1511 102.5447 205.7671 101.6899 204.8238 99.6923 C203.8806 97.6946 204.7353 95.3106 206.733 94.3673 C208.7306 93.4241 211.1147 94.2788 212.0579 96.2765 Z" clip-path="url(#clipPath2)"/>
      <path fill="white" d="M29.442 182.5044 L46.4721 181.0983 L41.3484 170.2472 Z" clip-path="url(#clipPath2)" stroke="none"/>
      <path fill="none" d="M29.442 182.5044 L46.4721 181.0983 L41.3484 170.2472 Z" clip-path="url(#clipPath2)"/>
      <rect x="49.3514" y="128.4492" clip-path="url(#clipPath2)" fill="white" width="139.1562" height="23.6016" stroke="none"/>
      <text x="51.3514" font-size="16px" y="146.5352" clip-path="url(#clipPath2)" font-family="sans-serif" stroke="none" xml:space="preserve">prov:startedAtTime</text>
    </g>
  </g>
</svg>
