<?xml version="1.0" encoding="UTF-8"?><svg xmlns="http://www.w3.org/2000/svg" xmlns:xlink="http://www.w3.org/1999/xlink" fill-opacity="1" color-rendering="auto" color-interpolation="auto" text-rendering="auto" stroke="black" stroke-linecap="square" width="1224" stroke-miterlimit="10" shape-rendering="auto" stroke-opacity="1" fill="black" stroke-dasharray="none" font-weight="normal" stroke-width="1" height="738" font-family="'Dialog'" font-style="normal" stroke-linejoin="miter" font-size="12px" stroke-dashoffset="0" image-rendering="auto">
  <!--Generated by ySVG 2.5-->
  <defs id="genericDefs"/>
  <g>
    <defs id="defs1">
      <clipPath clipPathUnits="userSpaceOnUse" id="clipPath1">
        <path d="M0 0 L1224 0 L1224 738 L0 738 L0 0 Z"/>
      </clipPath>
      <clipPath clipPathUnits="userSpaceOnUse" id="clipPath2">
        <path d="M197 12 L1421 12 L1421 750 L197 750 L197 12 Z"/>
      </clipPath>
    </defs>
    <g fill="white" text-rendering="geometricPrecision" shape-rendering="geometricPrecision" transform="translate(-197,-12)" stroke="white">
      <rect x="197" width="1224" height="738" y="12" clip-path="url(#clipPath2)" stroke="none"/>
    </g>
    <g fill="yellow" text-rendering="geometricPrecision" shape-rendering="geometricPrecision" transform="matrix(1,0,0,1,-197,-12)" stroke="yellow">
      <rect x="650.4622" y="542.1576" clip-path="url(#clipPath2)" width="197.1364" rx="4" ry="4" height="44" stroke="none"/>
    </g>
    <g font-size="16px" stroke-linecap="butt" transform="matrix(1,0,0,1,-197,-12)" text-rendering="geometricPrecision" font-family="sans-serif" shape-rendering="geometricPrecision" stroke-miterlimit="1.45">
      <text x="667.2062" xml:space="preserve" y="570.4427" clip-path="url(#clipPath2)" stroke="none">hucit:CanonicalCitation</text>
      <rect x="650.4622" y="542.1576" clip-path="url(#clipPath2)" fill="none" width="197.1364" rx="4" ry="4" height="44"/>
    </g>
    <g fill="yellow" text-rendering="geometricPrecision" shape-rendering="geometricPrecision" transform="matrix(1,0,0,1,-197,-12)" stroke="yellow">
      <rect x="1261.0951" y="542.1576" clip-path="url(#clipPath2)" width="143.9682" rx="4" ry="4" height="44" stroke="none"/>
    </g>
    <g font-size="16px" stroke-linecap="butt" transform="matrix(1,0,0,1,-197,-12)" text-rendering="geometricPrecision" font-family="sans-serif" shape-rendering="geometricPrecision" stroke-miterlimit="1.45">
      <text x="1269.0519" xml:space="preserve" y="570.4427" clip-path="url(#clipPath2)" stroke="none">hucit:TextElement</text>
      <rect x="1261.0951" y="542.1576" clip-path="url(#clipPath2)" fill="none" width="143.9682" rx="4" ry="4" height="44"/>
    </g>
    <g fill="yellow" text-rendering="geometricPrecision" shape-rendering="geometricPrecision" transform="matrix(1,0,0,1,-197,-12)" stroke="yellow">
      <rect x="696.6304" y="27.6302" clip-path="url(#clipPath2)" width="150.9682" rx="4" ry="4" height="44" stroke="none"/>
    </g>
    <g font-size="16px" stroke-linecap="butt" transform="matrix(1,0,0,1,-197,-12)" text-rendering="geometricPrecision" font-family="sans-serif" shape-rendering="geometricPrecision" stroke-miterlimit="1.45">
      <text x="704.9778" xml:space="preserve" y="55.9154" clip-path="url(#clipPath2)" stroke="none">hucit:TextStructure</text>
      <rect x="696.6304" y="27.6302" clip-path="url(#clipPath2)" fill="none" width="150.9682" rx="4" ry="4" height="44"/>
    </g>
    <g fill="yellow" text-rendering="geometricPrecision" shape-rendering="geometricPrecision" transform="matrix(1,0,0,1,-197,-12)" stroke="yellow">
      <rect x="342.8156" y="27.6302" clip-path="url(#clipPath2)" width="81.9682" rx="4" ry="4" height="44" stroke="none"/>
    </g>
    <g font-size="16px" stroke-linecap="butt" transform="matrix(1,0,0,1,-197,-12)" text-rendering="geometricPrecision" font-family="sans-serif" shape-rendering="geometricPrecision" stroke-miterlimit="1.45">
      <text x="346.0146" xml:space="preserve" y="55.9154" clip-path="url(#clipPath2)" stroke="none">hucit:Work</text>
      <rect x="342.8156" y="27.6302" clip-path="url(#clipPath2)" fill="none" width="81.9682" rx="4" ry="4" height="44"/>
    </g>
    <g fill="yellow" text-rendering="geometricPrecision" shape-rendering="geometricPrecision" transform="matrix(1,0,0,1,-197,-12)" stroke="yellow">
      <rect x="662.0463" y="441.6302" clip-path="url(#clipPath2)" width="173.9682" rx="4" ry="4" height="44" stroke="none"/>
    </g>
    <g font-size="16px" stroke-linecap="butt" transform="matrix(1,0,0,1,-197,-12)" text-rendering="geometricPrecision" font-family="sans-serif" shape-rendering="geometricPrecision" stroke-miterlimit="1.45">
      <text x="679.6632" xml:space="preserve" y="469.9154" clip-path="url(#clipPath2)" stroke="none">ecrm:E42_Identifier</text>
      <rect x="662.0463" y="441.6302" clip-path="url(#clipPath2)" fill="none" width="173.9682" rx="4" ry="4" height="44"/>
    </g>
    <g fill="yellow" text-rendering="geometricPrecision" shape-rendering="geometricPrecision" transform="matrix(1,0,0,1,-197,-12)" stroke="yellow">
      <rect x="685.0463" y="302.0814" clip-path="url(#clipPath2)" width="127.9682" rx="4" ry="4" height="44" stroke="none"/>
    </g>
    <g font-size="16px" stroke-linecap="butt" transform="matrix(1,0,0,1,-197,-12)" text-rendering="geometricPrecision" font-family="sans-serif" shape-rendering="geometricPrecision" stroke-miterlimit="1.45">
      <text x="692.5616" xml:space="preserve" y="330.3665" clip-path="url(#clipPath2)" stroke="none">ecrm:P55_Type</text>
      <rect x="685.0463" y="302.0814" clip-path="url(#clipPath2)" fill="none" width="127.9682" rx="4" ry="4" height="44"/>
    </g>
    <g fill="rgb(255,153,204)" text-rendering="geometricPrecision" shape-rendering="geometricPrecision" transform="matrix(1,0,0,1,-197,-12)" stroke="rgb(255,153,204)">
      <circle r="10" clip-path="url(#clipPath2)" cx="300.0986" cy="512.1276" stroke="none"/>
    </g>
    <g font-size="16px" stroke-linecap="butt" transform="matrix(1,0,0,1,-197,-12)" text-rendering="geometricPrecision" font-family="sans-serif" shape-rendering="geometricPrecision" stroke-miterlimit="1.45">
      <text x="214.7549" xml:space="preserve" y="518.4128" clip-path="url(#clipPath2)" stroke="none">myth-cit:1</text>
      <circle fill="none" stroke-width="3" r="10" clip-path="url(#clipPath2)" cx="300.0986" cy="512.1276"/>
      <text x="245.2549" xml:space="preserve" y="569.763" clip-path="url(#clipPath2)" stroke="none">"Eneide, IV, 362-392"^^xsd:string</text>
    </g>
    <g fill="rgb(255,153,204)" text-rendering="geometricPrecision" shape-rendering="geometricPrecision" transform="matrix(1,0,0,1,-197,-12)" stroke="rgb(255,153,204)">
      <circle r="10" clip-path="url(#clipPath2)" cx="1182.2462" cy="652.7201" stroke="none"/>
    </g>
    <g font-size="16px" stroke-linecap="butt" transform="matrix(1,0,0,1,-197,-12)" text-rendering="geometricPrecision" font-family="sans-serif" shape-rendering="geometricPrecision" stroke-miterlimit="1.45">
      <text x="1024.8634" xml:space="preserve" y="659.0052" clip-path="url(#clipPath2)" stroke="none">myth-str:IV-362-392</text>
      <circle fill="none" stroke-width="3" r="10" clip-path="url(#clipPath2)" cx="1182.2462" cy="652.7201"/>
    </g>
    <g fill="rgb(255,153,204)" text-rendering="geometricPrecision" shape-rendering="geometricPrecision" transform="matrix(1,0,0,1,-197,-12)" stroke="rgb(255,153,204)">
      <circle r="10" clip-path="url(#clipPath2)" cx="1182.2462" cy="702.7201" stroke="none"/>
    </g>
    <g font-size="16px" stroke-linecap="butt" transform="matrix(1,0,0,1,-197,-12)" text-rendering="geometricPrecision" font-family="sans-serif" shape-rendering="geometricPrecision" stroke-miterlimit="1.45">
      <text x="929.215" xml:space="preserve" y="689.4036" clip-path="url(#clipPath2)" stroke="none">&lt;http://data.perseus.org/citations/</text>
      <text x="939.2111" xml:space="preserve" y="709.0052" clip-path="url(#clipPath2)" stroke="none">urn:cts:latinLit:phi0690.phi003.</text>
      <text x="949.2111" xml:space="preserve" y="728.6068" clip-path="url(#clipPath2)" stroke="none">perseus-eng1:4.362-4.392&gt;</text>
      <circle fill="none" stroke-width="3" r="10" clip-path="url(#clipPath2)" cx="1182.2462" cy="702.7201"/>
    </g>
    <g fill="yellow" text-rendering="geometricPrecision" shape-rendering="geometricPrecision" transform="matrix(1,0,0,1,-197,-12)" stroke="yellow">
      <rect x="213.1145" y="329.4076" clip-path="url(#clipPath2)" width="173.9682" rx="4" ry="4" height="44" stroke="none"/>
    </g>
    <g font-size="16px" stroke-linecap="butt" transform="matrix(1,0,0,1,-197,-12)" text-rendering="geometricPrecision" font-family="sans-serif" shape-rendering="geometricPrecision" stroke-miterlimit="1.45">
      <text x="223.1884" xml:space="preserve" y="357.6927" clip-path="url(#clipPath2)" stroke="none">ecrm:E1_CRM_Entity</text>
      <rect x="213.1145" y="329.4076" clip-path="url(#clipPath2)" fill="none" width="173.9682" rx="4" ry="4" height="44"/>
    </g>
    <g fill="rgb(255,153,204)" text-rendering="geometricPrecision" shape-rendering="geometricPrecision" transform="matrix(1,0,0,1,-197,-12)" stroke="rgb(255,153,204)">
      <circle r="10" clip-path="url(#clipPath2)" cx="300.0986" cy="427.1927" stroke="none"/>
    </g>
    <g font-size="16px" stroke-linecap="butt" transform="matrix(1,0,0,1,-197,-12)" text-rendering="geometricPrecision" font-family="sans-serif" shape-rendering="geometricPrecision" stroke-miterlimit="1.45">
      <text x="316.0986" xml:space="preserve" y="433.4779" clip-path="url(#clipPath2)" stroke="none">myth-categ:enea-abbandona-didone</text>
      <circle fill="none" stroke-width="3" r="10" clip-path="url(#clipPath2)" cx="300.0986" cy="427.1927"/>
    </g>
    <g fill="rgb(255,153,204)" text-rendering="geometricPrecision" shape-rendering="geometricPrecision" transform="matrix(1,0,0,1,-197,-12)" stroke="rgb(255,153,204)">
      <circle r="10" clip-path="url(#clipPath2)" cx="965.6837" cy="463.6302" stroke="none"/>
    </g>
    <g font-size="16px" stroke-linecap="butt" transform="matrix(1,0,0,1,-197,-12)" text-rendering="geometricPrecision" font-family="sans-serif" shape-rendering="geometricPrecision" stroke-miterlimit="1.45">
      <text x="981.6837" xml:space="preserve" y="460.1146" clip-path="url(#clipPath2)" stroke="none">myth:urn:cts:latinLit:phi0690.</text>
      <text x="1014.5665" xml:space="preserve" y="479.7162" clip-path="url(#clipPath2)" stroke="none">phi003:4.362-4.392</text>
      <circle fill="none" stroke-width="3" r="10" clip-path="url(#clipPath2)" cx="965.6837" cy="463.6302"/>
    </g>
    <g fill="rgb(255,153,204)" text-rendering="geometricPrecision" shape-rendering="geometricPrecision" transform="matrix(1,0,0,1,-197,-12)" stroke="rgb(255,153,204)">
      <circle r="10" clip-path="url(#clipPath2)" cx="749.0304" cy="401.6302" stroke="none"/>
    </g>
    <g font-size="16px" stroke-linecap="butt" transform="matrix(1,0,0,1,-197,-12)" text-rendering="geometricPrecision" font-family="sans-serif" shape-rendering="geometricPrecision" stroke-miterlimit="1.45">
      <text x="621.921" xml:space="preserve" y="407.9154" clip-path="url(#clipPath2)" stroke="none">myth:URN-CTS</text>
      <circle fill="none" stroke-width="3" r="10" clip-path="url(#clipPath2)" cx="749.0304" cy="401.6302"/>
    </g>
    <g fill="rgb(255,153,204)" text-rendering="geometricPrecision" shape-rendering="geometricPrecision" transform="matrix(1,0,0,1,-197,-12)" stroke="rgb(255,153,204)">
      <circle r="10" clip-path="url(#clipPath2)" cx="632.9815" cy="49.6302" stroke="none"/>
    </g>
    <g font-size="16px" stroke-linecap="butt" transform="matrix(1,0,0,1,-197,-12)" text-rendering="geometricPrecision" font-family="sans-serif" shape-rendering="geometricPrecision" stroke-miterlimit="1.45">
      <text x="469.3956" xml:space="preserve" y="55.9154" clip-path="url(#clipPath2)" stroke="none">myth-str:virgil-aeneis</text>
      <circle fill="none" stroke-width="3" r="10" clip-path="url(#clipPath2)" cx="632.9815" cy="49.6302"/>
    </g>
    <g fill="rgb(255,153,204)" text-rendering="geometricPrecision" shape-rendering="geometricPrecision" transform="matrix(1,0,0,1,-197,-12)" stroke="rgb(255,153,204)">
      <circle r="10" clip-path="url(#clipPath2)" cx="494.9895" cy="152.625" stroke="none"/>
    </g>
    <g font-size="16px" stroke-linecap="butt" transform="matrix(1,0,0,1,-197,-12)" text-rendering="geometricPrecision" font-family="sans-serif" shape-rendering="geometricPrecision" stroke-miterlimit="1.45">
      <text x="510.9895" xml:space="preserve" y="158.9102" clip-path="url(#clipPath2)" stroke="none">myth-work:virgil-aeneis</text>
      <circle fill="none" stroke-width="3" r="10" clip-path="url(#clipPath2)" cx="494.9895" cy="152.625"/>
    </g>
    <g fill="rgb(255,153,204)" text-rendering="geometricPrecision" shape-rendering="geometricPrecision" transform="matrix(1,0,0,1,-197,-12)" stroke="rgb(255,153,204)">
      <circle r="10" clip-path="url(#clipPath2)" cx="494.9895" cy="339.4076" stroke="none"/>
    </g>
    <g font-size="16px" stroke-linecap="butt" transform="matrix(1,0,0,1,-197,-12)" text-rendering="geometricPrecision" font-family="sans-serif" shape-rendering="geometricPrecision" stroke-miterlimit="1.45">
      <text x="510.9895" xml:space="preserve" y="335.8919" clip-path="url(#clipPath2)" stroke="none">myth:urn:cts:latinLit:</text>
      <text x="527.4075" xml:space="preserve" y="355.4935" clip-path="url(#clipPath2)" stroke="none">phi0690.phi003</text>
      <circle fill="none" stroke-width="3" r="10" clip-path="url(#clipPath2)" cx="494.9895" cy="339.4076"/>
    </g>
    <g fill="rgb(255,153,204)" text-rendering="geometricPrecision" shape-rendering="geometricPrecision" transform="matrix(1,0,0,1,-197,-12)" stroke="rgb(255,153,204)">
      <circle r="10" clip-path="url(#clipPath2)" cx="757.6304" cy="188.8177" stroke="none"/>
    </g>
    <g font-size="16px" stroke-linecap="butt" transform="matrix(1,0,0,1,-197,-12)" text-rendering="geometricPrecision" font-family="sans-serif" shape-rendering="geometricPrecision" stroke-miterlimit="1.45">
      <text x="773.6304" xml:space="preserve" y="195.1029" clip-path="url(#clipPath2)" stroke="none">&lt;http://data.perseus.org/texts/urn:cts:latinLit:phi0690.phi003&gt;</text>
      <circle fill="none" stroke-width="3" r="10" clip-path="url(#clipPath2)" cx="757.6304" cy="188.8177"/>
    </g>
    <g fill="rgb(255,153,204)" text-rendering="geometricPrecision" shape-rendering="geometricPrecision" transform="matrix(1,0,0,1,-197,-12)" stroke="rgb(255,153,204)">
      <circle r="10" clip-path="url(#clipPath2)" cx="757.6304" cy="263.4427" stroke="none"/>
    </g>
    <g font-size="16px" stroke-linecap="butt" transform="matrix(1,0,0,1,-197,-12)" text-rendering="geometricPrecision" font-family="sans-serif" shape-rendering="geometricPrecision" stroke-miterlimit="1.45">
      <text x="773.6304" xml:space="preserve" y="269.7279" clip-path="url(#clipPath2)" stroke="none">"Virgil. | Aeneis"^^xsd:string</text>
      <circle fill="none" stroke-width="3" r="10" clip-path="url(#clipPath2)" cx="757.6304" cy="263.4427"/>
    </g>
    <g fill="rgb(255,153,204)" text-rendering="geometricPrecision" shape-rendering="geometricPrecision" transform="matrix(1,0,0,1,-197,-12)" stroke="rgb(255,153,204)">
      <circle r="10" clip-path="url(#clipPath2)" cx="757.6304" cy="226.1302" stroke="none"/>
    </g>
    <g font-size="16px" stroke-linecap="butt" transform="matrix(1,0,0,1,-197,-12)" text-rendering="geometricPrecision" font-family="sans-serif" shape-rendering="geometricPrecision" stroke-miterlimit="1.45">
      <text x="773.6304" xml:space="preserve" y="232.4154" clip-path="url(#clipPath2)" stroke="none">&lt;http://viaf.org/viaf/313680866&gt;</text>
      <circle fill="none" stroke-width="3" r="10" clip-path="url(#clipPath2)" cx="757.6304" cy="226.1302"/>
    </g>
    <g stroke-linecap="butt" transform="matrix(1,0,0,1,-197,-12)" fill="navy" text-rendering="geometricPrecision" shape-rendering="geometricPrecision" stroke="navy" stroke-miterlimit="1.45">
      <path fill="none" d="M851.5958 564.1575 L1250.1041 564.1575" clip-path="url(#clipPath2)"/>
      <path d="M843.5958 564.1575 C843.5958 561.9484 845.3866 560.1575 847.5958 560.1575 C849.8049 560.1575 851.5958 561.9484 851.5958 564.1575 C851.5958 566.3667 849.8049 568.1575 847.5958 568.1575 C845.3866 568.1575 843.5958 566.3667 843.5958 564.1575 Z" clip-path="url(#clipPath2)" stroke="none"/>
      <path d="M1261.1041 564.1575 L1249.1041 558.1575 L1249.1041 570.1575 Z" clip-path="url(#clipPath2)" stroke="none"/>
      <rect x="989.6359" y="552.3568" clip-path="url(#clipPath2)" fill="white" width="129.4219" height="23.6016" stroke="none"/>
      <text x="991.6359" font-size="16px" y="570.4427" clip-path="url(#clipPath2)" font-family="sans-serif" stroke="none" xml:space="preserve">hucit:has_content</text>
      <path fill="none" d="M310.0974 512.8347 L585.5 512.8347 L671.3301 539.7719" clip-path="url(#clipPath2)" stroke="black"/>
      <path fill="black" d="M678.9631 542.1674 L669.0109 533.8035 L670.376 539.4724 L666.0165 543.3447 Z" clip-path="url(#clipPath2)" stroke="none"/>
      <path fill="none" d="M487.5361 564.1575 L635.4747 564.1575" clip-path="url(#clipPath2)" stroke="green"/>
    </g>
    <g stroke-linecap="butt" transform="matrix(1,0,0,1,-197,-12)" fill-opacity="0" fill="rgb(0,0,0)" text-rendering="geometricPrecision" shape-rendering="geometricPrecision" stroke="rgb(0,0,0)" stroke-opacity="0" stroke-miterlimit="1.45">
      <path d="M479.5361 564.1575 C479.5361 561.9484 481.327 560.1575 483.5361 560.1575 C485.7452 560.1575 487.5361 561.9484 487.5361 564.1575 C487.5361 566.3667 485.7452 568.1575 483.5361 568.1575 C481.327 568.1575 479.5361 566.3667 479.5361 564.1575 Z" stroke="none" clip-path="url(#clipPath2)"/>
    </g>
    <g stroke-linecap="butt" transform="matrix(1,0,0,1,-197,-12)" fill="green" text-rendering="geometricPrecision" shape-rendering="geometricPrecision" stroke="green" stroke-miterlimit="1.45">
      <path fill="none" d="M479.5361 564.1575 C479.5361 561.9484 481.327 560.1575 483.5361 560.1575 C485.7452 560.1575 487.5361 561.9484 487.5361 564.1575 C487.5361 566.3667 485.7452 568.1575 483.5361 568.1575 C481.327 568.1575 479.5361 566.3667 479.5361 564.1575 Z" clip-path="url(#clipPath2)"/>
      <path fill="white" d="M650.4747 564.1575 L634.4747 558.1575 L634.4747 570.1575 Z" clip-path="url(#clipPath2)" stroke="none"/>
      <path fill="none" d="M650.4747 564.1575 L634.4747 558.1575 L634.4747 570.1575 Z" clip-path="url(#clipPath2)"/>
      <rect x="532.5382" y="552.3568" clip-path="url(#clipPath2)" fill="white" width="68.9219" height="23.6016" stroke="none"/>
      <text x="534.5382" font-size="16px" y="570.4427" clip-path="url(#clipPath2)" font-family="sans-serif" stroke="none" xml:space="preserve">rdfs:label</text>
      <path fill="none" d="M1192.2462 652.72 L1333.0792 652.72 L1333.0792 594.1685" clip-path="url(#clipPath2)" stroke="black"/>
      <path fill="black" d="M1333.0792 586.1685 L1328.0792 598.1685 L1333.0792 595.1685 L1338.0792 598.1685 Z" clip-path="url(#clipPath2)" stroke="none"/>
      <path fill="none" d="M1192.2462 702.72 L1333.0792 702.72 L1333.0792 594.1801" clip-path="url(#clipPath2)" stroke="black"/>
      <path fill="black" d="M1333.0792 586.1801 L1328.0792 598.1801 L1333.0792 595.1801 L1338.0792 598.1801 Z" clip-path="url(#clipPath2)" stroke="none"/>
      <rect x="1222.1002" y="690.9193" clip-path="url(#clipPath2)" fill="white" width="90.25" height="23.6016" stroke="none"/>
    </g>
    <g font-size="16px" stroke-linecap="butt" transform="matrix(1,0,0,1,-197,-12)" text-rendering="geometricPrecision" font-family="sans-serif" shape-rendering="geometricPrecision" stroke-miterlimit="1.45">
      <text x="1224.1002" xml:space="preserve" y="709.0052" clip-path="url(#clipPath2)" stroke="none">owl:sameAs</text>
      <path fill="none" d="M300.0986 373.4252 L300.0986 409.1927" clip-path="url(#clipPath2)"/>
      <path d="M300.0986 417.1927 L305.0986 405.1927 L300.0986 408.1927 L295.0986 405.1927 Z" stroke="none" clip-path="url(#clipPath2)"/>
    </g>
    <g stroke-linecap="butt" transform="matrix(1,0,0,1,-197,-12)" fill="navy" text-rendering="geometricPrecision" shape-rendering="geometricPrecision" stroke="navy" stroke-miterlimit="1.45">
      <path fill="none" d="M300.0986 498.1276 L300.0986 448.1927" clip-path="url(#clipPath2)"/>
      <path d="M300.0986 506.1276 C297.8895 506.1276 296.0986 504.3367 296.0986 502.1276 C296.0986 499.9185 297.8895 498.1276 300.0986 498.1276 C302.3077 498.1276 304.0986 499.9185 304.0986 502.1276 C304.0986 504.3367 302.3077 506.1276 300.0986 506.1276 Z" clip-path="url(#clipPath2)" stroke="none"/>
      <path d="M300.0986 437.1927 L294.0986 449.1927 L306.0986 449.1927 Z" clip-path="url(#clipPath2)" stroke="none"/>
      <rect x="227.8447" y="457.8594" clip-path="url(#clipPath2)" fill="white" width="144.5078" height="23.6016" stroke="none"/>
      <text x="229.8447" font-size="16px" y="475.9453" clip-path="url(#clipPath2)" font-family="sans-serif" stroke="none" xml:space="preserve">ecrm:P67_refers_to</text>
      <path fill="none" d="M979.1873 467.3251 L1250.8057 541.6458" clip-path="url(#clipPath2)"/>
      <path d="M971.471 465.2137 C972.054 463.0829 974.254 461.8282 976.3849 462.4112 C978.5157 462.9943 979.7704 465.1943 979.1873 467.3251 C978.6043 469.4559 976.4043 470.7106 974.2734 470.1276 C972.1426 469.5445 970.8879 467.3445 971.471 465.2137 Z" clip-path="url(#clipPath2)" stroke="none"/>
      <path d="M1261.4156 544.5488 L1251.4246 535.5945 L1248.2576 547.1691 Z" clip-path="url(#clipPath2)" stroke="none"/>
      <rect x="1027.0066" y="493.613" clip-path="url(#clipPath2)" fill="white" width="182.7656" height="23.6016" stroke="none"/>
      <text x="1029.0066" font-size="16px" y="511.6989" clip-path="url(#clipPath2)" font-family="sans-serif" stroke="none" xml:space="preserve">ecrm:P1_is_identified_by</text>
      <path fill="none" d="M955.6837 463.6302 L844.0356 463.6302" clip-path="url(#clipPath2)" stroke="black"/>
      <path fill="black" d="M836.0356 463.6302 L848.0356 468.6302 L845.0356 463.6302 L848.0356 458.6302 Z" clip-path="url(#clipPath2)" stroke="none"/>
      <path fill="none" d="M965.6837 449.6302 L965.6837 401.6302 L770.0304 401.6302" clip-path="url(#clipPath2)"/>
      <path d="M965.6837 457.6302 C963.4745 457.6302 961.6837 455.8394 961.6837 453.6302 C961.6837 451.4211 963.4745 449.6302 965.6837 449.6302 C967.8929 449.6302 969.6837 451.4211 969.6837 453.6302 C969.6837 455.8394 967.8929 457.6302 965.6837 457.6302 Z" clip-path="url(#clipPath2)" stroke="none"/>
      <path d="M759.0304 401.6302 L771.0304 407.6302 L771.0304 395.6302 Z" clip-path="url(#clipPath2)" stroke="none"/>
      <rect x="798.2164" y="389.8294" clip-path="url(#clipPath2)" fill="white" width="137.4062" height="23.6016" stroke="none"/>
      <text x="800.2164" font-size="16px" y="407.9154" clip-path="url(#clipPath2)" font-family="sans-serif" stroke="none" xml:space="preserve">ecrm:P2_has_type</text>
      <path fill="none" d="M749.0304 391.6302 L749.0304 354.0809" clip-path="url(#clipPath2)" stroke="black"/>
      <path fill="black" d="M749.0304 346.0809 L744.0304 358.0809 L749.0304 355.0809 L754.0304 358.0809 Z" clip-path="url(#clipPath2)" stroke="none"/>
      <path fill="none" d="M1333.0792 538.1547 L1333.0792 91.6875 L682.9815 91.6875 L649.0522 63.148" clip-path="url(#clipPath2)"/>
      <path d="M1333.0792 546.1547 C1330.8701 546.1547 1329.0792 544.3639 1329.0792 542.1547 C1329.0792 539.9456 1330.8701 538.1547 1333.0792 538.1547 C1335.2883 538.1547 1337.0792 539.9456 1337.0792 542.1547 C1337.0792 544.3639 1335.2883 546.1547 1333.0792 546.1547 Z" clip-path="url(#clipPath2)" stroke="none"/>
      <path d="M640.6342 56.0673 L645.9553 68.3834 L653.6797 59.2001 Z" clip-path="url(#clipPath2)" stroke="none"/>
      <rect x="929.0928" y="79.8867" clip-path="url(#clipPath2)" fill="white" width="157.875" height="23.6016" stroke="none"/>
      <text x="931.0928" font-size="16px" y="97.9727" clip-path="url(#clipPath2)" font-family="sans-serif" stroke="none" xml:space="preserve">hucit:element_part_of</text>
      <path fill="none" d="M642.9815 49.6302 L688.6083 49.6302" clip-path="url(#clipPath2)" stroke="black"/>
      <path fill="black" d="M696.6083 49.6302 L684.6083 44.6302 L687.6083 49.6302 L684.6083 54.6302 Z" clip-path="url(#clipPath2)" stroke="none"/>
      <path fill="none" d="M621.762 58.0042 L511.8187 140.064" clip-path="url(#clipPath2)"/>
      <path d="M628.1732 53.2191 C629.4945 54.9895 629.1306 57.4958 627.3602 58.8172 C625.5898 60.1386 623.0834 59.7746 621.762 58.0042 C620.4407 56.2338 620.8046 53.7275 622.575 52.4061 C624.3454 51.0847 626.8517 51.4487 628.1732 53.2191 Z" clip-path="url(#clipPath2)" stroke="none"/>
      <path d="M503.0034 146.6436 L516.2089 144.2742 L509.0312 134.6575 Z" clip-path="url(#clipPath2)" stroke="none"/>
      <rect x="452.1457" y="89.3268" clip-path="url(#clipPath2)" fill="white" width="223.6797" height="23.6016" stroke="none"/>
      <text x="454.1457" font-size="16px" y="107.4128" clip-path="url(#clipPath2)" font-family="sans-serif" stroke="none" xml:space="preserve">hucit:is_canonical_structure_of</text>
      <path fill="none" d="M485.7362 148.8334 L439.0622 129.7086 L403.5354 78.2283" clip-path="url(#clipPath2)" stroke="black"/>
      <path fill="black" d="M398.9915 71.6439 L401.6921 84.3603 L404.1034 79.0513 L409.9225 78.6805 Z" clip-path="url(#clipPath2)" stroke="none"/>
      <path fill="none" d="M494.9895 166.625 L494.9895 318.4076" clip-path="url(#clipPath2)"/>
      <path d="M494.9895 158.625 C497.1986 158.625 498.9895 160.4159 498.9895 162.625 C498.9895 164.8341 497.1986 166.625 494.9895 166.625 C492.7804 166.625 490.9895 164.8341 490.9895 162.625 C490.9895 160.4159 492.7804 158.625 494.9895 158.625 Z" clip-path="url(#clipPath2)" stroke="none"/>
      <path d="M494.9895 329.4076 L500.9895 317.4076 L488.9895 317.4076 Z" clip-path="url(#clipPath2)" stroke="none"/>
      <rect x="403.6067" y="234.2155" clip-path="url(#clipPath2)" fill="white" width="182.7656" height="23.6016" stroke="none"/>
      <text x="405.6067" font-size="16px" y="252.3014" clip-path="url(#clipPath2)" font-family="sans-serif" stroke="none" xml:space="preserve">ecrm:P1_is_identified_by</text>
      <path fill="none" d="M494.9895 353.4076 L494.9895 377.1201 L713.6873 377.1201 L731.7739 389.663" clip-path="url(#clipPath2)"/>
      <path d="M494.9895 345.4076 C497.1986 345.4076 498.9895 347.1984 498.9895 349.4076 C498.9895 351.6167 497.1986 353.4076 494.9895 353.4076 C492.7804 353.4076 490.9895 351.6167 490.9895 349.4076 C490.9895 347.1984 492.7804 345.4076 494.9895 345.4076 Z" clip-path="url(#clipPath2)" stroke="none"/>
      <path d="M740.813 395.9315 L734.3714 384.1627 L727.533 394.0235 Z" clip-path="url(#clipPath2)" stroke="none"/>
      <rect x="535.6352" y="365.3193" clip-path="url(#clipPath2)" fill="white" width="137.4062" height="23.6016" stroke="none"/>
      <text x="537.6353" font-size="16px" y="383.4052" clip-path="url(#clipPath2)" font-family="sans-serif" stroke="none" xml:space="preserve">ecrm:P2_has_type</text>
      <path fill="none" d="M504.0393 156.8796 L571.9736 188.8177 L739.6304 188.8177" clip-path="url(#clipPath2)" stroke="black"/>
      <path fill="black" d="M747.6304 188.8177 L735.6304 183.8177 L738.6304 188.8177 L735.6304 193.8177 Z" clip-path="url(#clipPath2)" stroke="none"/>
      <rect x="610.1145" y="177.0169" clip-path="url(#clipPath2)" fill="white" width="90.25" height="23.6016" stroke="none"/>
    </g>
    <g font-size="16px" stroke-linecap="butt" transform="matrix(1,0,0,1,-197,-12)" text-rendering="geometricPrecision" font-family="sans-serif" shape-rendering="geometricPrecision" stroke-miterlimit="1.45">
      <text x="612.1145" xml:space="preserve" y="195.1029" clip-path="url(#clipPath2)" stroke="none">owl:sameAs</text>
    </g>
    <g stroke-linecap="butt" transform="matrix(1,0,0,1,-197,-12)" fill="green" text-rendering="geometricPrecision" shape-rendering="geometricPrecision" stroke="green" stroke-miterlimit="1.45">
      <path fill="none" d="M507.6592 158.5814 L571.9736 188.8177 L571.9736 263.4427 L732.6304 263.4427" clip-path="url(#clipPath2)"/>
    </g>
    <g stroke-linecap="butt" transform="matrix(1,0,0,1,-197,-12)" fill-opacity="0" fill="rgb(0,0,0)" text-rendering="geometricPrecision" shape-rendering="geometricPrecision" stroke="rgb(0,0,0)" stroke-opacity="0" stroke-miterlimit="1.45">
      <path d="M500.4194 155.1778 C501.3593 153.1785 503.7419 152.3198 505.7411 153.2597 C507.7403 154.1996 508.5991 156.5822 507.6592 158.5814 C506.7193 160.5806 504.3367 161.4394 502.3374 160.4995 C500.3382 159.5596 499.4795 157.177 500.4194 155.1778 Z" stroke="none" clip-path="url(#clipPath2)"/>
    </g>
    <g stroke-linecap="butt" transform="matrix(1,0,0,1,-197,-12)" fill="green" text-rendering="geometricPrecision" shape-rendering="geometricPrecision" stroke="green" stroke-miterlimit="1.45">
      <path fill="none" d="M500.4194 155.1778 C501.3593 153.1785 503.7419 152.3198 505.7411 153.2597 C507.7403 154.1996 508.5991 156.5822 507.6592 158.5814 C506.7193 160.5806 504.3367 161.4394 502.3374 160.4995 C500.3382 159.5596 499.4795 157.177 500.4194 155.1778 Z" clip-path="url(#clipPath2)"/>
      <path fill="white" d="M747.6304 263.4427 L731.6304 257.4427 L731.6304 269.4427 Z" clip-path="url(#clipPath2)" stroke="none"/>
      <path fill="none" d="M747.6304 263.4427 L731.6304 257.4427 L731.6304 269.4427 Z" clip-path="url(#clipPath2)"/>
      <rect x="620.7786" y="251.6419" clip-path="url(#clipPath2)" fill="white" width="68.9219" height="23.6016" stroke="none"/>
      <text x="622.7786" font-size="16px" y="269.7279" clip-path="url(#clipPath2)" font-family="sans-serif" stroke="none" xml:space="preserve">rdfs:label</text>
      <path fill="none" d="M504.0398 156.8784 L571.9998 188.8177 L571.9998 226.1302 L739.6304 226.1302" clip-path="url(#clipPath2)" stroke="black"/>
      <path fill="black" d="M747.6304 226.1302 L735.6304 221.1302 L738.6304 226.1302 L735.6304 231.1302 Z" clip-path="url(#clipPath2)" stroke="none"/>
      <rect x="610.1276" y="214.3294" clip-path="url(#clipPath2)" fill="white" width="90.25" height="23.6016" stroke="none"/>
    </g>
    <g font-size="16px" stroke-linecap="butt" transform="matrix(1,0,0,1,-197,-12)" text-rendering="geometricPrecision" font-family="sans-serif" shape-rendering="geometricPrecision" stroke-miterlimit="1.45">
      <text x="612.1276" xml:space="preserve" y="232.4154" clip-path="url(#clipPath2)" stroke="none">owl:sameAs</text>
    </g>
  </g>
</svg>
