<?xml version="1.0" encoding="UTF-8"?><svg xmlns="http://www.w3.org/2000/svg" xmlns:xlink="http://www.w3.org/1999/xlink" fill-opacity="1" color-rendering="auto" color-interpolation="auto" text-rendering="auto" stroke="black" stroke-linecap="square" width="1490" stroke-miterlimit="10" shape-rendering="auto" stroke-opacity="1" fill="black" stroke-dasharray="none" font-weight="normal" stroke-width="1" height="555" font-family="'Dialog'" font-style="normal" stroke-linejoin="miter" font-size="12px" stroke-dashoffset="0" image-rendering="auto">
  <!--Generated by ySVG 2.5-->
  <defs id="genericDefs"/>
  <g>
    <defs id="defs1">
      <clipPath clipPathUnits="userSpaceOnUse" id="clipPath1">
        <path d="M0 0 L1490 0 L1490 555 L0 555 L0 0 Z"/>
      </clipPath>
      <clipPath clipPathUnits="userSpaceOnUse" id="clipPath2">
        <path d="M-328 -121 L1162 -121 L1162 434 L-328 434 L-328 -121 Z"/>
      </clipPath>
    </defs>
    <g fill="white" text-rendering="geometricPrecision" shape-rendering="geometricPrecision" transform="translate(328,121)" stroke="white">
      <rect x="-328" width="1490" height="555" y="-121" clip-path="url(#clipPath2)" stroke="none"/>
    </g>
    <g fill="yellow" text-rendering="geometricPrecision" shape-rendering="geometricPrecision" transform="matrix(1,0,0,1,328,121)" stroke="yellow">
      <rect x="-243.2238" y="52.3763" clip-path="url(#clipPath2)" width="154.4682" rx="4" ry="4" height="44" stroke="none"/>
    </g>
    <g font-size="16px" stroke-linecap="butt" transform="matrix(1,0,0,1,328,121)" text-rendering="geometricPrecision" font-family="sans-serif" shape-rendering="geometricPrecision" stroke-miterlimit="1.45">
      <text x="-237.142" xml:space="preserve" y="80.6615" clip-path="url(#clipPath2)" stroke="none">efrbroo:F10_Person</text>
      <rect x="-243.2238" y="52.3763" clip-path="url(#clipPath2)" fill="none" width="154.4682" rx="4" ry="4" height="44"/>
    </g>
    <g fill="yellow" text-rendering="geometricPrecision" shape-rendering="geometricPrecision" transform="matrix(1,0,0,1,328,121)" stroke="yellow">
      <rect x="-312.8589" y="178.3763" clip-path="url(#clipPath2)" width="254.4682" rx="4" ry="4" height="44" stroke="none"/>
    </g>
    <g font-size="16px" stroke-linecap="butt" transform="matrix(1,0,0,1,328,121)" text-rendering="geometricPrecision" font-family="sans-serif" shape-rendering="geometricPrecision" stroke-miterlimit="1.45">
      <text x="-305.6912" xml:space="preserve" y="206.6615" clip-path="url(#clipPath2)" stroke="none">efrbroo:F28_Expression_Creation</text>
      <rect x="-312.8589" y="178.3763" clip-path="url(#clipPath2)" fill="none" width="254.4682" rx="4" ry="4" height="44"/>
      <text x="129.8593" xml:space="preserve" y="-3.7939" clip-path="url(#clipPath2)" stroke="none">"De Chirico, Giorgio, 1888-1978."^^xsd:string </text>
    </g>
    <g fill="rgb(255,153,204)" text-rendering="geometricPrecision" shape-rendering="geometricPrecision" transform="matrix(1,0,0,1,328,121)" stroke="rgb(255,153,204)">
      <circle r="10" clip-path="url(#clipPath2)" cx="117.8593" cy="30.6263" stroke="none"/>
    </g>
    <g font-size="16px" stroke-linecap="butt" transform="matrix(1,0,0,1,328,121)" text-rendering="geometricPrecision" font-family="sans-serif" shape-rendering="geometricPrecision" stroke-miterlimit="1.45">
      <text x="133.8593" xml:space="preserve" y="36.9115" clip-path="url(#clipPath2)" stroke="none">&lt;http://viaf.org/viaf/104172730&gt;</text>
      <circle fill="none" stroke-width="3" r="10" clip-path="url(#clipPath2)" cx="117.8593" cy="30.6263"/>
    </g>
    <g fill="rgb(255,153,204)" text-rendering="geometricPrecision" shape-rendering="geometricPrecision" transform="matrix(1,0,0,1,328,121)" stroke="rgb(255,153,204)">
      <circle r="10" clip-path="url(#clipPath2)" cx="-18.3907" cy="74.3763" stroke="none"/>
    </g>
    <g font-size="16px" stroke-linecap="butt" transform="matrix(1,0,0,1,328,121)" text-rendering="geometricPrecision" font-family="sans-serif" shape-rendering="geometricPrecision" stroke-miterlimit="1.45">
      <text x="-2.3907" xml:space="preserve" y="80.6615" clip-path="url(#clipPath2)" stroke="none">myth-pers:de-chirico-giorgio</text>
      <circle fill="none" stroke-width="3" r="10" clip-path="url(#clipPath2)" cx="-18.3907" cy="74.3763"/>
    </g>
    <g fill="rgb(255,153,204)" text-rendering="geometricPrecision" shape-rendering="geometricPrecision" transform="matrix(1,0,0,1,328,121)" stroke="rgb(255,153,204)">
      <circle r="10" clip-path="url(#clipPath2)" cx="-18.3907" cy="200.3763" stroke="none"/>
    </g>
    <g font-size="16px" stroke-linecap="butt" transform="matrix(1,0,0,1,328,121)" text-rendering="geometricPrecision" font-family="sans-serif" shape-rendering="geometricPrecision" stroke-miterlimit="1.45">
      <text x="-2.3907" xml:space="preserve" y="206.6615" clip-path="url(#clipPath2)" stroke="none">myth-item:102-creation</text>
      <circle fill="none" stroke-width="3" r="10" clip-path="url(#clipPath2)" cx="-18.3907" cy="200.3763"/>
    </g>
    <g fill="rgb(255,153,204)" text-rendering="geometricPrecision" shape-rendering="geometricPrecision" transform="matrix(1,0,0,1,328,121)" stroke="rgb(255,153,204)">
      <circle r="10" clip-path="url(#clipPath2)" cx="241.8752" cy="260.1263" stroke="none"/>
    </g>
    <g font-size="16px" stroke-linecap="butt" transform="matrix(1,0,0,1,328,121)" text-rendering="geometricPrecision" font-family="sans-serif" shape-rendering="geometricPrecision" stroke-miterlimit="1.45">
      <text x="257.8752" xml:space="preserve" y="266.4115" clip-path="url(#clipPath2)" stroke="none">myth-time:arte-contemporanea</text>
      <circle fill="none" stroke-width="3" r="10" clip-path="url(#clipPath2)" cx="241.8752" cy="260.1263"/>
    </g>
    <g fill="rgb(255,153,204)" text-rendering="geometricPrecision" shape-rendering="geometricPrecision" transform="matrix(1,0,0,1,328,121)" stroke="rgb(255,153,204)">
      <circle r="10" clip-path="url(#clipPath2)" cx="241.8752" cy="301.8713" stroke="none"/>
    </g>
    <g font-size="16px" stroke-linecap="butt" transform="matrix(1,0,0,1,328,121)" text-rendering="geometricPrecision" font-family="sans-serif" shape-rendering="geometricPrecision" stroke-miterlimit="1.45">
      <text x="257.8752" xml:space="preserve" y="308.1565" clip-path="url(#clipPath2)" stroke="none">myth-time:1913</text>
      <circle fill="none" stroke-width="3" r="10" clip-path="url(#clipPath2)" cx="241.8752" cy="301.8713"/>
    </g>
    <g fill="rgb(255,153,204)" text-rendering="geometricPrecision" shape-rendering="geometricPrecision" transform="matrix(1,0,0,1,328,121)" stroke="rgb(255,153,204)">
      <circle r="10" clip-path="url(#clipPath2)" cx="241.8752" cy="336.8713" stroke="none"/>
    </g>
    <g font-size="16px" stroke-linecap="butt" transform="matrix(1,0,0,1,328,121)" text-rendering="geometricPrecision" font-family="sans-serif" shape-rendering="geometricPrecision" stroke-miterlimit="1.45">
      <text x="257.8752" xml:space="preserve" y="343.1565" clip-path="url(#clipPath2)" stroke="none">myth-time:xx-secolo</text>
      <circle fill="none" stroke-width="3" r="10" clip-path="url(#clipPath2)" cx="241.8752" cy="336.8713"/>
    </g>
    <g fill="rgb(255,153,204)" text-rendering="geometricPrecision" shape-rendering="geometricPrecision" transform="matrix(1,0,0,1,328,121)" stroke="rgb(255,153,204)">
      <circle r="10" clip-path="url(#clipPath2)" cx="241.8752" cy="371.8713" stroke="none"/>
    </g>
    <g font-size="16px" stroke-linecap="butt" transform="matrix(1,0,0,1,328,121)" text-rendering="geometricPrecision" font-family="sans-serif" shape-rendering="geometricPrecision" stroke-miterlimit="1.45">
      <text x="257.8752" xml:space="preserve" y="378.1565" clip-path="url(#clipPath2)" stroke="none">item/102</text>
      <circle fill="none" stroke-width="3" r="10" clip-path="url(#clipPath2)" cx="241.8752" cy="371.8713"/>
    </g>
    <g fill="rgb(255,153,204)" text-rendering="geometricPrecision" shape-rendering="geometricPrecision" transform="matrix(1,0,0,1,328,121)" stroke="rgb(255,153,204)">
      <circle r="10" clip-path="url(#clipPath2)" cx="241.8752" cy="406.8713" stroke="none"/>
    </g>
    <g font-size="16px" stroke-linecap="butt" transform="matrix(1,0,0,1,328,121)" text-rendering="geometricPrecision" font-family="sans-serif" shape-rendering="geometricPrecision" stroke-miterlimit="1.45">
      <text x="257.8752" xml:space="preserve" y="413.1565" clip-path="url(#clipPath2)" stroke="none">item/102-expression</text>
      <circle fill="none" stroke-width="3" r="10" clip-path="url(#clipPath2)" cx="241.8752" cy="406.8713"/>
    </g>
    <g fill="yellow" text-rendering="geometricPrecision" shape-rendering="geometricPrecision" transform="matrix(1,0,0,1,328,121)" stroke="yellow">
      <rect x="519.9485" y="-31.3994" clip-path="url(#clipPath2)" width="154.4682" rx="4" ry="4" height="44" stroke="none"/>
    </g>
    <g font-size="16px" stroke-linecap="butt" transform="matrix(1,0,0,1,328,121)" text-rendering="geometricPrecision" font-family="sans-serif" shape-rendering="geometricPrecision" stroke-miterlimit="1.45">
      <text x="526.0303" xml:space="preserve" y="-3.1142" clip-path="url(#clipPath2)" stroke="none">efrbroo:F10_Person</text>
      <rect x="519.9485" y="-31.3994" clip-path="url(#clipPath2)" fill="none" width="154.4682" rx="4" ry="4" height="44"/>
      <text x="862.6667" xml:space="preserve" y="-87.5696" clip-path="url(#clipPath2)" stroke="none">"Calvino, Italo, 1923-1985."^^xsd:string </text>
    </g>
    <g fill="rgb(255,153,204)" text-rendering="geometricPrecision" shape-rendering="geometricPrecision" transform="matrix(1,0,0,1,328,121)" stroke="rgb(255,153,204)">
      <circle r="10" clip-path="url(#clipPath2)" cx="850.6667" cy="-53.1494" stroke="none"/>
    </g>
    <g font-size="16px" stroke-linecap="butt" transform="matrix(1,0,0,1,328,121)" text-rendering="geometricPrecision" font-family="sans-serif" shape-rendering="geometricPrecision" stroke-miterlimit="1.45">
      <text x="866.6667" xml:space="preserve" y="-46.8642" clip-path="url(#clipPath2)" stroke="none">&lt;http://viaf.org/viaf/8520&gt; </text>
      <circle fill="none" stroke-width="3" r="10" clip-path="url(#clipPath2)" cx="850.6667" cy="-53.1494"/>
    </g>
    <g fill="rgb(255,153,204)" text-rendering="geometricPrecision" shape-rendering="geometricPrecision" transform="matrix(1,0,0,1,328,121)" stroke="rgb(255,153,204)">
      <circle r="10" clip-path="url(#clipPath2)" cx="714.4167" cy="-9.3994" stroke="none"/>
    </g>
    <g font-size="16px" stroke-linecap="butt" transform="matrix(1,0,0,1,328,121)" text-rendering="geometricPrecision" font-family="sans-serif" shape-rendering="geometricPrecision" stroke-miterlimit="1.45">
      <text x="730.4167" xml:space="preserve" y="-3.1142" clip-path="url(#clipPath2)" stroke="none">myth-pers:calvino-italo</text>
      <circle fill="none" stroke-width="3" r="10" clip-path="url(#clipPath2)" cx="714.4167" cy="-9.3994"/>
    </g>
    <g fill="yellow" text-rendering="geometricPrecision" shape-rendering="geometricPrecision" transform="matrix(1,0,0,1,328,121)" stroke="yellow">
      <rect x="451.8235" y="163.0956" clip-path="url(#clipPath2)" width="222.5932" rx="4" ry="4" height="44" stroke="none"/>
    </g>
    <g font-size="16px" stroke-linecap="butt" transform="matrix(1,0,0,1,328,121)" text-rendering="geometricPrecision" font-family="sans-serif" shape-rendering="geometricPrecision" stroke-miterlimit="1.45">
      <text x="453.7295" xml:space="preserve" y="191.3808" clip-path="url(#clipPath2)" stroke="none">efrbroo:F27_Work_Conception</text>
      <rect x="451.8235" y="163.0956" clip-path="url(#clipPath2)" fill="none" width="222.5932" rx="4" ry="4" height="44"/>
    </g>
    <g fill="rgb(255,153,204)" text-rendering="geometricPrecision" shape-rendering="geometricPrecision" transform="matrix(1,0,0,1,328,121)" stroke="rgb(255,153,204)">
      <circle r="10" clip-path="url(#clipPath2)" cx="714.4167" cy="185.0956" stroke="none"/>
    </g>
    <g font-size="16px" stroke-linecap="butt" transform="matrix(1,0,0,1,328,121)" text-rendering="geometricPrecision" font-family="sans-serif" shape-rendering="geometricPrecision" stroke-miterlimit="1.45">
      <text x="730.4167" xml:space="preserve" y="191.3808" clip-path="url(#clipPath2)" stroke="none">myth-work:calvino-italo-la-sfida-al-labirinto-conception</text>
      <circle fill="none" stroke-width="3" r="10" clip-path="url(#clipPath2)" cx="714.4167" cy="185.0956"/>
    </g>
    <g fill="rgb(255,153,204)" text-rendering="geometricPrecision" shape-rendering="geometricPrecision" transform="matrix(1,0,0,1,328,121)" stroke="rgb(255,153,204)">
      <circle r="10" clip-path="url(#clipPath2)" cx="714.4167" cy="285.8406" stroke="none"/>
    </g>
    <g font-size="16px" stroke-linecap="butt" transform="matrix(1,0,0,1,328,121)" text-rendering="geometricPrecision" font-family="sans-serif" shape-rendering="geometricPrecision" stroke-miterlimit="1.45">
      <text x="730.4167" xml:space="preserve" y="292.1258" clip-path="url(#clipPath2)" stroke="none">myth-work:calvino-italo-la-sfida-al-labirinto</text>
      <circle fill="none" stroke-width="3" r="10" clip-path="url(#clipPath2)" cx="714.4167" cy="285.8406"/>
      <path fill="none" d="M-18.3907 64.3763 L-18.3907 30.6263 L99.8593 30.6263" clip-path="url(#clipPath2)"/>
      <path d="M107.8593 30.6263 L95.8593 25.6263 L98.8593 30.6263 L95.8593 35.6263 Z" stroke="none" clip-path="url(#clipPath2)"/>
    </g>
    <g stroke-linecap="butt" transform="matrix(1,0,0,1,328,121)" fill="white" text-rendering="geometricPrecision" shape-rendering="geometricPrecision" stroke="white" stroke-miterlimit="1.45">
      <rect x="-4.9532" width="90.25" height="23.6016" y="18.8255" clip-path="url(#clipPath2)" stroke="none"/>
    </g>
    <g font-size="16px" stroke-linecap="butt" transform="matrix(1,0,0,1,328,121)" text-rendering="geometricPrecision" font-family="sans-serif" shape-rendering="geometricPrecision" stroke-miterlimit="1.45">
      <text x="-2.9532" xml:space="preserve" y="36.9115" clip-path="url(#clipPath2)" stroke="none">owl:sameAs</text>
    </g>
    <g stroke-linecap="butt" transform="matrix(1,0,0,1,328,121)" fill="green" text-rendering="geometricPrecision" shape-rendering="geometricPrecision" stroke="green" stroke-miterlimit="1.45">
      <path fill="none" d="M-18.3907 60.3763 L-18.3907 -9.3994 L112.8593 -9.3994" clip-path="url(#clipPath2)"/>
    </g>
    <g stroke-linecap="butt" transform="matrix(1,0,0,1,328,121)" fill-opacity="0" fill="rgb(0,0,0)" text-rendering="geometricPrecision" shape-rendering="geometricPrecision" stroke="rgb(0,0,0)" stroke-opacity="0" stroke-miterlimit="1.45">
      <path d="M-18.3907 68.3763 C-20.5999 68.3763 -22.3907 66.5855 -22.3907 64.3763 C-22.3907 62.1672 -20.5999 60.3763 -18.3907 60.3763 C-16.1816 60.3763 -14.3907 62.1672 -14.3907 64.3763 C-14.3907 66.5855 -16.1816 68.3763 -18.3907 68.3763 Z" stroke="none" clip-path="url(#clipPath2)"/>
    </g>
    <g stroke-linecap="butt" transform="matrix(1,0,0,1,328,121)" fill="green" text-rendering="geometricPrecision" shape-rendering="geometricPrecision" stroke="green" stroke-miterlimit="1.45">
      <path fill="none" d="M-18.3907 68.3763 C-20.5999 68.3763 -22.3907 66.5855 -22.3907 64.3763 C-22.3907 62.1672 -20.5999 60.3763 -18.3907 60.3763 C-16.1816 60.3763 -14.3907 62.1672 -14.3907 64.3763 C-14.3907 66.5855 -16.1816 68.3763 -18.3907 68.3763 Z" clip-path="url(#clipPath2)"/>
      <path fill="white" d="M127.8593 -9.3994 L111.8593 -15.3994 L111.8593 -3.3994 Z" clip-path="url(#clipPath2)" stroke="none"/>
      <path fill="none" d="M127.8593 -9.3994 L111.8593 -15.3994 L111.8593 -3.3994 Z" clip-path="url(#clipPath2)"/>
      <rect x="15.7108" y="-21.2002" clip-path="url(#clipPath2)" fill="white" width="68.9219" height="23.6016" stroke="none"/>
      <text x="17.7108" font-size="16px" y="-3.1142" clip-path="url(#clipPath2)" font-family="sans-serif" stroke="none" xml:space="preserve">rdfs:label</text>
      <path fill="none" d="M-28.3907 74.3763 L-80.7582 74.3763" clip-path="url(#clipPath2)" stroke="black"/>
      <path fill="black" d="M-88.7582 74.3763 L-76.7582 79.3763 L-79.7582 74.3763 L-76.7582 69.3763 Z" clip-path="url(#clipPath2)" stroke="none"/>
      <path fill="none" d="M-18.3907 186.3763 L-18.3907 95.3763" clip-path="url(#clipPath2)" stroke="navy"/>
      <path fill="navy" d="M-18.3907 194.3763 C-20.5999 194.3763 -22.3907 192.5855 -22.3907 190.3763 C-22.3907 188.1672 -20.5999 186.3763 -18.3907 186.3763 C-16.1816 186.3763 -14.3907 188.1672 -14.3907 190.3763 C-14.3907 192.5855 -16.1816 194.3763 -18.3907 194.3763 Z" clip-path="url(#clipPath2)" stroke="none"/>
      <path fill="navy" d="M-18.3907 84.3763 L-24.3907 96.3763 L-12.3907 96.3763 Z" clip-path="url(#clipPath2)" stroke="none"/>
      <rect x="-111.9962" y="125.5755" clip-path="url(#clipPath2)" fill="white" width="187.2109" height="23.6016" stroke="none"/>
    </g>
    <g stroke-linecap="butt" font-size="16px" transform="matrix(1,0,0,1,328,121)" fill="navy" text-rendering="geometricPrecision" font-family="sans-serif" shape-rendering="geometricPrecision" stroke="navy" stroke-miterlimit="1.45">
      <text x="-109.9962" xml:space="preserve" y="143.6615" clip-path="url(#clipPath2)" stroke="none">ecrm:P14_carried_out_by</text>
    </g>
    <g text-rendering="geometricPrecision" stroke-miterlimit="1.45" shape-rendering="geometricPrecision" transform="matrix(1,0,0,1,328,121)" stroke-linecap="butt">
      <path fill="none" d="M-28.3907 200.3763 L-50.3712 200.3763" clip-path="url(#clipPath2)"/>
      <path d="M-58.3712 200.3763 L-46.3712 205.3763 L-49.3712 200.3763 L-46.3712 195.3763 Z" clip-path="url(#clipPath2)" stroke="none"/>
      <path fill="none" d="M-18.3907 214.3763 L-18.3907 260.1263 L220.8752 260.1263" clip-path="url(#clipPath2)" stroke="navy"/>
      <path fill="navy" d="M-18.3907 206.3763 C-16.1816 206.3763 -14.3907 208.1672 -14.3907 210.3763 C-14.3907 212.5855 -16.1816 214.3763 -18.3907 214.3763 C-20.5999 214.3763 -22.3907 212.5855 -22.3907 210.3763 C-22.3907 208.1672 -20.5999 206.3763 -18.3907 206.3763 Z" clip-path="url(#clipPath2)" stroke="none"/>
      <path fill="navy" d="M231.8752 260.1263 L219.8752 254.1263 L219.8752 266.1263 Z" clip-path="url(#clipPath2)" stroke="none"/>
      <rect x="22.3672" y="248.3255" clip-path="url(#clipPath2)" fill="white" width="159.625" height="23.6016" stroke="none"/>
    </g>
    <g stroke-linecap="butt" font-size="16px" transform="matrix(1,0,0,1,328,121)" fill="navy" text-rendering="geometricPrecision" font-family="sans-serif" shape-rendering="geometricPrecision" stroke="navy" stroke-miterlimit="1.45">
      <text x="24.3672" xml:space="preserve" y="266.4115" clip-path="url(#clipPath2)" stroke="none">ecrm:P10_falls_within</text>
      <path fill="none" d="M-18.3907 214.3763 L-18.3907 301.8713 L220.8752 301.8713" clip-path="url(#clipPath2)"/>
      <path d="M-18.3907 206.3763 C-16.1816 206.3763 -14.3907 208.1672 -14.3907 210.3763 C-14.3907 212.5855 -16.1816 214.3763 -18.3907 214.3763 C-20.5999 214.3763 -22.3907 212.5855 -22.3907 210.3763 C-22.3907 208.1672 -20.5999 206.3763 -18.3907 206.3763 Z" stroke="none" clip-path="url(#clipPath2)"/>
      <path d="M231.8752 301.8713 L219.8752 295.8713 L219.8752 307.8713 Z" stroke="none" clip-path="url(#clipPath2)"/>
    </g>
    <g stroke-linecap="butt" transform="matrix(1,0,0,1,328,121)" fill="white" text-rendering="geometricPrecision" shape-rendering="geometricPrecision" stroke="white" stroke-miterlimit="1.45">
      <rect x="11.6875" width="180.9844" height="23.6016" y="290.0705" clip-path="url(#clipPath2)" stroke="none"/>
    </g>
    <g stroke-linecap="butt" font-size="16px" transform="matrix(1,0,0,1,328,121)" fill="navy" text-rendering="geometricPrecision" font-family="sans-serif" shape-rendering="geometricPrecision" stroke="navy" stroke-miterlimit="1.45">
      <text x="13.6875" xml:space="preserve" y="308.1565" clip-path="url(#clipPath2)" stroke="none">ecrm:P4_has_time_span</text>
      <path fill="none" d="M-18.3907 214.3763 L-18.3907 336.8713 L220.8752 336.8713" clip-path="url(#clipPath2)"/>
      <path d="M-18.3907 206.3763 C-16.1816 206.3763 -14.3907 208.1672 -14.3907 210.3763 C-14.3907 212.5855 -16.1816 214.3763 -18.3907 214.3763 C-20.5999 214.3763 -22.3907 212.5855 -22.3907 210.3763 C-22.3907 208.1672 -20.5999 206.3763 -18.3907 206.3763 Z" stroke="none" clip-path="url(#clipPath2)"/>
      <path d="M231.8752 336.8713 L219.8752 330.8713 L219.8752 342.8713 Z" stroke="none" clip-path="url(#clipPath2)"/>
    </g>
    <g stroke-linecap="butt" transform="matrix(1,0,0,1,328,121)" fill="white" text-rendering="geometricPrecision" shape-rendering="geometricPrecision" stroke="white" stroke-miterlimit="1.45">
      <rect x="11.6875" width="180.9844" height="23.6016" y="325.0705" clip-path="url(#clipPath2)" stroke="none"/>
    </g>
    <g stroke-linecap="butt" font-size="16px" transform="matrix(1,0,0,1,328,121)" fill="navy" text-rendering="geometricPrecision" font-family="sans-serif" shape-rendering="geometricPrecision" stroke="navy" stroke-miterlimit="1.45">
      <text x="13.6875" xml:space="preserve" y="343.1565" clip-path="url(#clipPath2)" stroke="none">ecrm:P4_has_time_span</text>
      <path fill="none" d="M-18.3907 214.3763 L-18.3907 371.8713 L220.8752 371.8713" clip-path="url(#clipPath2)"/>
      <path d="M-18.3907 206.3763 C-16.1816 206.3763 -14.3907 208.1672 -14.3907 210.3763 C-14.3907 212.5855 -16.1816 214.3763 -18.3907 214.3763 C-20.5999 214.3763 -22.3907 212.5855 -22.3907 210.3763 C-22.3907 208.1672 -20.5999 206.3763 -18.3907 206.3763 Z" stroke="none" clip-path="url(#clipPath2)"/>
      <path d="M231.8752 371.8713 L219.8752 365.8713 L219.8752 377.8713 Z" stroke="none" clip-path="url(#clipPath2)"/>
    </g>
    <g stroke-linecap="butt" transform="matrix(1,0,0,1,328,121)" fill="white" text-rendering="geometricPrecision" shape-rendering="geometricPrecision" stroke="white" stroke-miterlimit="1.45">
      <rect x="26.8008" width="150.7578" height="23.6016" y="360.0705" clip-path="url(#clipPath2)" stroke="none"/>
    </g>
    <g stroke-linecap="butt" font-size="16px" transform="matrix(1,0,0,1,328,121)" fill="navy" text-rendering="geometricPrecision" font-family="sans-serif" shape-rendering="geometricPrecision" stroke="navy" stroke-miterlimit="1.45">
      <text x="28.8008" xml:space="preserve" y="378.1565" clip-path="url(#clipPath2)" stroke="none">efrbroo:R18_created</text>
      <path fill="none" d="M-18.3907 214.3763 L-18.3907 406.8713 L220.8752 406.8713" clip-path="url(#clipPath2)"/>
      <path d="M-18.3907 206.3763 C-16.1816 206.3763 -14.3907 208.1672 -14.3907 210.3763 C-14.3907 212.5855 -16.1816 214.3763 -18.3907 214.3763 C-20.5999 214.3763 -22.3907 212.5855 -22.3907 210.3763 C-22.3907 208.1672 -20.5999 206.3763 -18.3907 206.3763 Z" stroke="none" clip-path="url(#clipPath2)"/>
      <path d="M231.8752 406.8713 L219.8752 400.8713 L219.8752 412.8713 Z" stroke="none" clip-path="url(#clipPath2)"/>
    </g>
    <g stroke-linecap="butt" transform="matrix(1,0,0,1,328,121)" fill="white" text-rendering="geometricPrecision" shape-rendering="geometricPrecision" stroke="white" stroke-miterlimit="1.45">
      <rect x="26.8008" width="150.7578" height="23.6016" y="395.0705" clip-path="url(#clipPath2)" stroke="none"/>
    </g>
    <g stroke-linecap="butt" font-size="16px" transform="matrix(1,0,0,1,328,121)" fill="navy" text-rendering="geometricPrecision" font-family="sans-serif" shape-rendering="geometricPrecision" stroke="navy" stroke-miterlimit="1.45">
      <text x="28.8008" xml:space="preserve" y="413.1565" clip-path="url(#clipPath2)" stroke="none">efrbroo:R18_created</text>
    </g>
    <g stroke-linecap="butt" transform="matrix(1,0,0,1,328,121)" fill="green" text-rendering="geometricPrecision" shape-rendering="geometricPrecision" stroke="green" stroke-miterlimit="1.45">
      <path fill="none" d="M714.4167 -23.3994 L714.4167 -93.1751 L845.6667 -93.1751" clip-path="url(#clipPath2)"/>
    </g>
    <g stroke-linecap="butt" transform="matrix(1,0,0,1,328,121)" fill-opacity="0" fill="rgb(0,0,0)" text-rendering="geometricPrecision" shape-rendering="geometricPrecision" stroke="rgb(0,0,0)" stroke-opacity="0" stroke-miterlimit="1.45">
      <path d="M714.4167 -15.3994 C712.2075 -15.3994 710.4167 -17.1902 710.4167 -19.3994 C710.4167 -21.6085 712.2075 -23.3994 714.4167 -23.3994 C716.6259 -23.3994 718.4167 -21.6085 718.4167 -19.3994 C718.4167 -17.1902 716.6259 -15.3994 714.4167 -15.3994 Z" stroke="none" clip-path="url(#clipPath2)"/>
    </g>
    <g stroke-linecap="butt" transform="matrix(1,0,0,1,328,121)" fill="green" text-rendering="geometricPrecision" shape-rendering="geometricPrecision" stroke="green" stroke-miterlimit="1.45">
      <path fill="none" d="M714.4167 -15.3994 C712.2075 -15.3994 710.4167 -17.1902 710.4167 -19.3994 C710.4167 -21.6085 712.2075 -23.3994 714.4167 -23.3994 C716.6259 -23.3994 718.4167 -21.6085 718.4167 -19.3994 C718.4167 -17.1902 716.6259 -15.3994 714.4167 -15.3994 Z" clip-path="url(#clipPath2)"/>
      <path fill="white" d="M860.6667 -93.1751 L844.6667 -99.1751 L844.6667 -87.1751 Z" clip-path="url(#clipPath2)" stroke="none"/>
      <path fill="none" d="M860.6667 -93.1751 L844.6667 -99.1751 L844.6667 -87.1751 Z" clip-path="url(#clipPath2)"/>
      <rect x="748.5183" y="-104.9759" clip-path="url(#clipPath2)" fill="white" width="68.9219" height="23.6016" stroke="none"/>
      <text x="750.5182" font-size="16px" y="-86.8899" clip-path="url(#clipPath2)" font-family="sans-serif" stroke="none" xml:space="preserve">rdfs:label</text>
      <path fill="none" d="M714.4167 -19.3994 L714.4167 -53.1494 L832.6667 -53.1494" clip-path="url(#clipPath2)" stroke="black"/>
      <path fill="black" d="M840.6667 -53.1494 L828.6667 -58.1494 L831.6667 -53.1494 L828.6667 -48.1494 Z" clip-path="url(#clipPath2)" stroke="none"/>
      <rect x="727.8542" y="-64.9502" clip-path="url(#clipPath2)" fill="white" width="90.25" height="23.6016" stroke="none"/>
    </g>
    <g font-size="16px" stroke-linecap="butt" transform="matrix(1,0,0,1,328,121)" text-rendering="geometricPrecision" font-family="sans-serif" shape-rendering="geometricPrecision" stroke-miterlimit="1.45">
      <text x="729.8542" xml:space="preserve" y="-46.8642" clip-path="url(#clipPath2)" stroke="none">owl:sameAs</text>
      <path fill="none" d="M704.4167 -9.3994 L682.4404 -9.3994" clip-path="url(#clipPath2)"/>
      <path d="M674.4404 -9.3994 L686.4404 -4.3994 L683.4404 -9.3994 L686.4404 -14.3994 Z" stroke="none" clip-path="url(#clipPath2)"/>
    </g>
    <g stroke-linecap="butt" transform="matrix(1,0,0,1,328,121)" fill="navy" text-rendering="geometricPrecision" shape-rendering="geometricPrecision" stroke="navy" stroke-miterlimit="1.45">
      <path fill="none" d="M714.4167 171.0956 L714.4167 11.6006" clip-path="url(#clipPath2)"/>
      <path d="M714.4167 179.0956 C712.2075 179.0956 710.4167 177.3047 710.4167 175.0956 C710.4167 172.8865 712.2075 171.0956 714.4167 171.0956 C716.6259 171.0956 718.4167 172.8865 718.4167 175.0956 C718.4167 177.3047 716.6259 179.0956 714.4167 179.0956 Z" clip-path="url(#clipPath2)" stroke="none"/>
      <path d="M714.4167 0.6006 L708.4167 12.6006 L720.4167 12.6006 Z" clip-path="url(#clipPath2)" stroke="none"/>
      <rect x="620.8112" y="76.0473" clip-path="url(#clipPath2)" fill="white" width="187.2109" height="23.6016" stroke="none"/>
      <text x="622.8112" font-size="16px" y="94.1333" clip-path="url(#clipPath2)" font-family="sans-serif" stroke="none" xml:space="preserve">ecrm:P14_carried_out_by</text>
      <path fill="none" d="M704.4167 185.0956 L682.4395 185.0956" clip-path="url(#clipPath2)" stroke="black"/>
      <path fill="black" d="M674.4395 185.0956 L686.4395 190.0956 L683.4395 185.0956 L686.4395 180.0956 Z" clip-path="url(#clipPath2)" stroke="none"/>
      <path fill="none" d="M714.4167 199.0956 L714.4167 264.8406" clip-path="url(#clipPath2)"/>
      <path d="M714.4167 191.0956 C716.6259 191.0956 718.4167 192.8865 718.4167 195.0956 C718.4167 197.3047 716.6259 199.0956 714.4167 199.0956 C712.2075 199.0956 710.4167 197.3047 710.4167 195.0956 C710.4167 192.8865 712.2075 191.0956 714.4167 191.0956 Z" clip-path="url(#clipPath2)" stroke="none"/>
      <path d="M714.4167 275.8406 L720.4167 263.8406 L708.4167 263.8406 Z" clip-path="url(#clipPath2)" stroke="none"/>
      <rect x="638.1472" y="223.6673" clip-path="url(#clipPath2)" fill="white" width="152.5391" height="23.6016" stroke="none"/>
      <text x="640.1472" font-size="16px" y="241.7533" clip-path="url(#clipPath2)" font-family="sans-serif" stroke="none" xml:space="preserve">efrbroo:R16_initiated</text>
    </g>
  </g>
</svg>
